<svg width="12" height="31" viewBox="0 0 12 31" fill="none" xmlns="http://www.w3.org/2000/svg">
<g clip-path="url(#clip0_790_2)">
<path d="M4.86133 9.32411L6.02053 8.19556L6.0379 9.8221L4.86133 9.32411Z" fill="#0C6763"/>
<path d="M4.86133 9.32403L5.25141 8.11694L6.02053 8.19548L4.86133 9.32403Z" fill="#6B826E"/>
<path d="M6.03806 9.8147L3.78125 14.8375L6.00805 16.9371L6.03806 9.8147Z" fill="#8A9192"/>
<path d="M4.8617 9.32422L4.73535 10.6195L6.03827 9.82221L4.8617 9.32422Z" fill="#407870"/>
<path d="M4.73514 10.6194L6.03806 9.82202L3.78125 14.8375L4.73514 10.6194Z" fill="#6F8487"/>
<path d="M3.88281 9.25941L3.98441 9.17487L4.14234 9.04183L5.25048 8.11792L4.8604 9.32501L3.88281 9.25941Z" fill="#1F7262"/>
<path d="M3.87299 3.76904L3.86035 9.27787L5.25118 8.11697L3.87299 3.76904Z" fill="#4B595D"/>
<path d="M2.18848 1.80542L3.87306 3.76919L3.88253 9.25954L3.75829 8.8581L3.74566 8.81791L3.7325 8.75831L3.70986 8.65622L3.5951 8.13837L3.45139 7.49117L3.24344 6.55432L3.10236 5.92006L2.78913 4.51017L2.18848 1.80542Z" fill="#25677A"/>
<path d="M1.40039 1.26025L2.18898 1.80536L3.75143 8.84049L1.40039 1.26025Z" fill="#407870"/>
<path d="M1.46973 1.47827L3.88341 9.25945L2.83739 7.72253L1.46973 1.47827Z" fill="#6B8688"/>
<path d="M4.86168 9.32422L3.8125 10.1544L4.62005 10.5664L4.73533 10.6195L4.85325 9.4083L4.86168 9.32422Z" fill="#517680"/>
<path d="M4.86202 9.3242L1.89453 11.6728L3.88339 9.25952L4.86202 9.3242Z" fill="#417870"/>
<path d="M2.83737 7.72241L1.89453 11.6726L3.88339 9.25934L2.83737 7.72241Z" fill="#1C7460"/>
<path d="M2.83668 7.72241L1.70801 9.01265L1.89384 11.6726L2.83668 7.72241Z" fill="#3E776E"/>
<path d="M1.40071 1.26025L1.37965 1.32447L1.36333 1.38452L1.31174 1.57716L1.24963 1.80675L1.14802 2.18278L0.957456 2.88865L0.750042 3.6578L0.527888 4.48009L0.434183 4.82609L0.280466 5.39661L0.0419922 6.28541L2.83734 7.72255L1.94504 3.65041L1.67603 2.42161L1.61339 2.13381L1.52495 1.73099L1.46809 1.47691L1.40071 1.26025Z" fill="#1E2B4D"/>
<path d="M0.650391 0L1.40003 1.26022L2.18862 1.80532L0.650391 0Z" fill="#12172A"/>
<path d="M0.0546875 0.045298L0.647976 0.000488281L1.40025 1.26024L1.37919 1.32584L1.3376 1.28565L1.16072 1.11473L0.952779 0.914237L0.0546875 0.045298Z" fill="#48555F"/>
<path d="M0.055153 0.045166L0.0419922 6.28157L1.37965 1.32571L0.055153 0.045166Z" fill="#141A2F"/>
<path d="M1.70807 9.01271L2.83674 7.72247L2.61616 7.60883L2.08973 7.34089C1.84389 7.21201 1.60384 7.09328 1.35799 6.9644C1.17901 6.87201 0.989492 6.77268 0.807347 6.67891C0.612041 6.57635 0.422526 6.47888 0.228273 6.37633C0.178788 6.35046 0.0929797 6.31119 0.0429688 6.28394C0.59888 7.1769 1.15111 8.12113 1.70807 9.01271Z" fill="#171B33"/>
<path d="M1.89453 11.6727L3.73915 11.4247L3.81285 10.1543L1.89453 11.6727Z" fill="#547782"/>
<path d="M3.81198 10.1543L4.73482 10.6195L3.73828 11.4247L3.81198 10.1543Z" fill="#678076"/>
<path d="M3.73828 11.4246L4.73482 10.6194L3.78092 14.8375L3.73828 11.4246Z" fill="#0C6763"/>
<path d="M2.51309 12.457L3.73915 11.4246L1.89453 11.6726L2.51309 12.457Z" fill="#7D8A8B"/>
<path d="M1.89453 11.6726L2.15985 13.0848L2.51309 12.457L1.89453 11.6726Z" fill="#6A816C"/>
<path d="M2.5127 12.457L3.10651 13.5232L2.6801 13.277L2.5127 12.457Z" fill="#10675D"/>
<path d="M2.15918 13.0848L2.67982 13.277L2.51241 12.457L2.15918 13.0848Z" fill="#2B6370"/>
<path d="M3.10651 13.5232L3.73875 11.4246L2.5127 12.457L3.10651 13.5232Z" fill="#6B8584"/>
<path d="M3.73869 11.4246L3.10645 13.5232L3.77028 13.9612L3.73869 11.4246Z" fill="#48595C"/>
<path d="M2.83984 14.7922L3.77057 13.9611L3.10674 13.5232L2.83984 14.7922Z" fill="#6A8685"/>
<path d="M2.83984 14.7922L3.78163 14.8375L3.77057 13.9612L2.83984 14.7922Z" fill="#1A1C37"/>
<path d="M2.83984 14.7922L5.16088 17.133L3.78163 14.8375L2.83984 14.7922Z" fill="#44766E"/>
<path d="M3.78125 14.8376L3.78388 14.8423L5.1605 17.1331L6.00805 16.9372L3.78125 14.8376Z" fill="#67836A"/>
<path d="M6.05583 19.0908L4.49707 19.0571L4.60657 18.7222L6.05583 19.0908Z" fill="#899293"/>
<path d="M7.54405 19.0571L6.33274 19.7815L6.07531 19.8369L5.80104 19.7778L4.49707 19.0571L6.05583 19.0909L7.54405 19.0571Z" fill="#141A2F"/>
<path d="M5.80147 19.7778L6.07574 19.8347L6.33317 19.7815L6.58743 20.3825L5.94782 20.4883L5.45508 20.3825L5.80147 19.7778Z" fill="#6B8684"/>
<path d="M5.3916 20.7782L5.94804 20.4881L5.4553 20.3823L5.3916 20.7782Z" fill="#889392"/>
<path d="M5.3916 20.7784L5.94804 20.4883L6.65083 20.7784L6.00911 20.9036L5.3916 20.7784Z" fill="#191C37"/>
<path d="M5.38946 20.7782L5.45316 20.3823L3.68066 20.5061L5.38946 20.7782Z" fill="#47585C"/>
<path d="M4.15039 20.0964L5.45331 20.3823L5.80128 19.7781L4.15039 20.0964Z" fill="#577384"/>
<path d="M3.68066 20.5062C3.68382 20.5062 4.15024 20.0964 4.15024 20.0964L5.45316 20.3824L5.37788 20.3865L3.68066 20.5062Z" fill="#547680"/>
<path d="M3.68124 20.5061L3.75757 20.4428L4.15081 20.0964L2.43359 19.2209L3.68124 20.5061Z" fill="#1A2C4B"/>
<path d="M4.49731 19.0571L4.15039 20.0965L4.24199 20.0817L5.80128 19.7778L4.49731 19.0571Z" fill="#879092"/>
<path d="M4.1501 20.0964L4.2717 19.7481L4.60651 18.7221L3.40625 18.1428L4.1501 20.0964Z" fill="#557780"/>
<path d="M2.3291 17.6018L3.40618 18.1432L4.15003 20.0964L2.3291 17.6018Z" fill="#1E2B4E"/>
<path d="M0.851562 18.4144L2.32926 17.6018L4.15018 20.0964L0.851562 18.4144Z" fill="#171E36"/>
<path d="M0.382812 17.2258L0.851863 18.4144L2.32956 17.6019L0.382812 17.2258Z" fill="#1D2C4D"/>
<path d="M3.03347 16.1799L2.3291 17.6018L3.40618 18.1432L3.03347 16.1799Z" fill="#226570"/>
<path d="M3.03418 16.1799L4.19338 18.1432H3.40689L3.03418 16.1799Z" fill="#899293"/>
<path d="M4.60651 18.7221L4.19274 18.1433L3.40625 18.1428L4.60651 18.7221Z" fill="#4A5357"/>
<path d="M4.60713 18.7221L4.86509 18.5198L4.19336 18.1433L4.60713 18.7221Z" fill="#56777D"/>
<path d="M4.86509 18.5198L4.63661 18.0186L4.19336 18.1433L4.86509 18.5198Z" fill="#8A9392"/>
<path d="M4.60645 18.7221L4.8644 18.5198L6.05571 19.0908L4.60645 18.7221Z" fill="#1F2D4D"/>
<path d="M6.0565 19.0908L4.63672 18.0186L4.86519 18.5198L6.0565 19.0908Z" fill="#1D745E"/>
<path d="M4.62988 17.3154L6.05651 19.0907L4.63673 18.0185L4.62988 17.3154Z" fill="#467971"/>
<path d="M5.16105 17.1331L6.05651 19.0908L4.62988 17.3151L5.16105 17.1331Z" fill="#246373"/>
<path d="M6.00771 16.9373L6.05562 19.0909L5.16016 17.1331L6.00771 16.9373Z" fill="#6A8687"/>
<path d="M3.03418 16.1799L4.61926 17.308L4.62979 17.3154L4.63664 18.0185L4.19338 18.1432L3.03418 16.1799Z" fill="#6C8684"/>
<path d="M2.83984 14.7922L3.0341 16.18L4.62971 17.3154L2.83984 14.7922Z" fill="#899291"/>
<path d="M4.62971 17.3154L5.16088 17.133L2.83984 14.7922L4.62971 17.3154Z" fill="#6C8587"/>
<path d="M0.382812 17.2258L2.83967 14.7922L2.32956 17.6019L0.382812 17.2258Z" fill="#407A7A"/>
<path d="M2.83816 14.7864L2.3291 17.602L3.03347 16.1801L2.83816 14.7864Z" fill="#69846B"/>
<path d="M0.382812 17.2259L1.40409 13.4148L2.83967 14.7923L0.382812 17.2259Z" fill="#49595C"/>
<path d="M2.15918 13.085L2.67982 13.2771L2.83933 14.7923L2.15918 13.085Z" fill="#6A8270"/>
<path d="M2.67969 13.2771L3.1061 13.5233L2.8392 14.7923L2.67969 13.2771Z" fill="#3A796D"/>
<path d="M1.8944 11.6726L2.15973 13.0848L2.83987 14.7922L1.4043 13.4146L1.8944 11.6726Z" fill="#286674"/>
<path d="M5.68657 20.8384L6.00822 20.9035L6.31934 20.843L6.46621 21.3202L5.99137 21.225L5.51074 21.305L5.68657 20.8384Z" fill="#141A2F"/>
<path d="M5.99208 21.2251L3.6084 26.4378L6.00682 28.5037L5.99208 21.2251Z" fill="#8A9192"/>
<path d="M5.99144 21.2251L5.46448 22.3948L4.91699 21.5272L5.48291 21.396L5.5166 21.3041L5.99144 21.2251Z" fill="#537780"/>
<path d="M5.68736 20.8384L5.48363 21.396L4.07227 20.5686L4.8298 20.6892L5.10249 20.7326L5.3915 20.7783L5.48205 20.7968L5.68736 20.8384Z" fill="#828E91"/>
<path d="M5.48363 21.396L4.79137 21.5595L4.07227 20.5686L5.48363 21.396Z" fill="#6B8585"/>
<path d="M4.07238 20.5686L2.89844 25.1281L4.64303 23.271L4.07238 20.5686Z" fill="#1C7561"/>
<path d="M4.75557 21.5715L4.48025 21.6353L4.07227 20.5686L4.79137 21.5595L4.75557 21.5715Z" fill="#899293"/>
<path d="M4.07227 20.563L4.48025 21.6352L4.28231 21.6795L4.07227 20.563Z" fill="#1E2B4D"/>
<path d="M5.46512 22.3948L4.95079 23.5381L4.28223 21.6797L5.46512 22.3948Z" fill="#3B7A6E"/>
<path d="M5.46512 22.3947L4.91763 21.5271L4.28223 21.6795L5.46512 22.3947Z" fill="#68816C"/>
<path d="M4.28223 21.6797L4.95079 23.5381L4.78655 23.9035L4.28223 21.6797Z" fill="#6C8587"/>
<path d="M3.49239 22.8267L2.30371 24.8265L2.94859 24.9572L3.49239 22.8267Z" fill="#48585A"/>
<path d="M3.60827 26.4378L2.78125 25.1817L4.57112 24.3816L3.60827 26.4378Z" fill="#68816C"/>
<path d="M4.7864 23.9033L4.57109 24.3814L3.8125 24.1269L4.7864 23.9033Z" fill="#6B8585"/>
<path d="M3.81285 24.127L2.89844 25.128L4.57144 24.3815L3.81285 24.127Z" fill="#0C6763"/>
<path d="M2.94806 24.9573L2.30371 25.0751L2.78118 25.1818C2.78118 25.1818 2.89542 25.1305 2.89805 25.1305C2.90068 25.1305 2.94806 24.9591 2.94806 24.9573Z" fill="#10675D"/>
<path d="M2.94859 24.9572L2.30371 25.0749V24.8264L2.94859 24.9572Z" fill="#68816C"/>
<path d="M2.36915 30.544C2.37915 30.4872 4.87444 29.2584 4.87444 29.2584L3.07615 28.0407L2.22754 27.4951L2.36915 30.544Z" fill="#1E2B4D"/>
<path d="M2.22689 27.4951C2.22426 27.4993 2.21004 27.5164 2.18056 27.5519C1.94051 27.8416 1.13086 29.2612 1.13086 29.2612L2.3685 30.544L2.22689 27.4951Z" fill="#828E91"/>
<path d="M1.13086 29.263L2.22689 27.4951L2.12897 27.5681L1.17087 28.4772L1.13086 29.263Z" fill="#47585C"/>
<path d="M1.1709 28.4772L2.22692 27.4951L1.36305 27.9585L1.1709 28.4772Z" fill="#246373"/>
<path d="M1.13086 29.2629L2.36587 30.5439L1.80996 30.6576L1.13086 29.2629Z" fill="#202B4F"/>
<path d="M1.50896 30.0386L0.280273 30.993L1.81061 30.6576L1.50896 30.0386Z" fill="#4C5859"/>
<path d="M0.280061 30.993L1.50875 30.0386L0.145821 30.6673L0 30.9888L0.280061 30.993Z" fill="#68816C"/>
<path d="M2.30343 25.075L2.28711 27.4027L5.22617 29.0251L2.30343 25.075Z" fill="#68816C"/>
<path d="M3.38184 26.6364L3.60821 26.4377L2.30371 25.075L3.38184 26.6364Z" fill="#4B595D"/>
<path d="M3.60821 26.4377L2.78118 25.1817L2.30371 25.075L3.60821 26.4377Z" fill="#49595C"/>
<path d="M4.5642 28.1867L4.1399 26.8955L3.6082 26.4377L3.38184 26.6364L4.5642 28.1867Z" fill="#8A9192"/>
<path d="M6.00637 28.5036L5.2262 29.0251L4.13965 26.8955L6.00637 28.5036Z" fill="#24646F"/>
<path d="M5.2262 29.0251L4.13965 26.8955L4.56395 28.1867L5.2262 29.0251Z" fill="#6B8585"/>
<path d="M4.87183 29.2585L5.22664 29.0252L3.07617 28.0413L4.87183 29.2585Z" fill="#6B8585"/>
<path d="M5.22664 29.025L3.07617 28.0411L3.15882 27.8835L5.22664 29.025Z" fill="#1C7561"/>
<path d="M2.2865 27.4028L3.07615 28.0413L2.22754 27.4952L2.2865 27.4028Z" fill="#1C7561"/>
<path d="M3.15835 27.8837L3.0757 28.0413L2.28711 27.4028L3.15835 27.8837Z" fill="#6B8585"/>
<path d="M6.00608 30.048L5.50334 30.0762L4.87109 29.2585L6.00608 30.048Z" fill="#1C7561"/>
<path d="M6.00683 28.5037L4.86816 29.2557L6.00683 30.048V28.5037Z" fill="#1E2B4D"/>
<path d="M4.64268 23.271L3.8125 24.127L4.7864 23.9034L4.64268 23.271Z" fill="#171E36"/>
<path d="M3.68065 20.5061L4.07179 20.5685L3.49219 22.8265L3.68065 20.5061Z" fill="#6A8687"/>
<path d="M3.13574 22.651L3.49214 22.8265L3.6806 20.5061L3.13574 22.651Z" fill="#4C5859"/>
<path d="M3.68044 20.5061L3.13558 22.651L2.14062 22.0851L3.68044 20.5061Z" fill="#246373"/>
<path d="M1.32404 22.8267L2.04104 24.189L0.477539 24.7609L1.32404 22.8267Z" fill="#1C7460"/>
<path d="M1.73145 22.2935L1.75092 23.6488L3.13596 22.651L1.73145 22.2935Z" fill="#171E36"/>
<path d="M1.73145 22.2935L3.13596 22.6511L2.14101 22.0852L1.73145 22.2935Z" fill="#4C5859"/>
<path d="M1.75098 23.6489L2.04104 24.189L3.13602 22.6511L1.75098 23.6489Z" fill="#3B797A"/>
<path d="M1.73168 22.2935L1.32422 22.8266L1.75115 23.6488L1.73168 22.2935Z" fill="#8A9192"/>
<path d="M0.477044 24.7609L0.382812 25.4492L2.04054 24.189L0.477044 24.7609Z" fill="#67836A"/>
<path d="M7.18048 9.32365L6.02075 8.19556L6.00391 9.8221L7.18048 9.32365Z" fill="#547782"/>
<path d="M7.18024 9.32357L6.78962 8.11694L6.02051 8.19548L7.18024 9.32357Z" fill="#6B826E"/>
<path d="M6.00391 9.8147L8.26019 14.8375L6.00812 16.9371L6.00391 9.8147Z" fill="#6B8585"/>
<path d="M7.18048 9.32373L7.30682 10.6195L6.00391 9.82218L7.18048 9.32373Z" fill="#407870"/>
<path d="M7.30682 10.6194L6.00391 9.82202L8.26019 14.8375L7.30682 10.6194Z" fill="#286674"/>
<path d="M8.16011 9.25941L8.05904 9.17487L7.90111 9.04183L6.79297 8.11792C6.92317 8.52013 7.05338 8.92234 7.18358 9.32455L8.16011 9.25941Z" fill="#1F7262"/>
<path d="M8.16824 3.76904L8.18087 9.27787L6.79004 8.11697L8.16824 3.76904Z" fill="#1C7460"/>
<path d="M9.85226 1.80542L8.16768 3.76919L8.1582 9.25954L8.28244 8.8581L8.29508 8.81791L8.30824 8.75831L8.33087 8.65622L8.44564 8.13837L8.58988 7.49117L8.79782 6.55432L8.93837 5.9196L9.2516 4.50971L9.85226 1.80542Z" fill="#4B595D"/>
<path d="M10.6411 1.25977L9.85249 1.80534L8.29004 8.84046L10.6411 1.25977Z" fill="#407870"/>
<path d="M10.5724 1.47827L8.1582 9.25945L9.20422 7.72253L10.5724 1.47827Z" fill="#6B8688"/>
<path d="M7.18066 9.32373L8.22932 10.1543L7.42177 10.5664L7.30701 10.6195L7.18856 9.40827L7.18066 9.32373Z" fill="#517680"/>
<path d="M7.18066 9.32373L10.1482 11.6728L8.15877 9.25952L7.18066 9.32373Z" fill="#417870"/>
<path d="M9.20422 7.72241L10.1476 11.6726L8.1582 9.25934L9.20422 7.72241Z" fill="#1C7460"/>
<path d="M9.20508 7.72241L10.3337 9.01265L10.1484 11.6726L9.20508 7.72241Z" fill="#3E776E"/>
<path d="M10.6417 1.25977L10.6633 1.32444L10.6791 1.38449L10.7307 1.57667L10.7928 1.80672L10.8944 2.18229L11.085 2.88816L11.2929 3.65778L11.5145 4.48006L11.6082 4.82606L11.762 5.39658L12.0004 6.28538L9.20508 7.72253L10.0974 3.64992L10.3664 2.42158L10.4296 2.13379L10.518 1.73096L10.5743 1.47688L10.6417 1.25977Z" fill="#286674"/>
<path d="M11.3913 0L10.6411 1.25975L9.85254 1.80532L11.3913 0Z" fill="#1A1C37"/>
<path d="M11.9877 0.045298L11.3939 0.000488281L10.6416 1.25978L10.6632 1.32584L10.7048 1.28565L10.8811 1.11473L11.0891 0.913775L11.9877 0.045298Z" fill="#0C6763"/>
<path d="M11.9876 0.045166L12.0002 6.28157L10.6631 1.32571L11.9876 0.045166Z" fill="#828E91"/>
<path d="M10.3337 9.01271L9.20508 7.72247L9.42618 7.60883L9.95261 7.34089C10.1985 7.21201 10.4385 7.09328 10.6843 6.9644C10.8639 6.87201 11.0555 6.77269 11.235 6.67845C11.4303 6.57635 11.6198 6.47888 11.8141 6.37633C11.8641 6.35046 11.9499 6.31119 11.9994 6.28394C11.4429 7.1769 10.8912 8.12067 10.3337 9.01271Z" fill="#171B33"/>
<path d="M10.1483 11.6727L8.30372 11.4247L8.22949 10.1543L10.1483 11.6727Z" fill="#547782"/>
<path d="M8.22895 10.1543L7.30664 10.6195L8.30317 11.4247L8.22895 10.1543Z" fill="#678076"/>
<path d="M8.30317 11.4246L7.30664 10.6194L8.26001 14.8375L8.30317 11.4246Z" fill="#0C6763"/>
<path d="M9.52924 12.4566L8.30371 11.4246L10.1483 11.6726L9.52924 12.4566Z" fill="#7D8A8B"/>
<path d="M10.1484 11.6726L9.88253 13.0848L9.5293 12.4565L10.1484 11.6726Z" fill="#6A816C"/>
<path d="M9.52883 12.4565L8.93555 13.5232L9.36196 13.2765L9.52883 12.4565Z" fill="#10675D"/>
<path d="M9.88242 13.0848L9.3623 13.2765L9.52918 12.4565L9.88242 13.0848Z" fill="#2B6370"/>
<path d="M8.93596 13.5232L8.30371 11.4246L9.52924 12.4566L8.93596 13.5232Z" fill="#6B8584"/>
<path d="M8.3036 11.4246L8.93584 13.5232L8.27148 13.9612L8.3036 11.4246Z" fill="#48595C"/>
<path d="M9.20222 14.7922L8.27148 13.9611L8.93584 13.5232L9.20222 14.7922Z" fill="#6A8685"/>
<path d="M9.20253 14.7922L8.26074 14.8375L8.2718 13.9612L9.20253 14.7922Z" fill="#1A1C37"/>
<path d="M9.20189 14.7922L6.88086 17.1325L8.26011 14.8375L9.20189 14.7922Z" fill="#44766E"/>
<path d="M8.25989 14.8376L8.25725 14.8423L6.88064 17.1326L6.00781 16.9372L8.25989 14.8376Z" fill="#67836A"/>
<path d="M6.05566 19.0908L7.54388 19.0571L7.43491 18.7222L6.05566 19.0908Z" fill="#899293"/>
<path d="M6.65013 20.7782L5.94629 20.4881L6.58696 20.3823L6.65013 20.7782Z" fill="#889392"/>
<path d="M6.65159 20.7782L6.58789 20.3823L8.36091 20.5057L6.65159 20.7782Z" fill="#47585C"/>
<path d="M7.89177 20.0965L6.58833 20.3825L6.33301 19.7815L7.89177 20.0965Z" fill="#577384"/>
<path d="M8.36091 20.5057C8.35723 20.5057 7.89133 20.0964 7.89133 20.0964L6.58789 20.3824L6.66317 20.3865L8.36091 20.5057Z" fill="#547680"/>
<path d="M8.36118 20.5056L8.28485 20.4428L7.8916 20.0964L9.60829 19.2209L8.36118 20.5056Z" fill="#1A2C4B"/>
<path d="M7.54433 19.0571L7.89177 20.0961L7.79965 20.0817L6.33301 19.7815L7.54433 19.0571Z" fill="#286674"/>
<path d="M7.89196 20.096L7.76983 19.7481L7.43555 18.7221L8.63528 18.1428L7.89196 20.096Z" fill="#557780"/>
<path d="M9.712 17.6018L8.63492 18.1432L7.8916 20.0959L9.712 17.6018Z" fill="#1E2B4E"/>
<path d="M11.1897 18.4144L9.712 17.6018L7.8916 20.0959L11.1897 18.4144Z" fill="#171E36"/>
<path d="M11.6592 17.2258L11.1896 18.4144L9.71191 17.6019L11.6592 17.2258Z" fill="#1D2C4D"/>
<path d="M9.00801 16.1799L9.71184 17.6018L8.63477 18.1432L9.00801 16.1799Z" fill="#226570"/>
<path d="M9.00836 16.1799L7.84863 18.1432H8.63512L9.00836 16.1799Z" fill="#899293"/>
<path d="M7.43555 18.7221L7.84879 18.1433L8.63528 18.1428L7.43555 18.7221Z" fill="#4A5357"/>
<path d="M7.43524 18.7221L7.17676 18.5198L7.84848 18.1433L7.43524 18.7221Z" fill="#56777D"/>
<path d="M7.17676 18.5198L7.40523 18.0186L7.84848 18.1433L7.17676 18.5198Z" fill="#8A9392"/>
<path d="M7.43491 18.7221L7.17644 18.5198L6.05566 19.0908L7.43491 18.7221Z" fill="#1F2D4D"/>
<path d="M6.05566 19.0908L7.40491 18.0186L7.17644 18.5198L6.05566 19.0908Z" fill="#1C7460"/>
<path d="M7.41228 17.3154L6.05566 19.0907L7.40491 18.0185L7.41228 17.3154Z" fill="#7D8A8B"/>
<path d="M6.88058 17.1326L6.05566 19.0908L7.41228 17.3146L6.88058 17.1326Z" fill="#246373"/>
<path d="M6.00781 16.9373L6.05572 19.0909L6.88064 17.1327L6.00781 16.9373Z" fill="#1D2C4D"/>
<path d="M9.00826 16.1799L7.42265 17.308L7.41264 17.3154L7.40527 18.0185L7.84853 18.1432L9.00826 16.1799Z" fill="#6C8684"/>
<path d="M9.20243 14.7922L9.0087 16.18L7.41309 17.3154L9.20243 14.7922Z" fill="#899291"/>
<path d="M7.41255 17.3154L6.88086 17.1325L9.20189 14.7922L7.41255 17.3154Z" fill="#6C8587"/>
<path d="M11.6595 17.2258L9.20215 14.7922L9.71226 17.6019L11.6595 17.2258Z" fill="#407A7A"/>
<path d="M9.20259 14.7864L9.71165 17.602L9.00781 16.1801L9.20259 14.7864Z" fill="#69846B"/>
<path d="M11.6595 17.2259L10.6377 13.4148L9.20215 14.7923L11.6595 17.2259Z" fill="#828E91"/>
<path d="M9.8823 13.085L9.36218 13.2767L9.20215 14.7923L9.8823 13.085Z" fill="#6A8270"/>
<path d="M9.36196 13.2766L8.93555 13.5233L9.20192 14.7923L9.36196 13.2766Z" fill="#3A796D"/>
<path d="M10.1481 11.6726L9.8823 13.0848L9.20215 14.7922L10.6377 13.4146L10.1481 11.6726Z" fill="#286674"/>
<path d="M5.99191 21.2251L8.36717 26.4443L5.96875 28.5101L5.99191 21.2251Z" fill="#6B8585"/>
<path d="M5.99219 21.2251L6.5102 22.4017L7.05821 21.5341L6.4923 21.4025L6.46703 21.3203L5.99219 21.2251Z" fill="#537780"/>
<path d="M7.90329 20.575L7.14576 20.6955L6.87359 20.7389L6.58458 20.7851L6.49403 20.8032L6.32031 20.8429L6.49246 21.4023L7.90329 20.575Z" fill="#828E91"/>
<path d="M7.90302 20.575L6.49219 21.4023L7.18444 21.5663L7.90302 20.575Z" fill="#6B8585"/>
<path d="M7.90268 20.575L9.07662 25.1345L7.33203 23.2779L7.90268 20.575Z" fill="#1C7561"/>
<path d="M7.90315 20.575L7.18457 21.5663L7.21984 21.5779L7.49569 21.6421L7.90315 20.575Z" fill="#899293"/>
<path d="M7.90258 20.5696L7.49512 21.6422L7.69306 21.6861L7.90258 20.5696Z" fill="#1E2B4D"/>
<path d="M6.50977 22.4016L7.02462 23.5449L7.69318 21.686L6.50977 22.4016Z" fill="#3B7A6E"/>
<path d="M6.50977 22.4017L7.05778 21.5342L7.69318 21.6862L6.50977 22.4017Z" fill="#68816C"/>
<path d="M7.69298 21.686L7.02441 23.5449L7.18866 23.9099L7.69298 21.686Z" fill="#286674"/>
<path d="M8.48242 22.833L9.67163 24.8333L9.02623 24.964L8.48242 22.833Z" fill="#69846B"/>
<path d="M8.36714 26.4441L9.19416 25.1881L7.4043 24.3884L8.36714 26.4441Z" fill="#68816C"/>
<path d="M7.18848 23.9099L7.40379 24.3885L8.16237 24.1335L7.18848 23.9099Z" fill="#6B8585"/>
<path d="M8.16288 24.1335L9.07677 25.1346L7.4043 24.3885L8.16288 24.1335Z" fill="#0C6763"/>
<path d="M9.02637 24.9641L9.67177 25.0842L9.1943 25.1905C9.1943 25.1905 9.07796 25.1383 9.0769 25.1369C9.07585 25.1355 9.02795 24.966 9.02637 24.9641Z" fill="#10675D"/>
<path d="M9.02637 24.964L9.67177 25.0818V24.8333L9.02637 24.964Z" fill="#68816C"/>
<path d="M9.60828 30.5511C9.59827 30.4943 7.10352 29.2655 7.10352 29.2655L8.89654 28.0482L9.74567 27.5017L9.60828 30.5511Z" fill="#1E2B4D"/>
<path d="M9.7479 27.5017C9.7479 27.5063 9.76475 27.523 9.79423 27.5585C10.0343 27.8482 10.8439 29.2701 10.8439 29.2701L9.6084 30.5511L9.7479 27.5017Z" fill="#1C7561"/>
<path d="M10.8441 29.2701L9.74805 27.5017L9.84596 27.5747L10.8041 28.4838L10.8441 29.2701Z" fill="#47585C"/>
<path d="M10.8041 28.4838L9.74805 27.5017L10.6119 27.9655L10.8041 28.4838Z" fill="#246373"/>
<path d="M10.8444 29.27L9.60938 30.551L10.1653 30.6642L10.8444 29.27Z" fill="#202B4F"/>
<path d="M10.4662 30.0457L11.6954 31.0001L10.165 30.6642L10.4662 30.0457Z" fill="#6B8585"/>
<path d="M11.695 31.0001L10.4658 30.0457L11.8293 30.6739L11.9751 30.9954L11.695 31.0001Z" fill="#68816C"/>
<path d="M9.67177 25.0818L9.68756 27.4091L6.74902 29.0315L9.67177 25.0818Z" fill="#68816C"/>
<path d="M8.59355 26.6427L8.36719 26.4441L9.67168 25.0818L8.59355 26.6427Z" fill="#4B595D"/>
<path d="M8.36719 26.4441L9.19421 25.188L9.67168 25.0818L8.36719 26.4441Z" fill="#1E2B4E"/>
<path d="M7.41113 28.1935L7.83544 26.9019L8.36713 26.4441L8.5935 26.6427L7.41113 28.1935Z" fill="#8A9192"/>
<path d="M5.96875 28.5102L6.74892 29.0317L7.83548 26.9021L5.96875 28.5102Z" fill="#8A9192"/>
<path d="M6.74902 29.0317L7.83558 26.9021L7.41127 28.1937L6.74902 29.0317Z" fill="#1C7561"/>
<path d="M7.10384 29.2654L6.74902 29.0316L8.89897 28.0481L7.10384 29.2654Z" fill="#6B8585"/>
<path d="M6.74902 29.0317L8.89897 28.0482L8.81632 27.8906L6.74902 29.0317Z" fill="#48585A"/>
<path d="M9.68861 27.4092L8.89844 28.0481L9.74757 27.5016L9.68861 27.4092Z" fill="#1C7561"/>
<path d="M8.81641 27.8905L8.89906 28.0481L9.68765 27.4092L8.81641 27.8905Z" fill="#6B8585"/>
<path d="M6.00684 30.0479L6.47167 30.0826L7.10392 29.2654L6.00684 30.0479Z" fill="#1C7561"/>
<path d="M5.96875 28.51L7.10742 29.2625L6.00665 30.0479L5.96875 28.51Z" fill="#68816C"/>
<path d="M7.33167 23.2778L8.16237 24.1334L7.18848 23.9098L7.33167 23.2778Z" fill="#171E36"/>
<path d="M7.90234 20.5751L8.48194 22.8331L8.29401 20.5127" fill="#6A8687"/>
<path d="M8.29395 20.5127L8.8388 22.658L8.48188 22.8331L8.29395 20.5127Z" fill="#4C5859"/>
<path d="M8.29395 20.5127L8.8388 22.658L9.83376 22.0917L8.29395 20.5127Z" fill="#899293"/>
<path d="M10.6506 22.833L9.93359 24.1953L11.4976 24.7672L10.6506 22.833Z" fill="#171E36"/>
<path d="M10.2434 22.3L10.2234 23.6559L8.83887 22.6581L10.2434 22.3Z" fill="#171E36"/>
<path d="M10.2434 22.2999L8.83887 22.6579L9.83382 22.0916L10.2434 22.2999Z" fill="#4C5859"/>
<path d="M10.2234 23.6558L9.93332 24.1953L8.83887 22.658L10.2234 23.6558Z" fill="#3B797A"/>
<path d="M10.2436 22.3L10.6506 22.8331L10.2236 23.6559L10.2436 22.3Z" fill="#8A9192"/>
<path d="M11.4976 24.7672L11.5913 25.4555L9.93359 24.1953L11.4976 24.7672Z" fill="#44766E"/>
</g>
<defs>
<clipPath id="clip0_790_2">
<rect width="12" height="31" fill="white"/>
</clipPath>
</defs>
</svg>
