<svg width="464" height="538" viewBox="0 0 464 538" fill="none" xmlns="http://www.w3.org/2000/svg">
<path d="M-73.5648 361.638C-74.3566 362.17 -75.1128 362.311 -75.8335 362.059C-76.3741 361.871 -76.9138 361.622 -77.4527 361.313C-77.8709 361.006 -78.2892 360.698 -78.7074 360.391C-79.2447 359.961 -79.8117 359.501 -80.4085 359.01C-80.9458 358.58 -81.483 358.151 -82.0203 357.721C-82.6766 357.169 -83.3337 356.677 -83.9916 356.246C-84.6496 355.815 -85.3984 355.412 -86.2382 355.039C-86.4779 354.915 -86.6878 354.821 -86.868 354.759C-87.1077 354.635 -87.378 354.54 -87.6788 354.476L-91.0114 353.254C-91.9123 352.94 -92.6603 352.477 -93.2555 351.866C-94.0903 351.13 -94.8648 350.396 -95.579 349.662C-96.2931 348.928 -96.9767 348.164 -97.6298 347.371C-97.8678 347.126 -98.1042 346.761 -98.339 346.275C-98.8118 345.544 -99.2549 344.844 -99.6682 344.175C-100.08 343.385 -100.523 342.685 -100.997 342.075C-101.589 341.222 -102.151 340.4 -102.684 339.608C-103.276 338.755 -103.868 337.963 -104.462 337.23C-104.994 336.439 -105.557 335.677 -106.151 334.945C-106.744 334.212 -107.338 333.48 -107.931 332.748C-108.346 332.199 -108.731 331.681 -109.087 331.193C-109.502 330.645 -109.887 330.127 -110.242 329.639C-110.36 329.396 -110.597 329.091 -110.954 328.724C-111.252 328.418 -111.519 328.083 -111.755 327.717C-112.051 327.291 -112.317 326.895 -112.554 326.53C-112.907 325.922 -113.322 325.373 -113.798 324.884C-114.273 324.274 -114.718 323.694 -115.133 323.146C-115.25 322.903 -115.457 322.628 -115.755 322.323C-116.226 321.471 -116.788 320.649 -117.441 319.856C-118.033 319.003 -118.656 318.18 -119.309 317.386L-120.551 315.559C-121.083 314.767 -121.646 314.005 -122.24 313.273C-122.893 312.48 -123.516 311.717 -124.11 310.985C-124.642 310.193 -125.235 309.461 -125.89 308.788C-126.604 308.054 -127.289 307.351 -127.943 306.678C-128.3 306.311 -128.628 305.975 -128.925 305.669C-129.221 305.243 -129.517 304.816 -129.813 304.39C-131.238 302.681 -132.848 301.271 -134.644 300.16C-134.764 300.159 -134.854 300.127 -134.914 300.066C-135.932 299.509 -136.677 298.805 -137.148 297.954C-137.619 297.103 -137.938 296.163 -138.105 295.135C-138.562 293.198 -138.236 291.452 -137.129 289.898C-136.944 289.599 -136.76 289.36 -136.576 289.182C-136.452 288.942 -136.238 288.734 -135.934 288.557C-135.571 288.441 -135.297 288.294 -135.114 288.115C-134.504 287.641 -133.746 287.379 -132.84 287.331L-130.943 287.629C-129.801 287.946 -128.868 288.11 -128.144 288.119C-125.975 288.39 -123.839 288.872 -121.737 289.564C-120.535 289.943 -119.394 290.381 -118.315 290.878C-117.234 291.255 -116.153 291.632 -115.071 292.008C-114.471 292.258 -113.932 292.507 -113.452 292.754C-112.912 292.943 -112.371 293.131 -111.831 293.32C-111.53 293.384 -111.138 293.42 -110.655 293.426C-110.054 293.555 -109.663 293.711 -109.485 293.895C-109.125 294.02 -108.947 294.264 -108.952 294.626C-108.953 294.747 -108.864 294.838 -108.684 294.901C-108.504 294.964 -108.324 295.027 -108.143 295.09C-108.023 295.091 -107.543 295.339 -106.705 295.833C-105.927 296.266 -105.657 296.421 -105.897 296.297C-105.477 296.484 -105.145 296.458 -104.9 296.22C-104.657 296.102 -104.416 296.106 -104.176 296.23C-103.996 296.293 -103.939 296.535 -104.005 296.956C-104.129 297.196 -103.891 297.44 -103.291 297.69C-102.75 297.878 -102.39 298.004 -102.21 298.067C-101.37 298.44 -100.561 298.844 -99.7821 299.277C-99.0631 299.648 -98.2836 300.021 -97.4439 300.395C-96.3644 300.892 -95.2858 301.45 -94.208 302.068C-93.1301 302.686 -92.0523 303.304 -90.9745 303.922C-90.1959 304.355 -89.4173 304.788 -88.6387 305.221C-87.8585 305.533 -87.1088 305.876 -86.3897 306.247C-86.2707 306.37 -86.15 306.371 -86.0277 306.252L-86.0228 305.89C-86.1418 305.768 -86.2592 305.525 -86.3749 305.161C-86.9073 304.37 -87.4091 303.548 -87.8802 302.697C-88.411 301.785 -88.9119 300.903 -89.3831 300.051C-89.97 298.837 -90.6181 297.681 -91.3274 296.585C-91.9755 295.43 -92.6236 294.275 -93.2717 293.119C-93.685 292.45 -94.0677 291.751 -94.4199 291.022C-94.8316 290.232 -95.2747 289.532 -95.7491 288.922C-96.5163 287.644 -97.2536 286.397 -97.9612 285.18C-98.6688 283.964 -99.407 282.777 -100.176 281.62C-100.234 281.438 -100.322 281.286 -100.441 281.164C-100.499 280.982 -100.587 280.83 -100.706 280.708C-101.24 280.037 -101.622 279.277 -101.852 278.429C-102.491 276.55 -102.285 274.742 -101.235 273.007C-100.741 272.168 -100.069 271.514 -99.2174 271.043C-98.5479 270.629 -97.9421 270.456 -97.4 270.524C-96.5553 270.536 -95.7412 270.577 -94.9576 270.648C-94.113 270.659 -93.2997 270.761 -92.5178 270.953C-91.9161 271.081 -91.3144 271.21 -90.7127 271.339C-90.1705 271.407 -89.5986 271.505 -88.9969 271.634C-88.5753 271.7 -88.1241 271.797 -87.643 271.924C-87.2215 271.99 -86.8008 272.117 -86.3809 272.303C-85.0585 272.683 -83.7369 273.124 -82.4161 273.624C-81.0953 274.125 -79.8059 274.716 -78.5479 275.397C-78.4289 275.519 -78.309 275.581 -78.1884 275.583C-77.2875 275.897 -76.4179 276.301 -75.5798 276.795C-74.8012 277.228 -73.9929 277.692 -73.1547 278.186C-72.2555 278.62 -71.4173 279.114 -70.6404 279.668C-69.8023 280.162 -68.9641 280.656 -68.126 281.151C-67.888 281.395 -67.6788 281.549 -67.4987 281.612C-66.8391 281.922 -66.1803 282.293 -65.5224 282.725C-64.8645 283.156 -64.2363 283.557 -63.6379 283.927C-62.8014 284.542 -61.9649 285.157 -61.1284 285.772C-60.2919 286.386 -59.4852 286.971 -58.7083 287.524C-57.6932 288.323 -56.6782 289.121 -55.6632 289.919C-54.6482 290.717 -53.6026 291.486 -52.5264 292.225C-51.809 292.717 -51.0923 293.27 -50.3765 293.883C-49.5995 294.437 -48.8532 295.02 -48.1373 295.634C-47.9588 295.817 -47.6298 296.033 -47.1504 296.281L-44.7327 298.214C-44.4352 298.52 -44.1963 298.704 -44.0161 298.767C-42.5796 299.632 -41.2356 300.646 -39.9841 301.809C-39.8635 301.811 -39.7436 301.873 -39.6246 301.995C-39.5651 302.056 -39.4452 302.118 -39.2651 302.181L-35.0521 305.225C-34.5132 305.534 -34.0668 305.993 -33.713 306.601L-33.1823 307.514C-32.7062 308.003 -32.3516 308.551 -32.1184 309.157C-31.8853 309.764 -31.6827 310.4 -31.5108 311.067C-31.4562 311.49 -31.4321 311.943 -31.4387 312.425C-31.3857 312.969 -31.4229 313.482 -31.5501 313.963C-31.7467 315.107 -32.3896 315.792 -33.4789 316.018C-35.7782 316.47 -37.9188 316.35 -39.9008 315.66C-40.2 315.474 -40.5001 315.35 -40.8009 315.285C-41.1001 315.1 -41.3688 314.885 -41.6068 314.641L-43.5782 313.166C-43.9369 312.919 -44.2956 312.673 -44.6544 312.427C-45.0114 312.06 -45.3693 311.753 -45.7281 311.507L-51.8231 307.079C-52.3009 306.711 -52.7489 306.373 -53.1671 306.065C-53.5853 305.758 -54.0333 305.42 -54.5111 305.051L-56.842 303.39C-57.619 302.837 -58.3959 302.283 -59.1729 301.729C-60.0094 301.115 -60.8161 300.53 -61.593 299.977L-68.2237 294.999C-69.1181 294.202 -70.0744 293.525 -71.0927 292.968C-72.1094 292.291 -73.0963 291.643 -74.0534 291.027C-75.2503 290.287 -76.4182 289.637 -77.5571 289.079C-78.7556 288.459 -79.9549 287.899 -81.155 287.4L-82.2337 286.843C-82.4734 286.719 -82.7437 286.624 -83.0445 286.56C-83.3454 286.496 -83.6164 286.462 -83.8578 286.458C-84.0412 286.637 -84.1032 286.757 -84.0437 286.818L-83.4262 288.003C-82.8971 289.036 -82.278 290.101 -81.5687 291.196C-80.919 292.231 -80.2998 293.296 -79.7112 294.39C-79.3574 294.998 -79.0036 295.606 -78.6498 296.215C-78.296 296.823 -77.9422 297.431 -77.5884 298.039C-77.2941 298.586 -76.9701 299.164 -76.6163 299.772C-76.2608 300.26 -75.9062 300.808 -75.5524 301.416C-74.9605 302.269 -74.3992 303.152 -73.8685 304.064C-73.3378 304.977 -72.7765 305.859 -72.1847 306.712C-71.7102 307.322 -71.2663 307.962 -70.853 308.631C-70.3785 309.241 -69.904 309.851 -69.4296 310.461L-68.8939 311.011C-68.2955 311.381 -68.0012 311.928 -68.0111 312.652C-67.8937 312.895 -67.8069 313.168 -67.7506 313.471C-67.6928 313.652 -67.6051 313.865 -67.4877 314.108C-67.0744 314.777 -66.8405 315.324 -66.7859 315.747L-66.4362 316.657C-66.4378 316.777 -66.3799 316.959 -66.2626 317.202C-66.1435 317.324 -66.0856 317.506 -66.0889 317.748C-65.8028 318.898 -65.8771 319.923 -66.3118 320.822C-66.4373 321.183 -66.5629 321.543 -66.6885 321.903C-66.753 322.204 -66.848 322.535 -66.9736 322.895C-67.2875 323.796 -67.9594 324.39 -68.9892 324.678C-70.5016 324.959 -71.8596 324.971 -73.063 324.713L-77.0352 323.935C-77.0947 323.874 -77.155 323.873 -77.2162 323.933C-77.2757 323.871 -77.3055 323.841 -77.3055 323.841C-78.2047 323.406 -79.0751 323.062 -79.9165 322.81C-80.7579 322.557 -81.5679 322.214 -82.3465 321.781L-86.5717 319.642C-87.6512 319.144 -88.7001 318.617 -89.7184 318.06C-90.7367 317.503 -91.7856 316.976 -92.865 316.478L-93.8544 316.012C-94.5123 315.581 -95.2008 315.179 -95.9199 314.808C-96.5779 314.376 -97.2366 314.005 -97.8962 313.695C-98.5541 313.263 -99.2129 312.892 -99.8725 312.581C-100.592 312.21 -101.25 311.839 -101.849 311.468C-102.748 311.034 -103.647 310.599 -104.547 310.164C-105.444 309.609 -106.373 309.144 -107.334 308.769C-107.873 308.46 -108.383 308.302 -108.866 308.295C-109.831 308.282 -110.733 308.029 -111.571 307.534C-111.69 307.412 -111.811 307.411 -111.933 307.53L-111.938 307.892L-111.849 307.983C-111.85 308.104 -111.792 308.225 -111.673 308.348C-111.139 309.019 -110.575 309.72 -109.982 310.453C-109.388 311.185 -108.825 311.947 -108.293 312.739L-105.622 316.034C-105.207 316.582 -104.792 317.131 -104.377 317.68C-103.901 318.169 -103.455 318.688 -103.041 319.237C-102.864 319.541 -102.687 319.845 -102.51 320.149C-102.272 320.394 -102.004 320.669 -101.706 320.975C-100.28 322.563 -98.886 324.362 -97.5254 326.372C-97.1699 326.86 -96.755 327.408 -96.2805 328.018C-95.8655 328.567 -95.4506 329.116 -95.0356 329.665L-93.3469 331.95C-92.4591 333.23 -91.5093 334.389 -90.4976 335.429C-90.081 335.857 -89.6644 336.285 -89.2478 336.713C-88.77 337.082 -88.384 337.54 -88.0897 338.087C-87.6152 338.697 -86.9292 339.279 -86.0315 339.834C-85.3703 340.024 -84.862 340.363 -84.5065 340.851C-84.0899 341.279 -83.7047 341.797 -83.3509 342.405C-83.055 342.832 -82.8202 343.318 -82.6466 343.863C-82.4118 344.349 -82.2985 344.894 -82.3067 345.497C-82.2505 345.8 -82.1951 346.163 -82.1405 346.586C-82.0248 346.949 -81.9693 347.312 -81.9743 347.674C-81.8684 348.762 -81.4583 349.673 -80.7441 350.406L-78.7802 352.425C-78.3041 352.914 -77.8883 353.402 -77.5328 353.89C-77.0567 354.379 -76.55 354.838 -76.0128 355.268C-75.9533 355.329 -75.9243 355.42 -75.926 355.541C-75.8664 355.602 -75.7772 355.694 -75.6581 355.816C-75.5408 356.059 -75.3928 356.272 -75.2142 356.456C-75.0357 356.639 -74.8572 356.823 -74.6786 357.006C-74.0818 357.497 -73.5776 358.138 -73.1659 358.928C-72.9361 359.776 -72.9765 360.529 -73.2872 361.189C-73.35 361.369 -73.4425 361.519 -73.5648 361.638ZM36.8584 264.357C36.3594 265.557 35.3883 265.966 33.9452 265.584C33.2228 265.454 32.4434 265.081 31.6069 264.466C31.0101 263.975 30.3828 263.514 29.7248 263.083C29.0669 262.651 28.3792 262.19 27.6618 261.697C27.3625 261.512 27.0328 261.357 26.6724 261.231C26.3732 261.046 26.0434 260.891 25.683 260.765C25.1425 260.577 24.6019 260.388 24.0614 260.2C23.5208 260.011 22.9795 259.883 22.4373 259.816C21.7165 259.564 21.2363 259.377 20.9966 259.253L19.556 258.69C18.3559 258.191 17.3095 257.483 16.4167 256.566C15.939 256.197 15.4918 255.799 15.0752 255.371C14.7198 254.883 14.3643 254.396 14.0089 253.908C13.1211 252.629 12.1085 251.649 10.9712 250.97L6.1284 247.646C5.71017 247.338 5.29193 247.031 4.87369 246.723C4.39593 246.355 3.91818 245.986 3.44043 245.618L1.91544 244.601C1.31865 244.11 0.721871 243.619 0.125089 243.129C-0.471693 242.638 -1.03872 242.177 -1.57599 241.748C-1.81568 241.624 -2.0248 241.47 -2.20334 241.287C-2.38189 241.103 -2.56043 240.92 -2.73897 240.736C-3.39363 240.064 -4.17305 239.691 -5.07724 239.618C-5.61943 239.551 -6.16162 239.483 -6.70381 239.415C-7.24436 239.227 -7.72457 239.039 -8.14445 238.852C-8.74615 238.724 -9.3181 238.625 -9.86029 238.558C-10.4008 238.369 -10.9414 238.181 -11.4819 237.992C-12.0225 237.804 -12.5365 237.888 -13.0241 238.243C-13.4506 238.539 -13.9357 238.713 -14.4795 238.766C-15.2647 238.816 -16.0491 238.805 -16.8326 238.734C-17.1929 238.609 -17.4938 238.544 -17.7351 238.541C-18.1566 238.475 -18.4559 238.29 -18.6328 237.986C-18.689 237.683 -18.8675 237.5 -19.1684 237.435C-19.6494 237.308 -19.9784 237.092 -20.1553 236.788C-20.3322 236.484 -20.5091 236.18 -20.686 235.876C-20.9241 235.631 -21.0712 235.358 -21.1274 235.055C-21.1837 234.753 -21.2399 234.45 -21.2961 234.148C-21.4086 233.543 -21.431 232.969 -21.3633 232.427C-21.2939 231.764 -21.1948 231.132 -21.0659 230.53C-20.9403 230.17 -20.8759 229.869 -20.8726 229.628C-20.6859 229.208 -20.7727 228.935 -21.1331 228.809L-21.4009 228.534C-22.1778 227.981 -22.925 227.457 -23.6425 226.965C-24.36 226.472 -25.108 226.01 -25.8866 225.577C-26.2453 225.33 -26.6346 225.114 -27.0545 224.927C-27.4132 224.681 -27.8025 224.464 -28.2224 224.278C-28.3431 224.276 -28.4927 224.183 -28.6712 224C-28.9688 223.694 -29.2969 223.418 -29.6557 223.172C-30.0144 222.926 -30.3433 222.71 -30.6426 222.525C-32.2544 221.236 -33.9579 220.036 -35.7532 218.925C-36.2309 218.557 -36.8004 218.277 -37.4616 218.087C-38.2419 217.775 -38.8709 217.435 -39.3486 217.066C-40.1867 216.572 -40.9951 216.108 -41.7737 215.675C-42.6118 215.181 -43.3896 214.688 -44.1071 214.195C-44.8857 213.762 -45.6337 213.3 -46.3511 212.807C-47.0074 212.255 -47.6637 211.703 -48.32 211.151C-49.8095 209.743 -50.4502 208.044 -50.2422 206.056L-50.2348 205.513C-50.1622 204.609 -49.9407 203.857 -49.5705 203.259C-49.1987 202.54 -48.707 201.883 -48.0954 201.288C-47.4855 200.813 -47.0261 200.306 -46.717 199.767C-46.4063 199.108 -46.156 198.447 -45.9659 197.786C-45.9031 197.606 -45.7494 197.397 -45.5048 197.159L-45.2296 196.891C-45.0462 196.713 -44.8635 196.594 -44.6817 196.536C-44.3792 196.48 -44.2247 196.211 -44.2181 195.728C-44.2165 195.607 -44.095 195.549 -43.8537 195.552C-43.5528 195.616 -43.3107 195.559 -43.1272 195.381C-42.9454 195.323 -42.7933 195.235 -42.671 195.116C-42.4875 194.937 -42.2446 194.82 -41.9421 194.763C-41.7602 194.705 -41.5487 194.678 -41.3073 194.681C-41.0048 194.625 -40.704 194.69 -40.4048 194.875L-39.8618 194.882C-39.6188 194.765 -39.3171 194.769 -38.9567 194.894C-38.6575 195.08 -38.3245 194.994 -37.9575 194.636C-37.7741 194.458 -37.5584 194.129 -37.3105 193.65C-36.7568 192.873 -36.2337 192.125 -35.7412 191.408C-35.1876 190.631 -34.6347 189.914 -34.0827 189.258C-33.9587 189.018 -33.7745 188.779 -33.5298 188.541C-32.3663 187.29 -31.2622 185.977 -30.2177 184.604C-29.1731 183.23 -28.1889 181.855 -27.265 180.48L-26.9849 179.85C-25.9404 178.476 -25.1355 176.979 -24.5704 175.357C-24.3804 174.696 -24.13 174.035 -23.8193 173.376C-23.5086 172.716 -23.2285 172.086 -22.979 171.486L-20.9314 167.35C-20.6223 166.811 -20.4662 166.421 -20.4629 166.18C-20.3935 165.517 -20.2655 164.976 -20.0787 164.556C-19.7598 163.293 -19.1707 162.124 -18.3112 161.05C-17.7608 160.514 -17.1212 160.07 -16.3922 159.718C-15.179 159.252 -13.8186 159.059 -12.3111 159.14C-11.83 159.267 -11.4416 159.544 -11.1456 159.97C-10.972 160.516 -10.5852 160.913 -9.98511 161.163C-9.56687 161.47 -9.2693 161.776 -9.0924 162.08C-8.91549 162.384 -8.70801 162.659 -8.46995 162.903C-8.2319 163.148 -8.02442 163.422 -7.84751 163.726C-7.54994 164.032 -7.40362 164.366 -7.40854 164.728C-7.24148 165.756 -7.2232 166.632 -7.35371 167.354C-7.35535 167.475 -7.35699 167.595 -7.35863 167.716C-7.29912 167.777 -7.271 167.928 -7.27428 168.17C-7.27592 168.29 -7.27756 168.411 -7.2792 168.532C-7.21969 168.593 -7.19157 168.744 -7.19485 168.985C-7.26256 169.528 -7.26994 170.071 -7.21699 170.614C-7.10288 171.099 -7.01935 171.613 -6.9664 172.157C-6.79441 172.823 -6.68358 173.548 -6.63391 174.334C-6.5826 174.998 -6.6222 175.692 -6.75271 176.414L-6.68312 177.954C-6.57393 178.8 -6.34161 179.467 -5.98616 179.954C-5.57284 180.624 -5.15952 181.293 -4.74621 181.963C-4.33125 182.511 -3.85596 183.061 -3.32033 183.611L-1.72083 185.806C-1.48277 186.05 -1.30587 186.354 -1.19012 186.718C-0.839593 187.568 -1.03126 188.349 -1.76511 189.064C-1.76675 189.184 -1.82872 189.304 -1.95103 189.423C-2.0717 189.422 -2.16261 189.451 -2.22377 189.51C-3.07172 189.74 -3.82549 189.699 -4.48507 189.389C-5.50337 188.832 -6.54979 188.124 -7.62432 187.264C-7.92189 186.958 -8.25004 186.682 -8.60877 186.436C-8.96585 186.069 -9.32376 185.763 -9.68248 185.516L-10.5826 185.142C-11.1215 184.833 -11.4554 184.979 -11.5842 185.581C-11.6454 185.641 -11.7074 185.76 -11.7702 185.941C-11.7718 186.061 -11.804 186.212 -11.8668 186.392C-11.9924 186.752 -12.0882 187.143 -12.1543 187.565C-12.2187 187.866 -12.2534 188.197 -12.2583 188.559C-12.5112 189.4 -12.8863 190.361 -13.3837 191.44C-14.1274 192.878 -14.6008 194.411 -14.804 196.037C-14.8668 196.218 -14.9304 196.458 -14.9948 196.759C-14.9981 197 -15.032 197.271 -15.0964 197.572C-15.1608 197.873 -15.2253 198.174 -15.2897 198.475C-15.3541 198.776 -15.4491 199.106 -15.5747 199.467L-15.8598 200.458C-15.9242 200.759 -15.9002 201.212 -15.7877 201.817C-15.5513 202.182 -15.3157 202.608 -15.0809 203.094C-14.8445 203.459 -14.5477 203.825 -14.1907 204.192C-13.655 204.743 -13.15 205.323 -12.6755 205.933C-12.1399 206.483 -11.5737 207.004 -10.9769 207.495C-10.6793 207.8 -10.352 208.137 -9.99491 208.504C-9.69734 208.809 -9.46093 209.175 -9.28567 209.6C-8.99137 210.147 -8.6897 210.151 -8.38065 209.612C-8.07488 209.314 -7.86002 209.046 -7.73607 208.806C-7.1824 208.029 -6.59898 207.283 -5.9858 206.567C-5.37097 205.73 -4.81731 204.953 -4.32479 204.236L-2.57451 201.997C-2.32826 201.638 -2.14316 201.339 -2.01921 201.099C-1.8341 200.8 -1.67876 200.47 -1.55317 200.11C-1.4243 199.508 -1.20616 198.998 -0.898748 198.58C-0.591337 198.162 -0.283926 197.743 0.0234851 197.325C0.639947 196.368 1.58374 195.747 2.85486 195.463L4.85081 195.128C5.33348 195.134 5.69384 195.26 5.9319 195.505C6.47081 195.814 6.83199 195.879 7.01546 195.7C7.13941 195.461 7.26171 195.342 7.38238 195.343C7.8039 195.409 8.2246 195.536 8.64448 195.722C9.066 195.789 9.45612 195.945 9.81485 196.191C10.0529 196.436 10.11 196.678 9.98601 196.917C9.74139 197.155 9.6472 197.426 9.70344 197.728C9.75967 198.031 9.8159 198.333 9.87214 198.636C9.8705 198.756 9.89944 198.847 9.95895 198.908C10.0796 198.91 10.1697 198.941 10.2292 199.003C10.5301 199.067 10.7384 199.281 10.8541 199.645C10.912 199.827 10.9996 200.039 11.117 200.282C11.1749 200.464 11.2328 200.646 11.2906 200.827C11.5816 201.616 11.6611 202.432 11.5289 203.275C11.5224 203.757 11.4869 204.149 11.4224 204.45C11.2308 205.232 11.3077 206.229 11.6534 207.44C11.7112 207.622 11.7989 207.834 11.9162 208.077C11.9741 208.259 12.0312 208.501 12.0874 208.804C12.142 209.227 12.0453 209.678 11.7975 210.158C11.3049 210.875 10.7859 211.321 10.2405 211.494L9.42228 211.755C8.93632 211.989 8.66031 212.318 8.59423 212.739C8.59259 212.86 8.52898 213.1 8.40339 213.461C8.09106 214.241 7.50927 214.867 6.65803 215.338C6.23324 215.513 5.7481 215.688 5.20263 215.861C4.71832 215.975 4.26376 216.12 3.83896 216.295C3.65714 216.353 3.44556 216.38 3.20422 216.377C2.78106 216.432 2.47611 216.669 2.28937 217.089C1.98196 217.507 1.7043 217.956 1.45641 218.435C1.149 218.854 0.871343 219.302 0.623447 219.782C0.132572 220.379 -0.300429 221.157 -0.675555 222.118C-0.859017 222.296 -0.953209 222.566 -0.95813 222.928C-1.02584 223.471 -0.880338 223.865 -0.521613 224.111L-0.343071 224.295C0.376019 224.666 1.03396 225.098 1.63074 225.589C2.28867 226.02 2.91603 226.481 3.51282 226.972L7.81259 230.289C7.87211 230.35 7.93162 230.411 7.99114 230.472C8.05229 230.413 8.08287 230.383 8.08287 230.383C8.73753 231.056 9.42276 231.699 10.1386 232.312C10.8544 232.925 11.5396 233.568 12.1943 234.241C12.968 235.036 13.7119 235.8 14.4261 236.534C15.2014 237.208 15.9461 237.913 16.6603 238.646L17.7315 239.747C18.0919 239.873 18.3944 239.817 18.639 239.578L19.5637 238.143C19.81 237.784 20.0257 237.455 20.2108 237.156C20.457 236.797 20.6727 236.468 20.8578 236.169L22.2411 234.287C22.6081 233.93 22.8535 233.631 22.9775 233.392C23.6534 232.496 24.2997 231.569 24.9161 230.612C25.5326 229.655 26.1788 228.728 26.8548 227.832C27.1622 227.414 27.4696 226.996 27.777 226.578C28.1456 226.1 28.5141 225.622 28.8827 225.144C29.4959 224.429 30.0785 223.742 30.6305 223.086C31.1842 222.309 31.737 221.593 32.2891 220.936C32.5353 220.578 32.7808 220.279 33.0254 220.041C33.2716 219.682 33.5171 219.384 33.7617 219.146C34.0096 218.667 34.1657 218.276 34.2302 217.976C34.2335 217.734 34.2665 217.523 34.3293 217.343C34.4532 217.104 34.516 216.923 34.5177 216.803C34.592 215.778 35.025 214.999 35.8167 214.467C36.0001 214.288 36.1233 214.109 36.1861 213.929C36.3084 213.81 36.4613 213.661 36.6447 213.482C36.8282 213.304 37.0108 213.186 37.1926 213.128C37.6174 212.953 38.0117 212.807 38.3753 212.691C38.6794 212.514 39.0431 212.399 39.4663 212.344C39.5869 212.346 39.6778 212.317 39.739 212.257C40.5258 212.087 41.0448 211.641 41.296 210.921C41.3604 210.62 41.4852 210.32 41.6703 210.021C41.7959 209.66 41.9512 209.33 42.1363 209.031C42.5693 208.253 43.1808 207.657 43.9709 207.246C44.2139 207.128 44.4569 207.011 44.6999 206.894C45.004 206.717 45.2767 206.63 45.5181 206.633C46.0635 206.46 46.6974 206.438 47.4198 206.569C48.7439 206.828 49.9143 207.296 50.9309 207.974C51.2318 208.038 51.4103 208.222 51.4665 208.524C51.5839 208.767 51.7013 209.01 51.8187 209.253C51.8766 209.435 51.9642 209.648 52.0816 209.891C52.1395 210.072 52.2271 210.285 52.3445 210.528C52.4024 210.71 52.4602 210.891 52.5181 211.073C52.7562 211.318 52.8124 211.62 52.6868 211.981C52.5017 212.28 52.4968 212.642 52.6721 213.067C52.7878 213.43 52.6944 213.64 52.3919 213.697C52.1473 213.935 52.0242 214.114 52.0226 214.235C51.9548 214.777 51.797 215.288 51.5491 215.767C51.3012 216.246 51.0534 216.726 50.8055 217.205C50.2518 217.982 49.7576 218.82 49.323 219.72C48.8288 220.558 48.3347 221.396 47.8405 222.234C47.5926 222.713 47.377 223.042 47.1935 223.221C46.8861 223.639 46.6084 224.088 46.3605 224.567C46.1143 224.926 45.8978 225.315 45.711 225.735C45.7094 225.856 45.6474 225.976 45.5251 226.095C45.4639 226.154 45.402 226.274 45.3392 226.454C44.9706 226.932 44.6012 227.47 44.231 228.068C43.922 228.607 43.6427 229.177 43.3931 229.777C43.3287 230.078 43.113 230.407 42.7461 230.764C42.2569 231.24 41.8263 231.838 41.4545 232.557C40.962 233.274 40.4695 233.992 39.9769 234.709C39.4249 235.365 38.8721 236.082 38.3184 236.859L36.6599 239.009C36.0434 239.966 35.5484 240.864 35.1749 241.704C35.1121 241.884 35.0188 242.094 34.8948 242.334C34.7709 242.574 34.6775 242.784 34.6147 242.964C33.5685 244.458 32.8224 246.077 32.3762 247.821L31.9102 248.811C31.4805 249.348 31.14 249.977 30.8889 250.698C30.6988 251.359 30.4782 252.05 30.2271 252.771C30.0982 253.372 30.0321 253.794 30.0288 254.035C30.0256 254.276 30.0818 254.579 30.1975 254.943C30.6059 255.974 31.078 256.765 31.6136 257.315C32.0913 257.684 32.5088 258.052 32.8658 258.419C33.2824 258.847 33.7594 259.276 34.2966 259.705C35.1331 260.32 35.7572 261.023 36.1689 261.813C36.4069 262.057 36.6433 262.423 36.8781 262.908C36.9906 263.513 36.984 263.996 36.8584 264.357ZM-11.7051 214.455C-11.5795 214.094 -11.6358 213.792 -11.8738 213.547C-12.054 213.484 -12.2036 213.392 -12.3226 213.27C-12.5012 213.086 -12.6805 212.963 -12.8607 212.9C-13.9402 212.403 -14.7775 211.848 -15.3726 211.237C-15.4917 211.114 -15.6115 211.052 -15.7322 211.051C-15.7917 210.99 -15.8512 210.928 -15.9107 210.867C-16.152 210.864 -16.2727 210.862 -16.2727 210.862L-16.0942 211.046C-15.8578 211.411 -15.5916 211.807 -15.2957 212.233C-14.9386 212.6 -14.5815 212.967 -14.2244 213.334L-12.7961 214.802C-12.4952 214.866 -12.2836 214.839 -12.1613 214.72C-12.0406 214.722 -11.8886 214.633 -11.7051 214.455ZM142.826 202.847C142.331 203.685 141.512 204.006 140.368 203.809L139.379 203.343C138.781 202.973 138.152 202.572 137.495 202.141C136.837 201.71 136.239 201.279 135.702 200.849L133.641 199.283C133.282 199.036 132.894 198.76 132.476 198.452C132.178 198.146 131.85 197.87 131.491 197.624C131.134 197.257 130.746 196.92 130.328 196.613C130.031 196.307 129.673 196 129.255 195.693C128.957 195.387 128.659 195.081 128.362 194.775C128.124 194.531 127.825 194.285 127.467 194.039C127.229 193.795 126.991 193.55 126.752 193.305C126.514 193.061 126.246 192.846 125.947 192.661C125.649 192.355 125.291 192.048 124.873 191.741C124.575 191.435 124.278 191.129 123.98 190.824C123.502 190.455 123.055 190.057 122.639 189.629C122.222 189.201 121.775 188.802 121.297 188.434L118.612 186.225L117.808 185.399C117.453 184.912 117.067 184.454 116.65 184.026C116.293 183.659 115.937 183.231 115.581 182.744L114.867 182.01C114.393 181.4 113.826 180.88 113.168 180.448C112.631 180.018 112.156 179.469 111.743 178.799C111.266 178.31 110.73 177.82 110.133 177.329C109.598 176.779 109.092 176.259 108.616 175.77C108.259 175.403 108.021 175.098 107.904 174.855C107.31 174.123 106.625 173.48 105.848 172.926C105.192 172.374 104.566 171.792 103.971 171.181C103.733 170.936 103.524 170.783 103.344 170.72C103.104 170.596 102.834 170.502 102.533 170.437C101.51 170.242 100.581 169.717 99.7483 168.86C99.3317 168.432 98.9738 168.126 98.6745 167.941C98.3175 167.574 98.0802 167.269 97.9628 167.026C97.0734 165.867 96.1204 164.949 95.1037 164.271C94.8061 163.966 94.5383 163.69 94.3003 163.446C94.0027 163.14 93.7043 162.895 93.4051 162.71C92.9885 162.281 92.5719 161.853 92.1553 161.425C91.6792 160.936 91.1717 160.537 90.6328 160.228L90.5435 160.136C89.7086 159.401 88.9036 158.696 88.1282 158.021C87.4141 157.288 86.6396 156.553 85.8047 155.817L85.3584 155.359C84.4029 154.622 83.4779 153.855 82.5836 153.058C81.6909 152.141 80.7064 151.313 79.6302 150.574C79.2715 150.328 78.9434 150.052 78.6458 149.746C78.2887 149.379 77.9614 149.043 77.6638 148.737C77.1282 148.186 76.5917 147.696 76.0545 147.267C75.4577 146.776 74.8303 146.315 74.1724 145.883C73.9343 145.639 73.6657 145.424 73.3665 145.239C73.1284 144.994 72.8904 144.75 72.6523 144.505L70.5024 142.846C70.2627 142.722 70.023 142.598 69.7833 142.475C69.6048 142.291 69.3965 142.077 69.1584 141.832L66.1158 139.257C65.8778 139.012 65.5786 138.827 65.2182 138.701C64.6809 138.272 64.1131 137.872 63.5147 137.501C62.9179 137.01 62.412 136.491 61.9971 135.942C61.5805 135.514 61.2226 135.207 60.9234 135.022C60.5051 134.715 60.1175 134.378 59.7604 134.011C59.3438 133.583 58.9569 133.185 58.5998 132.818C57.7666 131.962 56.9029 131.136 56.0085 130.339C55.1753 129.483 54.4025 128.627 53.6899 127.773C53.1543 127.223 52.6484 126.703 52.1723 126.213C51.6978 125.604 51.2531 125.024 50.8382 124.476L49.9454 123.558C49.4693 123.069 48.9312 122.7 48.3312 122.45C48.0303 122.386 47.6997 122.291 47.3394 122.165C47.0997 122.041 46.86 121.917 46.6203 121.793C46.3211 121.608 45.9913 121.453 45.6309 121.327C44.4919 120.769 43.7505 119.823 43.4065 118.491C43.347 118.43 43.3172 118.399 43.3172 118.399C43.3189 118.278 43.2899 118.188 43.2304 118.126C42.9378 117.459 42.8278 116.673 42.9004 115.768C43.0986 114.504 42.9332 113.355 42.4041 112.322C41.9379 111.109 41.8336 109.9 42.0913 108.697C42.1558 108.396 42.2194 108.156 42.2822 107.975C42.3466 107.675 42.4706 107.435 42.654 107.256C42.8391 106.957 42.9358 106.506 42.944 105.903C42.9456 105.782 43.0382 105.632 43.2216 105.454L45.3241 103.943C45.691 103.586 46.1158 103.411 46.5985 103.418C47.0811 103.424 47.5035 103.43 47.8655 103.435C48.2886 103.38 48.6796 103.476 49.0383 103.722L50.1243 103.737C50.7277 103.745 51.1525 103.57 51.3987 103.211C51.645 102.853 51.9202 102.585 52.2243 102.408C52.5284 102.231 52.8623 102.085 53.226 101.969C53.7714 101.795 54.2872 101.591 54.7731 101.356C55.3202 101.062 55.8367 100.798 56.3227 100.563C56.6268 100.386 56.9301 100.269 57.2326 100.213C57.5963 100.097 57.9599 99.9816 58.3236 99.8658C59.355 99.4574 60.4162 99.0796 61.5071 98.7324C62.5385 98.324 63.6286 98.0371 64.7775 97.8716C65.9874 97.6467 67.2271 97.4523 68.4966 97.2885C69.7677 97.0041 71.0066 96.8701 72.2133 96.8865L79.7335 96.3551C80.3385 96.2426 80.9724 96.221 81.6353 96.2904C82.2386 96.2986 82.842 96.3068 83.4453 96.315C84.652 96.3314 85.8901 96.2577 87.1596 96.0939C87.9464 95.9236 88.7018 95.8433 89.4258 95.8532C90.211 95.8035 90.9961 95.7538 91.7813 95.7041C92.6871 95.6561 93.5921 95.6684 94.4963 95.741C95.4005 95.8137 96.3047 95.8863 97.2089 95.959C98.3544 96.0349 99.4686 96.2009 100.551 96.457C101.634 96.7131 102.685 97.1196 103.703 97.6765L106.671 99.0747C107.691 99.5109 108.679 100.037 109.637 100.654C110.534 101.209 111.369 101.945 112.141 102.86L113.48 104.236C114.255 104.911 114.939 105.674 115.531 106.527C116.123 107.38 116.654 108.232 117.126 109.083C117.362 109.448 117.598 109.814 117.835 110.179C118.012 110.483 118.218 110.818 118.455 111.183C119.1 112.58 119.653 114.066 120.114 115.641C120.286 116.307 120.488 117.004 120.719 117.731C120.891 118.397 121.062 119.124 121.233 119.911C121.348 120.274 121.404 120.637 121.399 120.999C121.561 122.389 121.632 123.808 121.613 125.256C121.654 126.645 121.605 128.062 121.464 129.509C121.398 129.93 121.362 130.382 121.355 130.865C121.289 131.287 121.253 131.739 121.246 132.221C121.304 132.403 121.301 132.644 121.237 132.945C121.233 133.187 121.23 133.428 121.227 133.669C121.217 134.393 121.207 135.117 121.197 135.841C121.189 136.445 121.24 137.109 121.351 137.835L121.433 138.47C121.362 139.253 121.351 140.037 121.401 140.823C121.451 141.608 121.44 142.392 121.369 143.176C121.363 143.658 121.355 144.201 121.347 144.805C121.279 145.347 121.241 145.92 121.233 146.523C121.231 146.644 121.23 146.764 121.228 146.885C121.227 147.006 121.224 147.187 121.221 147.428C121.279 147.61 121.306 147.821 121.303 148.063C121.24 148.243 121.207 148.454 121.204 148.695L121.174 150.867C121.163 151.712 121.121 152.526 121.05 153.309C120.979 154.093 120.908 154.937 120.835 155.841C120.833 155.962 120.801 156.112 120.738 156.292C120.737 156.413 120.765 156.564 120.823 156.746C120.816 157.229 120.749 157.71 120.622 158.192C120.495 158.673 120.397 159.184 120.329 159.726C120.325 160.088 120.2 160.388 119.955 160.626C119.707 161.106 119.461 161.465 119.216 161.703C118.788 162.119 118.6 162.66 118.651 163.324C118.645 163.807 118.668 164.32 118.721 164.864C118.774 165.408 118.827 165.952 118.88 166.495L119.448 171.301C119.433 172.387 119.751 173.447 120.4 174.482C120.756 174.969 121.111 175.457 121.467 175.945C121.882 176.493 122.266 177.072 122.62 177.68C123.151 178.592 123.833 179.477 124.666 180.333C125.382 180.946 125.976 181.618 126.449 182.348C127.042 183.081 127.636 183.813 128.229 184.545L128.765 185.096C129.182 185.524 129.629 185.922 130.106 186.29C130.644 186.72 131.12 187.209 131.535 187.758C131.89 188.246 132.276 188.704 132.693 189.132C133.169 189.621 133.615 190.08 134.032 190.508C134.449 190.936 134.835 191.333 135.192 191.7C135.55 192.067 135.876 192.464 136.172 192.89C136.589 193.318 136.975 193.776 137.33 194.264C137.806 194.753 138.283 195.182 138.761 195.55L139.654 196.468C139.892 196.712 140.13 196.957 140.368 197.202C140.606 197.446 140.843 197.751 141.079 198.116C141.377 198.422 141.644 198.758 141.88 199.123C142.238 199.49 142.534 199.856 142.771 200.221C142.83 200.283 142.829 200.343 142.768 200.402C142.768 200.402 142.798 200.433 142.857 200.494C143.388 201.406 143.378 202.191 142.826 202.847ZM106.347 149.579C106.469 149.46 106.532 149.28 106.535 149.039C106.722 148.619 106.879 148.168 107.006 147.687C107.133 147.206 107.23 146.755 107.296 146.334C107.547 145.613 107.68 144.709 107.695 143.623C107.653 142.235 107.672 140.847 107.751 139.46C107.771 138.012 107.76 136.594 107.719 135.206C107.677 133.817 107.666 132.399 107.686 130.951C107.646 129.442 107.635 128.023 107.653 126.696L107.613 122.984C107.62 122.502 107.596 122.049 107.541 121.625C107.427 121.141 107.343 120.687 107.288 120.264C107.123 119.115 106.532 118.202 105.515 117.525C104.022 116.358 102.435 115.461 100.754 114.835C100.035 114.463 99.3151 114.152 98.5944 113.9C97.8141 113.588 97.0636 113.306 96.3429 113.055C95.7412 112.926 95.3205 112.8 95.0808 112.676C94.7188 112.671 94.3576 112.606 93.9973 112.48C93.0947 112.287 92.2211 112.184 91.3764 112.173C91.1351 112.17 90.8632 112.196 90.5607 112.252C90.2598 112.188 89.959 112.123 89.6581 112.059C89.0564 111.93 88.4547 111.801 87.853 111.672C87.3125 111.484 86.7405 111.386 86.1372 111.378C85.0544 111.121 84.3618 111.022 84.0593 111.078C83.6973 111.073 82.9717 111.184 81.8824 111.41C80.7319 111.696 79.674 111.833 78.7087 111.82L77.6227 111.805C76.6557 111.913 75.7185 112.051 74.811 112.219C73.9647 112.329 73.058 112.437 72.091 112.544C71.0629 112.711 70.0943 112.94 69.1851 113.229C68.2165 113.457 67.2173 113.715 66.1875 114.003C65.885 114.059 65.5817 114.176 65.2776 114.353C64.9735 114.53 64.6693 114.707 64.3652 114.883C64.0611 115.06 63.9065 115.33 63.9016 115.692L64.1645 116.329C64.2803 116.693 64.6357 117.18 65.2309 117.792L67.9164 120.001C68.6933 120.554 69.4703 121.108 70.2473 121.662C71.0854 122.156 71.8929 122.68 72.6699 123.233L73.027 123.6C73.7444 124.093 74.4611 124.646 75.1769 125.259C75.8927 125.872 76.6391 126.456 77.416 127.009C78.074 127.441 78.7013 127.902 79.2981 128.393C79.8949 128.883 80.4917 129.374 81.0884 129.865C81.6257 130.295 82.163 130.725 82.7002 131.154C83.2392 131.463 83.7772 131.833 84.3145 132.262C85.5097 133.124 86.6743 134.014 87.8084 134.935C88.9441 135.735 90.079 136.595 91.213 137.516L93.72 139.541C94.0192 139.726 94.2878 139.941 94.5259 140.186C94.7044 140.369 94.9135 140.523 95.1532 140.647L95.8674 141.381C96.6444 141.934 97.4205 142.548 98.1958 143.223C98.9728 143.776 99.7489 144.39 100.524 145.065C100.704 145.128 100.914 145.281 101.152 145.526C101.745 146.258 102.46 146.932 103.297 147.546C104.133 148.161 104.879 148.805 105.533 149.478L105.801 149.753C105.861 149.814 105.951 149.845 106.071 149.847C106.253 149.789 106.345 149.7 106.347 149.579ZM199.449 83.4434C199.388 83.5029 199.266 83.5616 199.084 83.6195C199.023 83.679 198.931 83.7683 198.809 83.8873C198.381 84.3039 197.897 84.418 197.356 84.2296C196.695 84.0396 196.093 83.9107 195.551 83.843C195.009 83.7753 194.436 83.7373 193.833 83.7291C193.229 83.7209 192.627 83.6524 192.025 83.5235C191.485 83.3352 190.944 83.1468 190.404 82.9584C189.922 82.8312 189.533 82.6147 189.236 82.3089L188.343 81.3916C188.045 81.0858 187.717 80.8098 187.358 80.5635C187.001 80.1966 186.643 79.89 186.285 79.6438C185.686 79.2736 185.058 78.8728 184.4 78.4414C183.803 77.9505 183.206 77.52 182.607 77.1498C182.488 77.0275 182.339 76.9349 182.159 76.8721C181.98 76.6887 181.831 76.5358 181.712 76.4135C180.996 75.8003 180.25 75.2169 179.473 74.6632C178.637 74.0484 177.83 73.4641 177.053 72.9105C175.679 71.8659 174.305 70.8817 172.929 69.9578C171.555 68.9133 170.211 67.8993 168.897 66.916L165.401 64.4244C164.864 63.9947 164.174 63.6535 163.333 63.4006C162.311 63.085 161.322 62.619 160.365 62.0025C159.947 61.6951 159.527 61.448 159.108 61.2613C158.628 61.0134 158.149 60.7655 157.669 60.5176C156.891 60.0846 156.112 59.6516 155.334 59.2186C154.555 58.7856 153.807 58.3228 153.09 57.8303C152.552 57.4006 151.984 57.0007 151.386 56.6304C150.788 56.2602 150.189 55.89 149.591 55.5198L146.63 53.5787C146.511 53.4564 146.391 53.3944 146.27 53.3928C145.376 52.5961 144.421 51.859 143.404 51.1814C142.328 50.4426 141.281 49.7344 140.265 49.0568C139.727 48.6271 139.07 48.1354 138.293 47.5817C137.518 46.9074 136.953 46.3264 136.597 45.8388L135.704 44.9215C134.994 43.9463 134.495 42.8835 134.209 41.7331C133.865 40.4008 134.005 38.9544 134.63 37.3939C134.817 36.974 135.033 36.5847 135.28 36.226C135.526 35.8673 135.742 35.5383 135.927 35.2391C136.54 34.5233 137.271 33.9901 138.121 33.6396C138.911 33.2279 139.79 32.908 140.759 32.6798C141.061 32.6235 141.363 32.6276 141.664 32.6921C142.145 32.8193 142.626 32.9465 143.107 33.0737C143.649 33.1415 144.129 33.329 144.548 33.6364C145.027 33.8843 145.506 34.1322 145.986 34.3801C146.526 34.5685 147.037 34.7263 147.518 34.8536C148.419 35.1675 149.258 35.6013 150.035 36.155C150.812 36.7087 151.589 37.2623 152.366 37.816C153.442 38.5548 154.486 39.444 155.498 40.4836L155.944 40.9423C156.662 41.4348 157.318 41.9868 157.913 42.5983C158.449 43.1487 159.014 43.7297 159.609 44.3412C160.623 45.2602 161.666 46.1494 162.741 47.0088C163.756 47.8071 164.831 48.6666 165.965 49.5872L170.711 53.3629L170.889 53.5464C171.666 54.1 172.473 54.6843 173.309 55.2991C174.148 55.7933 174.925 56.3469 175.64 56.9601C176.836 57.8212 178.061 58.7128 179.315 59.6351C180.572 60.4366 181.767 61.2977 182.901 62.2183L187.201 65.5354C187.918 66.0279 188.605 66.5502 189.261 67.1022C189.979 67.5947 190.696 68.0872 191.414 68.5798C192.131 69.0723 192.818 69.5945 193.474 70.1466C194.132 70.5779 194.82 71.0399 195.537 71.5324C195.837 71.7175 196.105 71.9323 196.343 72.177C196.583 72.3009 196.822 72.4852 197.06 72.7298C198.014 73.5876 198.724 74.6231 199.19 75.8364C199.367 76.1405 199.452 76.5339 199.446 77.0166C199.558 77.6216 199.582 78.0745 199.518 78.3753C199.504 79.3407 199.643 80.2176 199.934 81.006C199.994 81.0672 200.022 81.2184 200.019 81.4598C200.077 81.6416 200.104 81.8532 200.101 82.0945C200.094 82.5772 199.877 83.0268 199.449 83.4434ZM256.225 42.4785C256.164 42.538 255.89 42.6852 255.404 42.92C255.161 43.0373 254.739 43.0316 254.137 42.9027C253.898 42.7788 253.658 42.6548 253.418 42.5309C253.178 42.4069 252.969 42.2532 252.791 42.0698C251.715 41.331 250.73 40.503 249.837 39.5856L243.678 33.2562C243.142 32.7058 242.545 32.2149 241.887 31.7836C241.229 31.3522 240.572 30.9208 239.914 30.4895C239.795 30.3672 239.555 30.2432 239.195 30.1176C238.955 29.9937 238.685 29.8995 238.384 29.8351C238.023 29.7095 237.693 29.6145 237.392 29.55C236.731 29.36 236.101 29.0799 235.502 28.7097C234.904 28.3395 234.366 27.9701 233.888 27.6015C233.172 26.9883 232.547 26.3462 232.013 25.6752C231.779 25.1892 231.543 24.7636 231.307 24.3983C231.011 23.9719 230.775 23.5462 230.6 23.1214C230.307 22.4537 229.984 21.8156 229.63 21.2074C229.217 20.538 228.834 19.8388 228.482 19.1099L225.484 13.276C224.662 11.5751 223.933 9.72468 223.296 7.72463C222.719 5.78573 221.963 3.72371 221.027 1.53856C220.792 1.0526 220.558 0.506315 220.325 -0.100307C219.915 -1.01106 219.535 -1.89124 219.184 -2.74084C218.835 -3.7111 218.485 -4.62104 218.135 -5.47064L215.762 -10.6624C215.646 -11.0261 215.499 -11.36 215.323 -11.6641C215.146 -11.9682 214.969 -12.2724 214.792 -12.5765C214.091 -14.2757 213.449 -15.9137 212.867 -17.4906C212.52 -18.5815 211.991 -19.6146 211.28 -20.5898C210.569 -21.565 209.736 -22.4211 208.78 -23.1583C208.362 -23.4657 207.944 -23.7731 207.526 -24.0805C207.109 -24.5086 206.722 -24.9061 206.365 -25.273C206.187 -25.4565 205.977 -25.5499 205.735 -25.5531C205.496 -25.6771 205.317 -25.8605 205.2 -26.1035C205.142 -26.2853 205.084 -26.4672 205.026 -26.649C205.029 -26.8903 205.002 -27.1019 204.944 -27.2837C204.473 -28.135 204.183 -28.9837 204.074 -29.8301C203.966 -30.7971 203.949 -31.7326 204.021 -32.6368C204.028 -33.1195 204.186 -33.6303 204.495 -34.1692C204.62 -34.5296 204.715 -34.8602 204.78 -35.161C204.905 -35.5214 204.971 -35.8826 204.975 -36.2446C205.043 -36.7868 205.231 -37.267 205.538 -37.6852C205.968 -38.2225 206.309 -38.9118 206.562 -39.7532C206.754 -40.5351 207.215 -41.1625 207.945 -41.6353L208.771 -42.4387C209.199 -42.8553 209.806 -43.1488 210.593 -43.3192C210.775 -43.377 210.987 -43.4043 211.228 -43.401C211.471 -43.5184 211.744 -43.6052 212.046 -43.6615C212.893 -43.7707 213.583 -43.5501 214.119 -42.9997C214.536 -42.5716 214.953 -42.2039 215.371 -41.8964C215.851 -41.6486 216.329 -41.3403 216.807 -40.9718C217.286 -40.7239 217.673 -40.3264 217.968 -39.7792C218.025 -39.5974 218.144 -39.4148 218.322 -39.2313C218.441 -39.109 218.53 -38.9569 218.588 -38.7751C218.826 -38.5305 219.033 -38.2561 219.21 -37.952C219.448 -37.7074 219.656 -37.433 219.832 -37.1289C220.066 -36.5223 220.543 -36.1537 221.266 -36.0232C222.529 -35.7043 223.76 -35.2953 224.96 -34.7962C226.222 -34.3567 227.483 -33.9171 228.744 -33.4775L233.252 -32.149C234.515 -31.8301 235.927 -31.3584 237.487 -30.7337C237.788 -30.6693 238.058 -30.5751 238.298 -30.4511C238.599 -30.3867 238.9 -30.3223 239.2 -30.2578C239.681 -30.1306 240.162 -29.943 240.641 -29.6951C241.182 -29.5067 241.722 -29.3184 242.263 -29.13C243.645 -28.6888 244.965 -28.1277 246.223 -27.4468C247.482 -26.8866 248.801 -26.2652 250.18 -25.5827C250.24 -25.5215 250.299 -25.4604 250.359 -25.3992C250.42 -25.4587 250.48 -25.4579 250.54 -25.3968C251.017 -25.0282 251.531 -25.1117 252.082 -25.6474C252.206 -25.8871 252.36 -26.0962 252.543 -26.2747C252.788 -26.5128 253.002 -26.7211 253.185 -26.8996C253.858 -27.5543 254.558 -27.9973 255.285 -28.2288C255.65 -28.4653 256.135 -28.5794 256.738 -28.5712C257.703 -28.558 258.427 -28.4879 258.908 -28.3606C259.389 -28.2334 259.957 -27.8938 260.614 -27.3418C261.989 -26.4179 262.726 -25.1708 262.826 -23.6005L262.722 -22.6062C262.718 -22.3648 262.685 -22.0937 262.62 -21.7929C262.496 -21.5532 262.433 -21.3127 262.429 -21.0713C262.362 -20.5291 262.357 -20.1671 262.414 -19.9853C262.534 -19.863 262.893 -19.6771 263.493 -19.4275L268.083 -17.4643C269.824 -16.7768 271.564 -16.0894 273.305 -15.4019C275.107 -14.774 276.909 -14.146 278.71 -13.5181C279.372 -13.3281 279.972 -13.0785 280.511 -12.7695C281.111 -12.5199 281.679 -12.1803 282.217 -11.7506C282.635 -11.4432 282.992 -11.0763 283.288 -10.6498C283.645 -10.2829 283.971 -9.88621 284.267 -9.45977C284.327 -9.39862 284.474 -9.12506 284.709 -8.63911C284.763 -8.21595 284.818 -7.79279 284.873 -7.36963C284.988 -7.00598 285.073 -6.61258 285.128 -6.18942C285.293 -5.04061 285.64 -3.88934 286.167 -2.73561C286.581 -2.06619 286.6 -1.25127 286.225 -0.290844C286.036 0.249703 285.639 0.636545 285.032 0.869681C284.303 1.22185 283.579 1.21201 282.86 0.840159L282.23 0.560045C281.452 0.127047 280.611 -0.186105 279.709 -0.379409C279.047 -0.569432 278.386 -0.759454 277.725 -0.949477C277.065 -1.26017 276.405 -1.51053 275.744 -1.70055C275.563 -1.76334 275.444 -1.82532 275.384 -1.88647C275.265 -2.00878 275.145 -2.07075 275.025 -2.07239C274.606 -2.37981 274.157 -2.59713 273.676 -2.72436C273.196 -2.97225 272.716 -3.15982 272.235 -3.28704C270.975 -3.84727 269.715 -4.34717 268.454 -4.78673C267.194 -5.34695 265.904 -5.87743 264.583 -6.37814L260.35 -7.97448C260.111 -8.09842 259.871 -8.22237 259.631 -8.34632C259.332 -8.53142 259.002 -8.68677 258.642 -8.81236L255.131 -10.2178C255.012 -10.3402 254.772 -10.4641 254.412 -10.5897C253.63 -10.7814 252.965 -10.6697 252.416 -10.2548C251.988 -9.83815 251.56 -9.48189 251.134 -9.18596C250.708 -8.89003 250.311 -8.56352 249.944 -8.20643C248.965 -7.25421 248.076 -6.21025 247.276 -5.07456C246.476 -3.93887 245.886 -2.70981 245.506 -1.38738C244.999 0.416089 244.223 2.0047 243.179 3.37844C242.934 3.6165 242.719 3.88513 242.534 4.18434C242.349 4.48355 242.194 4.81334 242.068 5.17371C241.939 5.77541 241.993 6.2589 242.229 6.62419C242.464 7.11014 242.671 7.44485 242.849 7.62831L243.824 9.18037C244.179 9.66796 244.351 10.3341 244.34 11.1788C244.332 11.7821 244.052 12.3516 243.502 12.8872C242.588 13.5386 241.681 13.647 240.782 13.2123C240.542 13.0884 240.303 12.9644 240.063 12.8405C239.823 12.7165 239.554 12.562 239.255 12.3769C239.367 12.9819 239.634 13.3174 240.056 13.3835C240.416 13.5091 240.563 13.7826 240.497 14.2042C240.494 14.4455 240.552 14.567 240.673 14.5686C241.033 14.6942 241.211 14.938 241.206 15.3C241.201 15.662 241.349 15.9356 241.648 16.1207C241.828 16.1835 241.977 16.3364 242.094 16.5793C242.205 17.305 242.497 18.0331 242.97 18.7637C243.269 18.9488 243.294 19.281 243.047 19.7604C242.924 19.8794 242.923 20.0001 243.042 20.1224C243.098 20.4249 243.243 20.8191 243.478 21.3051C243.715 21.6704 243.95 22.096 244.185 22.5819C244.421 22.9472 244.627 23.3423 244.802 23.7671L246.484 26.596L246.841 26.9629C247.377 27.5133 247.851 28.1232 248.264 28.7926C248.679 29.3414 249.155 29.8909 249.69 30.4413L252.361 33.7363C252.716 34.2239 253.072 34.7115 253.427 35.199C253.903 35.6883 254.38 36.1775 254.856 36.6667C255.152 37.0932 255.418 37.4891 255.654 37.8543C256.011 38.2213 256.307 38.6477 256.542 39.1337C256.955 39.8031 257.128 40.4089 257.06 40.9511C257.173 41.556 256.894 42.0652 256.225 42.4785ZM231.995 -6.27795L232.087 -6.36723C232.579 -7.08467 233.071 -7.74179 233.562 -8.33857C234.053 -8.93535 234.544 -9.53214 235.035 -10.1289C235.342 -10.5472 235.679 -10.9348 236.046 -11.2919C236.354 -11.7101 236.691 -12.0978 237.058 -12.4549L238.984 -14.3296C239.106 -14.4486 239.229 -14.5676 239.351 -14.6867C239.414 -14.8669 239.476 -14.9867 239.537 -15.0462C239.659 -15.1652 239.601 -15.3471 239.363 -15.5917C238.942 -15.6578 238.551 -15.7536 238.19 -15.8792C237.83 -16.0048 237.47 -16.1304 237.109 -16.2559C235.909 -16.755 234.706 -17.0128 233.499 -17.0292C233.319 -17.092 233.168 -17.1242 233.048 -17.1258C232.868 -17.1886 232.687 -17.2514 232.507 -17.3142C232.327 -17.377 232.116 -17.41 231.875 -17.4133C231.635 -17.5373 231.395 -17.6009 231.153 -17.6041C230.61 -17.5512 230.363 -17.1925 230.415 -16.528L230.854 -15.5263C231.269 -14.9776 231.683 -14.3685 232.096 -13.6991C232.45 -13.0908 232.804 -12.4825 233.157 -11.8743C233.276 -11.752 233.394 -11.509 233.51 -11.1453C233.744 -10.6594 233.706 -10.0866 233.396 -9.42705C233.146 -8.82699 232.628 -8.44178 231.841 -8.27144L230.934 -8.10274C230.934 -8.10274 230.873 -8.04323 230.75 -7.9242C230.866 -7.56055 230.983 -7.31758 231.102 -7.19527C231.221 -7.07296 231.341 -6.95065 231.46 -6.82834C231.64 -6.76555 231.728 -6.61348 231.725 -6.37214C231.722 -6.13081 231.812 -6.09941 231.995 -6.27795ZM65.6607 494.081L63.397 494.141C63.1556 494.138 62.9755 494.075 62.8564 493.952L61.6885 493.303C61.2124 492.814 60.6148 492.383 59.8957 492.011C59.7155 491.948 59.5362 491.825 59.3576 491.642C59.1791 491.458 58.9997 491.335 58.8195 491.273C58.3434 490.783 57.8367 490.324 57.2995 489.894C56.8217 489.526 56.3134 489.187 55.7745 488.878L55.4174 488.511C54.523 487.714 53.5684 486.917 52.5533 486.118C51.5978 485.381 50.7035 484.585 49.8703 483.728L48.6205 482.444C48.4419 482.261 48.2634 482.077 48.0849 481.894C47.9675 481.651 47.7592 481.437 47.46 481.252C47.1029 480.885 46.6557 480.486 46.1184 480.057C45.7018 479.629 45.2852 479.201 44.8686 478.772C44.5711 478.467 44.2437 478.13 43.8866 477.763C43.5296 477.396 43.1717 477.09 42.8129 476.844C42.1566 476.292 41.5003 475.74 40.844 475.188C40.1877 474.636 39.5314 474.083 38.8752 473.531C38.2189 472.979 37.5626 472.427 36.9063 471.875C36.3111 471.264 35.716 470.652 35.1208 470.041C34.5224 469.671 33.9843 469.301 33.5066 468.933C33.0288 468.564 32.5205 468.225 31.9816 467.916C31.3236 467.485 30.693 467.265 30.0897 467.257C29.5475 467.189 29.0053 467.121 28.4631 467.054C28.0416 466.988 27.6209 466.861 27.201 466.674C26.8406 466.549 26.5398 466.484 26.2985 466.481C25.6951 466.473 25.062 466.434 24.3992 466.365C23.7379 466.175 23.0759 466.045 22.413 465.976C21.5716 465.723 20.7592 465.561 19.9757 465.49C19.4946 465.363 19.0128 465.296 18.5301 465.289C18.0491 465.162 17.6284 465.036 17.268 464.91C16.8481 464.723 16.4266 464.657 16.0034 464.712C15.5819 464.646 15.1902 464.61 14.8282 464.605L7.59297 464.145C6.44744 464.069 5.33249 463.963 4.24811 463.828C3.82823 463.641 3.43729 463.545 3.07529 463.54C2.71328 463.536 2.29094 463.53 1.80827 463.523L-2.62507 463.372C-3.04659 463.306 -3.43917 463.331 -3.80281 463.447C-4.16482 463.442 -4.52765 463.497 -4.89129 463.613C-5.61858 463.845 -6.4649 463.954 -7.43025 463.941C-7.48976 463.88 -7.64019 463.847 -7.88152 463.844C-8.48651 463.957 -9.12124 464.039 -9.78574 464.09C-10.3891 464.082 -10.9924 464.073 -11.5958 464.065C-12.3198 464.055 -12.833 464.079 -13.1355 464.135C-14.1009 464.122 -15.067 464.169 -16.034 464.276C-16.9399 464.324 -17.8754 464.342 -18.8408 464.329C-19.3235 464.322 -19.7764 464.346 -20.1995 464.401C-20.6211 464.335 -21.0426 464.269 -21.4641 464.203L-22.5501 464.188C-22.5501 464.188 -22.5807 464.218 -22.6418 464.277C-22.6418 464.277 -22.6121 464.308 -22.5526 464.369L-22.555 464.55L-22.4658 464.642C-20.9697 465.567 -19.4464 466.704 -17.8957 468.053C-17.7172 468.236 -17.5676 468.329 -17.4469 468.331C-16.6683 468.764 -16.012 469.316 -15.478 469.987C-14.9424 470.537 -14.4381 471.178 -13.9653 471.908C-13.6115 472.516 -13.1329 472.825 -12.5296 472.833C-12.2883 472.836 -12.1692 472.958 -12.1725 473.2C-11.8749 473.505 -11.7262 473.658 -11.7262 473.658C-11.3674 473.905 -11.0393 474.181 -10.7417 474.486C-10.4441 474.792 -10.1466 475.098 -9.849 475.404C-9.4324 475.832 -9.10425 476.108 -8.86455 476.232C-7.78838 476.971 -6.89403 477.767 -6.18149 478.622C-6.00459 478.926 -5.76736 479.231 -5.46979 479.537C-5.17221 479.842 -4.90522 480.178 -4.6688 480.543C-4.55142 480.786 -4.40345 480.999 -4.22491 481.183C-4.04472 481.246 -3.89512 481.338 -3.77609 481.46C-3.47688 481.646 -3.20825 481.86 -2.97019 482.105C-2.73049 482.229 -2.52219 482.443 -2.34529 482.747C-1.80966 483.298 -1.45586 483.906 -1.28388 484.572C-1.05566 485.541 -1.18781 486.384 -1.68032 487.101C-1.86379 487.28 -1.95634 487.429 -1.95798 487.55C-2.14472 487.97 -2.14882 488.271 -1.97028 488.455C-1.67271 488.761 -1.40571 489.096 -1.1693 489.461C-0.93124 489.706 -0.663426 489.981 -0.365855 490.287L1.9552 492.672C2.55198 493.163 2.9653 493.832 3.19516 494.68C3.30926 495.165 3.27295 495.617 3.0862 496.037C2.89946 496.456 2.62345 496.785 2.25816 497.021C1.10443 497.548 0.0184146 497.534 -0.999886 496.977L-2.34634 496.144C-2.82409 495.775 -3.363 495.466 -3.96306 495.217C-4.44245 494.969 -5.01358 494.81 -5.67643 494.741C-6.0368 494.615 -6.39716 494.49 -6.75753 494.364C-7.11789 494.238 -7.47826 494.113 -7.83862 493.987C-8.61887 493.675 -9.36854 493.333 -10.0876 492.961C-10.8051 492.468 -11.5225 491.976 -12.24 491.483C-12.6582 491.176 -13.0161 490.869 -13.3137 490.564C-13.6708 490.197 -14.0279 489.83 -14.3849 489.463C-14.623 489.218 -14.8916 489.003 -15.1908 488.818C-15.4289 488.574 -15.667 488.329 -15.905 488.084C-16.3828 487.716 -16.8299 487.318 -17.2465 486.889C-17.6631 486.461 -18.0797 486.033 -18.4963 485.605C-18.7939 485.299 -19.1212 484.963 -19.4783 484.596C-19.8354 484.229 -20.2239 483.952 -20.6438 483.766L-21.0009 483.399C-21.596 482.787 -22.192 482.236 -22.7887 481.745C-23.3855 481.254 -24.0121 480.733 -24.6684 480.181C-24.7874 480.058 -24.9072 479.997 -25.0279 479.995C-25.4461 479.687 -25.8644 479.38 -26.2826 479.073C-26.7604 478.704 -27.239 478.396 -27.7183 478.148C-28.3168 477.778 -28.9152 477.408 -29.5136 477.037C-30.0509 476.608 -30.6187 476.208 -31.2171 475.837C-31.6949 475.469 -32.1429 475.131 -32.5611 474.823C-33.0389 474.455 -33.5472 474.116 -34.0861 473.807C-34.3853 473.622 -34.6548 473.467 -34.8945 473.343C-35.1325 473.099 -35.3706 472.854 -35.6087 472.61C-36.0269 472.302 -36.4154 472.025 -36.7741 471.779C-37.1312 471.412 -37.4585 471.076 -37.7561 470.77C-38.2934 470.34 -38.8306 469.911 -39.3679 469.481C-39.9647 468.99 -40.5623 468.559 -41.1607 468.189C-41.5194 467.943 -41.8781 467.697 -42.2369 467.451C-42.594 467.084 -42.9213 466.747 -43.2189 466.441C-44.0537 465.706 -44.8894 465.031 -45.7258 464.416C-46.5012 463.742 -47.2757 463.007 -48.0493 462.212C-48.3469 461.906 -48.6453 461.661 -48.9445 461.476C-49.2421 461.17 -49.5099 460.895 -49.748 460.65C-50.3447 460.159 -50.9721 459.698 -51.63 459.267C-52.2863 458.715 -52.9129 458.193 -53.5097 457.702L-57.6309 454.569C-58.3467 453.956 -59.0923 453.312 -59.8676 452.637C-60.6429 451.963 -61.3579 451.29 -62.0126 450.617C-62.4292 450.189 -62.8458 449.761 -63.2624 449.333C-63.679 448.905 -64.1261 448.506 -64.6039 448.138C-65.4999 447.462 -66.2132 446.668 -66.7439 445.755C-67.3937 444.72 -67.7409 443.63 -67.7857 442.482C-67.8403 442.059 -67.8651 441.667 -67.8602 441.305C-67.8553 440.943 -67.8503 440.581 -67.8454 440.219C-67.7761 439.556 -67.5869 438.955 -67.2778 438.416C-66.9076 437.818 -66.5382 437.279 -66.1697 436.802C-65.8639 436.504 -65.5284 436.237 -65.1631 436.001C-64.8573 435.703 -64.5524 435.466 -64.2482 435.289C-63.7623 435.054 -63.3061 434.789 -62.8796 434.493C-62.4515 434.076 -62.0235 433.66 -61.5954 433.243C-60.8004 432.469 -60.036 431.726 -59.3021 431.011C-58.5071 430.238 -57.6823 429.495 -56.8278 428.782C-55.4213 427.413 -53.8949 426.106 -52.2486 424.861C-51.2734 424.151 -50.2999 423.56 -49.328 423.091C-48.3544 422.501 -47.3214 421.972 -46.2288 421.504C-44.4073 420.684 -42.618 420.014 -40.8609 419.495C-40.0725 419.204 -39.2551 419.004 -38.4088 418.894C-37.622 418.724 -36.8062 418.645 -35.9616 418.656C-35.5996 418.661 -35.2376 418.666 -34.8755 418.671C-34.5135 418.676 -34.1524 418.741 -33.792 418.867C-33.43 418.872 -33.068 418.876 -32.706 418.881C-32.344 418.886 -31.9836 419.012 -31.6249 419.258C-31.2645 419.384 -31.0843 419.447 -31.0843 419.447C-30.0611 419.641 -29.1007 420.017 -28.2031 420.572C-27.2443 421.068 -26.3466 421.623 -25.5102 422.238C-24.7927 422.73 -24.1976 423.342 -23.7247 424.072C-23.2503 424.682 -22.746 425.323 -22.212 425.994C-21.7954 426.422 -21.4392 426.849 -21.1432 427.276C-20.8473 427.702 -20.582 428.158 -20.3472 428.644C-19.8132 429.315 -19.4313 430.075 -19.2014 430.923C-18.9104 431.711 -18.6797 432.499 -18.5094 433.286C-18.4499 433.347 -18.4209 433.438 -18.4226 433.558C-18.4837 433.618 -18.4854 433.739 -18.4275 433.92C-18.3795 434.826 -18.3926 435.792 -18.4669 436.816C-18.48 437.782 -18.6443 438.775 -18.96 439.797C-19.0855 440.157 -19.1814 440.548 -19.2474 440.97C-19.2524 441.332 -19.3482 441.723 -19.5349 442.142C-19.5382 442.384 -19.4192 442.506 -19.1779 442.509C-18.6952 442.516 -18.3629 442.49 -18.1811 442.432C-17.3959 442.383 -16.6108 442.333 -15.8256 442.283C-14.9793 442.174 -14.1636 442.095 -13.3784 442.045C-12.5916 441.875 -11.8064 441.825 -11.0229 441.896C-10.2989 441.906 -9.5443 441.886 -8.75914 441.836C-7.91446 441.848 -7.06978 441.859 -6.2251 441.871C-5.38042 441.882 -4.53574 441.894 -3.69107 441.905C-3.50924 441.847 -3.29766 441.82 -3.05633 441.823C-2.81499 441.827 -2.57365 441.83 -2.33231 441.833C-1.78849 441.78 -1.27524 441.757 -0.792563 441.764C-0.30989 441.77 0.20254 441.807 0.744728 441.875C1.10509 442.001 1.46628 442.066 1.82828 442.071C2.13078 442.015 2.46303 441.989 2.82503 441.994C3.24819 441.939 3.64077 441.914 4.00278 441.919C4.36478 441.924 4.78712 441.93 5.26979 441.936C5.93265 442.006 6.65584 442.076 7.43937 442.147C8.16338 442.157 8.88739 442.167 9.6114 442.177L10.7867 442.283C11.028 442.286 11.2694 442.29 11.5107 442.293C11.752 442.296 11.9628 442.329 12.143 442.392C13.2885 442.468 14.434 442.544 15.5796 442.62C16.7862 442.636 18.0227 442.683 19.2889 442.761L20.3749 442.775C20.9799 442.663 21.6436 442.672 22.3659 442.802C23.0899 442.812 23.7536 442.821 24.357 442.83C24.7801 442.775 25.2314 442.872 25.7108 443.12C25.9505 443.243 26.1902 443.367 26.4299 443.491C26.6101 443.554 26.82 443.648 27.0597 443.771C27.7193 444.082 28.2268 444.481 28.5822 444.969C28.6401 445.151 28.8178 445.395 29.1154 445.7C29.5915 446.19 29.9156 446.767 30.0875 447.433C30.3207 448.04 30.4629 448.676 30.5142 449.34L30.4028 450.877C30.3831 452.325 30.8469 453.72 31.7942 455.06C32.3282 455.731 32.8622 456.402 33.3962 457.073C33.9913 457.685 34.6162 458.327 35.2709 459C35.9256 459.672 36.5802 460.345 37.2349 461.018C37.8895 461.69 38.5748 462.333 39.2906 462.946L40.4511 464.139C40.6908 464.263 41.0487 464.57 41.5248 465.059L53.755 477.626C54.1716 478.054 54.5576 478.512 54.913 478.999C55.3892 479.489 55.8653 479.978 56.3414 480.467C56.5183 480.771 56.7258 481.046 56.9638 481.29C57.2019 481.535 57.4399 481.78 57.678 482.024L59.4634 483.859C59.761 484.165 60.0296 484.379 60.2693 484.503C61.3439 485.363 62.3267 486.312 63.2177 487.349C64.17 488.328 65.1825 489.307 66.2554 490.287C66.791 490.838 67.0523 491.596 67.0392 492.561C67.026 493.526 66.5666 494.033 65.6607 494.081ZM-37.592 452.035C-37.5903 451.914 -37.5589 451.824 -37.4978 451.765C-37.4366 451.705 -37.4052 451.615 -37.4036 451.495C-37.0798 449.87 -36.3989 448.612 -35.3609 447.721C-34.994 447.363 -34.689 447.126 -34.446 447.009C-33.8378 446.655 -33.499 446.147 -33.4296 445.484C-33.1768 444.642 -32.8645 443.862 -32.4926 443.143C-32.1803 442.363 -31.9283 441.582 -31.7366 440.8C-31.6755 440.74 -31.6449 440.711 -31.6449 440.711C-31.7044 440.649 -31.7036 440.589 -31.6424 440.53C-31.0855 439.511 -30.7682 438.369 -30.6907 437.103C-30.4957 436.08 -30.4272 435.477 -30.4851 435.295C-30.5413 434.993 -30.8951 434.385 -31.5465 433.471L-31.9036 433.104C-32.2607 432.737 -32.6186 432.43 -32.9773 432.184C-33.336 431.938 -33.6344 431.692 -33.8725 431.448C-34.7106 430.953 -35.5834 430.791 -36.4909 430.959C-37.3983 431.128 -38.2471 431.418 -39.0372 431.83C-40.0075 432.179 -40.919 432.649 -41.7719 433.241C-42.6843 433.772 -43.5364 434.303 -44.3281 434.836C-44.3892 434.895 -44.4504 434.955 -44.5116 435.014C-44.5711 434.953 -44.6314 434.952 -44.6926 435.012C-45.4231 435.485 -45.8545 436.142 -45.9866 436.985C-45.9866 436.985 -46.0172 437.015 -46.0784 437.075C-46.0784 437.075 -46.0792 437.135 -46.0808 437.256C-46.3964 438.277 -46.9187 438.964 -47.6476 439.316L-48.1063 439.763C-49.0236 440.655 -49.2789 441.678 -48.8721 442.83C-48.6374 443.316 -48.4307 443.651 -48.2522 443.834C-47.9546 444.14 -47.6273 444.476 -47.2702 444.843C-46.9131 445.21 -46.5552 445.517 -46.1965 445.763C-45.7171 446.011 -45.3881 446.226 -45.2095 446.41C-44.7929 446.838 -44.3755 447.206 -43.9573 447.513C-43.5391 447.821 -43.1208 448.128 -42.7026 448.435C-42.5819 448.437 -42.4323 448.53 -42.2538 448.713C-42.0769 449.017 -41.8991 449.261 -41.7206 449.444C-41.4809 449.568 -41.242 449.753 -41.004 449.997C-40.7047 450.182 -40.4659 450.367 -40.2873 450.55C-40.0476 450.674 -39.8691 450.858 -39.7517 451.101C-39.2756 451.59 -38.7077 451.99 -38.0482 452.3C-37.9887 452.362 -37.8986 452.393 -37.7779 452.395C-37.6556 452.276 -37.5936 452.156 -37.592 452.035ZM91.2876 417.881C91.2264 417.94 90.9529 418.087 90.4669 418.322C90.224 418.44 89.8016 418.434 89.1999 418.305C88.9602 418.181 88.7205 418.057 88.4808 417.933C88.2411 417.809 88.032 417.656 87.8535 417.472C86.7773 416.733 85.7928 415.905 84.9001 414.988L78.7404 408.658C78.2048 408.108 77.608 407.617 76.9501 407.186C76.2921 406.754 75.6342 406.323 74.9763 405.892C74.8572 405.769 74.6175 405.646 74.2572 405.52C74.0175 405.396 73.7472 405.302 73.4464 405.237C73.086 405.112 72.7554 405.017 72.4545 404.952C71.7933 404.762 71.1635 404.482 70.5651 404.112C69.9667 403.742 69.4286 403.372 68.9508 403.004C68.235 402.391 67.6101 401.749 67.0761 401.077C66.8413 400.592 66.6057 400.166 66.3693 399.801C66.0734 399.374 65.8378 398.949 65.6625 398.524C65.3699 397.856 65.0467 397.218 64.6929 396.61C64.2795 395.94 63.8968 395.241 63.5446 394.512L60.5463 388.678C59.7246 386.977 58.9954 385.127 58.3588 383.127C57.7817 381.188 57.0252 379.126 56.0894 376.941C55.8546 376.455 55.6207 375.909 55.3875 375.302C54.9775 374.391 54.5972 373.511 54.2467 372.661C53.8978 371.691 53.5481 370.781 53.1976 369.932L50.8242 364.74C50.7084 364.376 50.5621 364.042 50.3852 363.738C50.2083 363.434 50.0314 363.13 49.8545 362.826C49.1534 361.127 48.5119 359.489 47.9299 357.912C47.5826 356.821 47.0536 355.788 46.3427 354.812C45.6318 353.837 44.7986 352.981 43.8431 352.244C43.4248 351.937 43.0066 351.629 42.5884 351.322C42.1718 350.894 41.7849 350.496 41.4278 350.129C41.2493 349.946 41.0393 349.852 40.798 349.849C40.5583 349.725 40.3798 349.542 40.2624 349.299C40.2045 349.117 40.1466 348.935 40.0888 348.753C40.092 348.512 40.0647 348.3 40.0069 348.119C39.5357 347.267 39.2455 346.419 39.1363 345.572C39.0288 344.605 39.0113 343.67 39.0839 342.765C39.0905 342.283 39.2483 341.772 39.5573 341.233C39.6829 340.873 39.7779 340.542 39.8424 340.241C39.968 339.881 40.0332 339.52 40.0381 339.158C40.1059 338.616 40.2934 338.135 40.6008 337.717C41.0306 337.18 41.3718 336.49 41.6246 335.649C41.8163 334.867 42.2774 334.24 43.008 333.767L43.8336 332.964C44.2617 332.547 44.8691 332.253 45.6559 332.083C45.8377 332.025 46.0493 331.998 46.2906 332.001C46.5336 331.884 46.8063 331.797 47.1088 331.741C47.9552 331.632 48.6461 331.852 49.1818 332.403C49.5984 332.831 50.0158 333.198 50.434 333.506C50.9134 333.754 51.392 334.062 51.8697 334.431C52.3491 334.678 52.736 335.076 53.0303 335.623C53.0881 335.805 53.2064 335.988 53.3849 336.171C53.5039 336.293 53.5924 336.445 53.6502 336.627C53.8883 336.872 54.0958 337.146 54.2727 337.45C54.5107 337.695 54.7182 337.969 54.8951 338.273C55.1283 338.88 55.606 339.249 56.3284 339.379C57.5913 339.698 58.8228 340.107 60.0229 340.606C61.2842 341.046 62.5455 341.485 63.8068 341.925L68.3146 343.253C69.5775 343.572 70.9892 344.044 72.5497 344.669C72.8506 344.733 73.1209 344.827 73.3606 344.951C73.6614 345.016 73.9623 345.08 74.2631 345.144C74.7441 345.272 75.2244 345.459 75.7038 345.707C76.2443 345.896 76.7848 346.084 77.3254 346.272C78.7073 346.714 80.0273 347.275 81.2853 347.955C82.5449 348.516 83.8641 349.137 85.2428 349.82C85.3023 349.881 85.3618 349.942 85.4213 350.003C85.4825 349.944 85.5428 349.944 85.6023 350.006C86.0801 350.374 86.5941 350.291 87.1445 349.755C87.2685 349.515 87.4222 349.306 87.6056 349.128C87.8503 348.89 88.0643 348.681 88.2478 348.503C88.9205 347.848 89.6205 347.405 90.3477 347.173C90.713 346.937 91.1973 346.823 91.8007 346.831C92.766 346.844 93.4892 346.914 93.9703 347.042C94.4513 347.169 95.02 347.509 95.6762 348.061C97.0516 348.984 97.789 350.232 97.8884 351.802L97.7843 352.796C97.781 353.037 97.7472 353.309 97.6827 353.609C97.5588 353.849 97.4952 354.09 97.4919 354.331C97.4242 354.873 97.4193 355.235 97.4771 355.417C97.5962 355.539 97.9557 355.725 98.5558 355.975L103.146 357.938C104.886 358.625 106.627 359.313 108.368 360C110.169 360.628 111.971 361.256 113.773 361.884C114.434 362.074 115.034 362.324 115.573 362.633C116.173 362.882 116.742 363.222 117.279 363.652C117.697 363.959 118.055 364.326 118.35 364.752C118.708 365.119 119.034 365.516 119.33 365.943C119.389 366.004 119.537 366.277 119.771 366.763C119.826 367.186 119.881 367.61 119.935 368.033C120.051 368.396 120.136 368.79 120.191 369.213C120.356 370.362 120.703 371.513 121.23 372.667C121.643 373.336 121.662 374.151 121.287 375.111C121.099 375.652 120.701 376.039 120.095 376.272C119.366 376.624 118.642 376.614 117.923 376.242L117.293 375.962C116.514 375.529 115.674 375.216 114.771 375.023C114.11 374.833 113.449 374.643 112.788 374.453C112.128 374.142 111.468 373.892 110.806 373.702C110.626 373.639 110.506 373.577 110.447 373.516C110.328 373.394 110.208 373.332 110.087 373.33C109.669 373.022 109.219 372.805 108.738 372.678C108.259 372.43 107.779 372.242 107.298 372.115C106.038 371.555 104.778 371.055 103.516 370.616C102.257 370.055 100.966 369.525 99.6457 369.024L95.413 367.428C95.1733 367.304 94.9336 367.18 94.6939 367.056C94.3947 366.871 94.0649 366.716 93.7046 366.59L90.1935 365.184C90.0744 365.062 89.8347 364.938 89.4744 364.813C88.6925 364.621 88.0272 364.733 87.4784 365.148C87.0503 365.564 86.6231 365.92 86.1966 366.216C85.7702 366.512 85.3735 366.839 85.0066 367.196C84.0281 368.148 83.1389 369.192 82.339 370.328C81.5391 371.463 80.9491 372.692 80.569 374.015C80.0618 375.818 79.2859 377.407 78.2413 378.781C77.9967 379.019 77.7818 379.287 77.5967 379.587C77.4116 379.886 77.2563 380.216 77.1307 380.576C77.0018 381.178 77.0556 381.661 77.292 382.026C77.5268 382.512 77.7335 382.847 77.912 383.031L78.8866 384.583C79.2421 385.07 79.414 385.736 79.4026 386.581C79.3944 387.184 79.1151 387.754 78.5647 388.29C77.6506 388.941 76.744 389.049 75.8447 388.615C75.605 388.491 75.3653 388.367 75.1256 388.243C74.8859 388.119 74.6165 387.964 74.3173 387.779C74.4297 388.384 74.6967 388.72 75.1182 388.786C75.4786 388.911 75.6258 389.185 75.5597 389.606C75.5564 389.848 75.6151 389.969 75.7358 389.971C76.0961 390.097 76.2739 390.34 76.2689 390.702C76.264 391.064 76.4112 391.338 76.7104 391.523C76.8906 391.586 77.0393 391.739 77.1567 391.982C77.2676 392.707 77.5594 393.435 78.0322 394.166C78.3314 394.351 78.3571 394.683 78.1092 395.163C77.9869 395.282 77.9852 395.402 78.1043 395.525C78.1605 395.827 78.306 396.221 78.5408 396.707C78.7772 397.073 79.0128 397.498 79.2476 397.984C79.484 398.35 79.6898 398.745 79.8651 399.169L81.5465 401.998L81.9036 402.365C82.4392 402.916 82.9137 403.525 83.327 404.195C83.7419 404.744 84.2172 405.293 84.7529 405.844L87.4236 409.139C87.7791 409.626 88.1345 410.114 88.49 410.601C88.9661 411.091 89.4422 411.58 89.9183 412.069C90.2142 412.495 90.4804 412.891 90.7168 413.257C91.0739 413.624 91.3698 414.05 91.6046 414.536C92.0179 415.205 92.1907 415.811 92.123 416.353C92.2355 416.958 91.957 417.467 91.2876 417.881ZM67.0578 369.124L67.1495 369.035C67.6421 368.318 68.1338 367.661 68.6246 367.064C69.1155 366.467 69.6064 365.87 70.0973 365.273C70.4047 364.855 70.7418 364.467 71.1088 364.11C71.4162 363.692 71.7533 363.304 72.1203 362.947L74.0466 361.073C74.1689 360.954 74.2912 360.835 74.4135 360.716C74.4763 360.535 74.5383 360.416 74.5995 360.356C74.7218 360.237 74.6639 360.055 74.4258 359.811C74.0043 359.745 73.6134 359.649 73.253 359.523C72.8927 359.398 72.5323 359.272 72.1719 359.146C70.9718 358.647 69.7684 358.39 68.5617 358.373C68.3815 358.31 68.2311 358.278 68.1104 358.276C67.9303 358.214 67.7501 358.151 67.5699 358.088C67.3897 358.025 67.1789 357.992 66.9376 357.989C66.6979 357.865 66.4574 357.801 66.2161 357.798C65.6722 357.851 65.426 358.21 65.4773 358.874L65.9163 359.876C66.3312 360.425 66.7454 361.034 67.1587 361.703C67.5125 362.311 67.8663 362.92 68.2201 363.528C68.3391 363.65 68.4565 363.893 68.5723 364.257C68.807 364.743 68.7691 365.316 68.4584 365.975C68.2088 366.575 67.6907 366.961 66.9039 367.131L65.9964 367.3C65.9964 367.3 65.9352 367.359 65.8129 367.478C65.9287 367.842 66.0461 368.085 66.1651 368.207C66.2841 368.329 66.4032 368.452 66.5222 368.574C66.7024 368.637 66.7908 368.789 66.7875 369.03C66.7843 369.271 66.8744 369.303 67.0578 369.124ZM187.048 333.083C186.861 333.503 186.587 333.711 186.225 333.706C185.254 334.055 184.32 333.952 183.423 333.396L183.244 333.213C182.647 332.722 182.051 332.231 181.454 331.74C180.857 331.249 180.29 330.789 179.753 330.359C179.634 330.237 179.454 330.114 179.215 329.99C179.096 329.868 178.977 329.745 178.858 329.623C178.618 329.499 178.409 329.345 178.23 329.162C178.052 328.978 177.873 328.795 177.695 328.611C177.219 328.122 176.741 327.754 176.261 327.506C175.782 327.258 175.303 327.01 174.823 326.762C174.463 326.636 174.192 326.603 174.01 326.66C173.468 326.593 172.957 326.435 172.478 326.187C172.058 326 171.577 325.813 171.037 325.624L170.948 325.533C169.809 324.974 169.09 324.602 168.79 324.417C168.432 324.171 167.836 323.62 167.002 322.763L165.842 321.571C165.247 320.959 164.954 320.292 164.964 319.568C164.906 319.386 164.848 319.204 164.79 319.022C164.794 318.781 164.766 318.569 164.709 318.387C164.474 317.901 164.206 317.626 163.905 317.562C163.184 317.311 162.525 317 161.926 316.63C161.268 316.198 160.61 315.767 159.953 315.336L158.971 314.327C158.675 313.9 158.378 313.534 158.08 313.228C157.784 312.802 157.488 312.375 157.192 311.949C156.779 311.28 156.184 310.668 155.407 310.114C154.928 309.866 154.599 309.651 154.42 309.467C154.18 309.343 153.941 309.219 153.701 309.095C153.523 308.912 153.344 308.729 153.165 308.545C152.451 307.811 151.705 307.228 150.926 306.795C150.447 306.547 150.088 306.301 149.85 306.056C148.898 305.078 147.914 304.189 146.899 303.391C145.825 302.531 144.75 301.672 143.676 300.813C143.557 300.69 143.467 300.659 143.405 300.718C143.346 300.657 143.286 300.596 143.227 300.535C142.751 300.046 142.213 299.616 141.615 299.246C140.957 298.814 140.359 298.444 139.82 298.135C139.64 298.072 139.46 297.949 139.282 297.766C139.103 297.582 138.924 297.459 138.744 297.396C138.266 297.028 137.818 296.69 137.4 296.382C137.043 296.016 136.595 295.678 136.056 295.368L135.699 295.002C134.983 294.388 134.235 293.865 133.457 293.432C132.739 292.94 132.022 292.447 131.305 291.955C131.066 291.71 130.798 291.495 130.499 291.31C130.261 291.066 129.992 290.851 129.693 290.666L128.436 289.924C128.136 289.739 127.837 289.554 127.538 289.369C127.24 289.063 126.942 288.818 126.643 288.633C126.165 288.264 125.748 287.896 125.39 287.529C124.974 287.101 124.527 286.703 124.049 286.335C123.571 285.966 123.123 285.628 122.705 285.321C122.348 284.954 121.93 284.646 121.45 284.398C120.913 283.969 120.376 283.539 119.838 283.109C119.303 282.559 118.736 282.098 118.137 281.728C117.002 280.928 115.772 280.399 114.448 280.139C111.619 279.558 109.255 278.108 107.356 275.789C106.824 274.997 106.504 274.117 106.396 273.151C106.338 272.969 106.313 272.636 106.319 272.154C106.212 271.187 106.314 270.313 106.626 269.533C106.94 268.632 107.404 267.824 108.017 267.108C108.878 265.913 109.558 264.715 110.057 263.515C111.232 261.419 112.526 259.445 113.94 257.593C114.862 256.339 115.873 255.176 116.974 254.104L117.891 253.212C118.262 252.613 118.691 252.076 119.181 251.6C119.731 251.064 120.251 250.558 120.74 250.082L121.566 249.279C121.932 248.922 122.119 248.502 122.126 248.019L122.602 246.306C122.666 246.005 122.85 245.826 123.152 245.77C123.455 245.714 123.727 245.627 123.97 245.51C124.274 245.333 124.578 245.216 124.88 245.16C125.305 244.985 125.699 244.839 126.063 244.724C126.426 244.608 126.79 244.492 127.154 244.376C127.395 244.38 127.637 244.323 127.88 244.205C128.123 244.088 128.366 243.97 128.609 243.853L130.709 242.524C131.258 242.109 131.805 241.815 132.35 241.641C132.898 241.347 133.474 241.083 134.081 240.85C134.749 240.557 135.445 240.416 136.169 240.426C136.833 240.374 137.557 240.384 138.341 240.455C139.971 240.417 141.503 240.89 142.938 241.875C143.475 242.305 144.193 242.737 145.093 243.172C145.632 243.481 146.109 243.849 146.526 244.278C146.943 244.706 147.419 245.135 147.957 245.564C147.957 245.564 148.106 245.717 148.403 246.023C148.997 246.755 149.589 247.548 150.181 248.401C150.713 249.192 151.215 250.014 151.686 250.865C152.098 251.655 152.509 252.506 152.919 253.416C153.39 254.268 153.771 255.148 154.06 256.057C154.586 257.331 154.929 258.724 155.089 260.235C155.197 261.202 155.334 262.199 155.501 263.227C155.67 264.135 155.777 265.102 155.824 266.128C155.817 266.611 155.841 267.124 155.893 267.668C155.887 268.151 155.88 268.633 155.874 269.116L155.844 271.288L156.023 271.472C156.142 271.594 156.263 271.595 156.385 271.476L157.761 270.137C158.676 269.365 159.652 268.654 160.686 268.005C161.662 267.294 162.666 266.674 163.699 266.145C163.942 266.027 164.154 265.94 164.336 265.882C164.579 265.765 164.852 265.678 165.154 265.621L166.88 265.192C167.485 265.08 168.059 264.997 168.603 264.944C169.147 264.891 169.718 265.05 170.316 265.42C170.736 265.607 171.187 265.764 171.668 265.891C172.509 266.144 173.35 266.457 174.189 266.83C174.97 267.143 175.78 267.486 176.619 267.859C176.98 267.985 177.31 268.14 177.609 268.325C177.91 268.39 178.21 268.514 178.509 268.7C179.648 269.258 180.787 269.817 181.926 270.375C183.065 270.934 184.172 271.583 185.249 272.321L187.756 274.347C188.235 274.595 188.622 274.992 188.916 275.539C189.212 275.966 189.508 276.392 189.804 276.819C190.04 277.184 190.306 277.58 190.602 278.006C191.193 278.98 191.661 280.012 192.009 281.103C192.182 281.648 192.265 282.223 192.257 282.826C192.414 284.578 192.332 286.146 192.012 287.53C191.822 288.191 191.661 288.883 191.531 289.605C191.462 290.268 191.331 290.99 191.139 291.772C190.758 293.215 190.284 294.808 189.717 296.55C189.53 296.97 189.342 297.45 189.154 297.991C189.027 298.472 188.87 298.923 188.683 299.342C188.121 300.723 187.59 302.073 187.089 303.394C186.588 304.715 186.058 306.005 185.498 307.265C184.876 308.584 184.286 309.873 183.725 311.133C183.165 312.393 182.514 313.681 181.772 314.999C181.587 315.298 181.402 315.597 181.217 315.896C181.093 316.136 180.938 316.405 180.753 316.705C179.831 317.959 179.509 319.403 179.789 321.036C179.782 321.519 179.958 321.944 180.315 322.311C180.492 322.615 180.639 322.888 180.756 323.131C180.994 323.376 181.232 323.621 181.47 323.865C181.588 324.108 181.795 324.383 182.093 324.688L185.217 327.899C185.515 328.205 185.812 328.511 186.11 328.816C186.467 329.183 186.733 329.579 186.909 330.004C187.441 330.796 187.487 331.822 187.048 333.083ZM142.29 282.871C142.411 282.873 142.471 282.874 142.471 282.874C142.412 282.813 142.412 282.752 142.474 282.693C142.475 282.572 142.476 282.512 142.476 282.512C142.537 282.452 142.568 282.422 142.568 282.422C142.933 282.186 143.179 281.827 143.307 281.346C143.374 280.804 143.472 280.292 143.599 279.811C143.728 279.21 143.857 278.608 143.986 278.006C144.179 277.104 144.312 276.2 144.385 275.296C144.459 274.271 144.502 273.276 144.516 272.311C144.476 270.802 144.405 269.322 144.304 267.873C144.144 266.362 143.892 264.88 143.55 263.427C143.32 262.579 143.12 261.762 142.95 260.975C142.72 260.127 142.43 259.278 142.079 258.428C141.611 257.336 140.933 256.21 140.043 255.052C139.57 254.321 139.004 253.8 138.345 253.49C137.685 253.179 137.083 253.111 136.537 253.284C134.96 253.866 133.683 254.633 132.704 255.585C132.092 256.181 131.512 256.746 130.961 257.282C130.411 257.817 129.89 258.383 129.399 258.98C128.97 259.518 128.54 260.055 128.11 260.592C127.68 261.129 127.28 261.697 126.91 262.296C126.601 262.835 126.291 263.434 125.981 264.093C125.672 264.632 125.332 265.201 124.962 265.799C124.468 266.637 124.426 267.452 124.838 268.242C124.894 268.544 125.101 268.879 125.458 269.246L126.886 270.713C127.42 271.385 128.015 271.996 128.672 272.548C129.328 273.1 129.984 273.652 130.641 274.204L130.822 274.207C131.177 274.694 131.594 275.122 132.071 275.491C132.61 275.8 133.148 276.169 133.686 276.599C133.864 276.782 134.105 276.846 134.407 276.79C134.771 276.674 135.04 276.889 135.213 277.434C135.213 277.434 135.212 277.495 135.211 277.615C135.211 277.615 135.271 277.616 135.392 277.618C135.573 277.56 135.723 277.653 135.84 277.896C135.898 278.077 135.987 278.229 136.106 278.352C136.582 278.841 136.94 279.148 137.18 279.272C137.36 279.334 137.539 279.457 137.718 279.641C137.956 279.886 138.254 280.131 138.613 280.377C138.912 280.562 139.211 280.747 139.51 280.933C139.629 281.055 139.72 281.026 139.783 280.846C139.785 280.725 139.847 280.605 139.969 280.486C140.03 280.427 140.15 280.489 140.329 280.672L140.596 280.947C140.707 281.673 141.092 282.191 141.752 282.502L142.109 282.869C142.17 282.809 142.231 282.81 142.29 282.871ZM171.169 309.242C171.353 309.064 171.536 308.885 171.719 308.707C171.903 308.528 172.087 308.289 172.272 307.99C173.195 306.735 174.029 305.268 174.776 303.589L176.747 298.456C177.249 297.015 177.751 295.633 178.251 294.313C178.693 292.931 179.194 291.55 179.756 290.169C180.26 288.607 180.494 286.951 180.457 285.2C180.472 284.114 180.092 283.174 179.319 282.379L178.872 281.92C178.692 281.857 178.572 281.795 178.513 281.734C178.394 281.612 178.244 281.519 178.064 281.457C176.928 280.657 175.76 280.007 174.56 279.508C173.362 278.888 172.133 278.298 170.873 277.738C170.574 277.553 170.274 277.428 169.973 277.364C169.613 277.238 169.252 277.113 168.892 276.987C168.351 276.799 167.898 276.823 167.533 277.059C166.804 277.411 166.195 277.825 165.706 278.301L164.238 279.73C162.528 281.276 160.935 283.004 159.461 284.915C157.987 286.826 156.601 288.889 155.303 291.104L154.929 292.004C154.927 292.125 154.896 292.215 154.835 292.275C154.835 292.275 154.834 292.335 154.832 292.456C154.828 292.818 154.975 293.031 155.276 293.095L155.638 293.1C156 293.105 156.209 293.259 156.266 293.561C156.322 293.864 156.499 294.168 156.796 294.474C157.034 294.718 157.273 294.963 157.511 295.207C157.689 295.391 157.928 295.575 158.227 295.76C158.526 295.945 158.795 296.16 159.033 296.405C159.271 296.65 159.509 296.894 159.747 297.139L160.819 298.24C161.414 298.851 161.982 299.191 162.525 299.258C162.885 299.384 163.184 299.569 163.422 299.814C163.721 299.999 163.99 300.214 164.228 300.458C164.526 300.764 164.761 301.19 164.935 301.735C165.049 302.219 165.375 302.616 165.914 302.925C166.095 302.988 166.305 303.021 166.547 303.024C167.086 303.333 167.352 303.729 167.345 304.212C167.459 304.696 167.666 305.031 167.965 305.216C168.322 305.583 168.559 305.888 168.677 306.131C168.735 306.313 168.792 306.555 168.848 306.857C168.965 307.1 168.992 307.372 168.927 307.673C168.86 308.215 169.003 308.791 169.357 309.399C169.472 309.762 169.619 310.036 169.798 310.219C169.917 310.342 170.161 310.164 170.529 309.686C170.652 309.567 170.773 309.509 170.894 309.51C171.016 309.391 171.108 309.302 171.169 309.242ZM270.068 252.289C269.881 252.709 269.607 252.917 269.245 252.912C268.275 253.261 267.341 253.158 266.443 252.602L266.265 252.419C265.668 251.928 265.071 251.437 264.474 250.946C263.878 250.455 263.311 249.995 262.773 249.565C262.654 249.443 262.475 249.32 262.235 249.196C262.116 249.074 261.997 248.951 261.878 248.829C261.638 248.705 261.429 248.551 261.251 248.368C261.072 248.184 260.894 248.001 260.715 247.817C260.239 247.328 259.761 246.96 259.282 246.712C258.802 246.464 258.323 246.216 257.844 245.968C257.483 245.842 257.212 245.809 257.03 245.866C256.488 245.799 255.977 245.641 255.498 245.393C255.078 245.206 254.598 245.019 254.057 244.83L253.968 244.739C252.829 244.18 252.11 243.808 251.811 243.623C251.452 243.377 250.856 242.826 250.023 241.969L248.862 240.777C248.267 240.165 247.975 239.498 247.985 238.774C247.927 238.592 247.869 238.41 247.811 238.228C247.814 237.987 247.787 237.775 247.729 237.593C247.494 237.107 247.226 236.832 246.926 236.768C246.205 236.517 245.545 236.206 244.947 235.836C244.289 235.404 243.631 234.973 242.973 234.542L241.991 233.533C241.695 233.106 241.398 232.74 241.101 232.434C240.805 232.008 240.509 231.581 240.213 231.155C239.8 230.486 239.205 229.874 238.428 229.32C237.948 229.072 237.619 228.857 237.441 228.673C237.201 228.549 236.961 228.425 236.722 228.301C236.543 228.118 236.364 227.935 236.186 227.751C235.472 227.017 234.725 226.434 233.947 226.001C233.467 225.753 233.109 225.507 232.871 225.262C231.918 224.284 230.935 223.395 229.92 222.597C228.845 221.737 227.771 220.878 226.696 220.019C226.577 219.896 226.487 219.865 226.426 219.924C226.366 219.863 226.307 219.802 226.247 219.741C225.771 219.252 225.234 218.822 224.636 218.452C223.978 218.02 223.379 217.65 222.84 217.341C222.66 217.278 222.481 217.155 222.302 216.972C222.124 216.788 221.944 216.665 221.764 216.602C221.286 216.234 220.838 215.896 220.42 215.588C220.063 215.222 219.615 214.884 219.076 214.574L218.719 214.208C218.003 213.594 217.256 213.071 216.477 212.638C215.76 212.146 215.042 211.653 214.325 211.161C214.087 210.916 213.818 210.701 213.519 210.516C213.281 210.272 213.012 210.057 212.713 209.872L211.456 209.13C211.157 208.945 210.858 208.76 210.558 208.575C210.261 208.269 209.962 208.024 209.663 207.839C209.185 207.47 208.768 207.102 208.411 206.735C207.994 206.307 207.547 205.909 207.069 205.541C206.592 205.172 206.144 204.834 205.725 204.527C205.368 204.16 204.95 203.852 204.471 203.604C203.933 203.175 203.396 202.745 202.859 202.315C202.323 201.765 201.756 201.304 201.158 200.934C200.022 200.134 198.792 199.605 197.468 199.345C194.64 198.764 192.276 197.314 190.376 194.995C189.844 194.203 189.524 193.324 189.417 192.357C189.359 192.175 189.333 191.842 189.34 191.36C189.232 190.393 189.334 189.519 189.647 188.739C189.961 187.838 190.424 187.03 191.038 186.314C191.899 185.119 192.579 183.921 193.078 182.721C194.253 180.625 195.547 178.651 196.96 176.799C197.882 175.545 198.894 174.382 199.995 173.31L200.912 172.418C201.282 171.819 201.712 171.282 202.201 170.806C202.751 170.27 203.271 169.764 203.76 169.288L204.586 168.485C204.953 168.128 205.14 167.708 205.146 167.225L205.622 165.512C205.687 165.211 205.87 165.032 206.172 164.976C206.475 164.92 206.748 164.833 206.991 164.716C207.295 164.539 207.598 164.422 207.901 164.366C208.325 164.191 208.72 164.045 209.083 163.93C209.447 163.814 209.811 163.698 210.174 163.582C210.416 163.586 210.658 163.529 210.901 163.411C211.144 163.294 211.387 163.176 211.63 163.059L213.73 161.73C214.278 161.315 214.825 161.021 215.371 160.847C215.918 160.553 216.495 160.289 217.102 160.056C217.769 159.763 218.465 159.622 219.189 159.632C219.854 159.58 220.578 159.59 221.361 159.661C222.991 159.623 224.523 160.096 225.958 161.081C226.496 161.511 227.214 161.943 228.113 162.378C228.652 162.687 229.13 163.055 229.546 163.484C229.963 163.912 230.44 164.341 230.977 164.77C230.977 164.77 231.126 164.923 231.424 165.229C232.017 165.961 232.61 166.754 233.202 167.607C233.734 168.398 234.236 169.22 234.707 170.071C235.119 170.861 235.529 171.712 235.94 172.622C236.411 173.474 236.791 174.354 237.08 175.263C237.606 176.537 237.949 177.93 238.11 179.441C238.217 180.408 238.355 181.405 238.522 182.433C238.69 183.341 238.798 184.308 238.844 185.334C238.838 185.817 238.861 186.33 238.914 186.874C238.907 187.357 238.901 187.839 238.894 188.322L238.865 190.494L239.043 190.678C239.162 190.8 239.283 190.801 239.405 190.682L240.781 189.343C241.697 188.571 242.672 187.86 243.707 187.211C244.682 186.5 245.686 185.88 246.719 185.351C246.962 185.233 247.175 185.146 247.356 185.088C247.599 184.971 247.872 184.884 248.175 184.827L249.9 184.398C250.505 184.286 251.08 184.203 251.623 184.15C252.167 184.097 252.738 184.256 253.337 184.626C253.757 184.813 254.207 184.97 254.688 185.097C255.53 185.35 256.37 185.663 257.21 186.036C257.99 186.349 258.8 186.692 259.64 187.065C260 187.191 260.33 187.346 260.629 187.531C260.93 187.596 261.23 187.72 261.529 187.906C262.668 188.464 263.807 189.023 264.946 189.581C266.085 190.14 267.193 190.789 268.269 191.527L270.776 193.553C271.255 193.801 271.642 194.198 271.937 194.745C272.232 195.172 272.528 195.598 272.824 196.025C273.061 196.39 273.327 196.786 273.623 197.212C274.213 198.186 274.682 199.218 275.029 200.309C275.203 200.854 275.285 201.429 275.277 202.032C275.434 203.784 275.353 205.352 275.032 206.736C274.842 207.397 274.682 208.089 274.551 208.811C274.482 209.474 274.352 210.196 274.16 210.978C273.778 212.421 273.304 214.014 272.737 215.756C272.55 216.176 272.363 216.656 272.175 217.197C272.047 217.678 271.89 218.129 271.704 218.548C271.142 219.929 270.61 221.279 270.11 222.6C269.609 223.921 269.079 225.211 268.518 226.471C267.897 227.79 267.306 229.079 266.746 230.339C266.186 231.599 265.534 232.887 264.792 234.205C264.607 234.504 264.422 234.803 264.237 235.102C264.113 235.342 263.959 235.611 263.774 235.911C262.851 237.165 262.53 238.609 262.81 240.242C262.803 240.725 262.978 241.15 263.335 241.517C263.512 241.821 263.659 242.094 263.777 242.337C264.015 242.582 264.253 242.827 264.491 243.071C264.608 243.314 264.816 243.589 265.113 243.894L268.238 247.105C268.535 247.411 268.833 247.717 269.131 248.022C269.488 248.389 269.754 248.785 269.929 249.21C270.461 250.002 270.508 251.028 270.068 252.289ZM225.311 202.077C225.431 202.079 225.492 202.08 225.492 202.08C225.432 202.019 225.433 201.958 225.494 201.899C225.496 201.778 225.497 201.718 225.497 201.718C225.558 201.658 225.588 201.628 225.588 201.628C225.954 201.392 226.2 201.033 226.327 200.552C226.395 200.01 226.492 199.498 226.619 199.017C226.748 198.416 226.877 197.814 227.006 197.212C227.199 196.31 227.332 195.406 227.405 194.502C227.479 193.477 227.523 192.482 227.536 191.517C227.496 190.008 227.426 188.528 227.325 187.079C227.164 185.568 226.913 184.086 226.571 182.633C226.341 181.785 226.141 180.968 225.97 180.181C225.74 179.333 225.45 178.484 225.1 177.634C224.632 176.542 223.953 175.416 223.064 174.258C222.591 173.527 222.025 173.006 221.365 172.696C220.706 172.385 220.103 172.317 219.558 172.49C217.981 173.072 216.703 173.839 215.725 174.792C215.113 175.387 214.532 175.952 213.982 176.488C213.431 177.023 212.911 177.589 212.42 178.186C211.99 178.724 211.56 179.261 211.131 179.798C210.701 180.335 210.301 180.903 209.931 181.502C209.622 182.041 209.312 182.64 209.001 183.299C208.692 183.838 208.352 184.407 207.982 185.005C207.488 185.843 207.447 186.658 207.858 187.448C207.915 187.75 208.121 188.085 208.478 188.452L209.907 189.919C210.441 190.591 211.036 191.202 211.692 191.754C212.349 192.306 213.005 192.858 213.661 193.41L213.842 193.413C214.198 193.9 214.614 194.328 215.092 194.697C215.631 195.006 216.169 195.375 216.706 195.805C216.885 195.988 217.125 196.052 217.428 195.996C217.791 195.88 218.06 196.095 218.234 196.64C218.234 196.64 218.233 196.701 218.231 196.821C218.231 196.821 218.291 196.822 218.412 196.824C218.594 196.766 218.744 196.859 218.861 197.102C218.919 197.283 219.007 197.435 219.126 197.558C219.602 198.047 219.96 198.354 220.2 198.478C220.38 198.54 220.56 198.663 220.738 198.847C220.976 199.092 221.275 199.337 221.633 199.583C221.933 199.768 222.232 199.953 222.531 200.139C222.65 200.261 222.741 200.232 222.804 200.052C222.805 199.931 222.867 199.811 222.99 199.692C223.051 199.633 223.171 199.695 223.349 199.878L223.617 200.153C223.728 200.879 224.113 201.397 224.773 201.708L225.13 202.075C225.191 202.015 225.251 202.016 225.311 202.077ZM254.19 228.448C254.373 228.27 254.556 228.091 254.74 227.913C254.923 227.734 255.108 227.495 255.293 227.196C256.215 225.941 257.05 224.474 257.797 222.795L259.767 217.662C260.27 216.221 260.771 214.839 261.272 213.519C261.713 212.137 262.215 210.756 262.776 209.375C263.28 207.813 263.514 206.157 263.478 204.406C263.492 203.32 263.113 202.38 262.339 201.585L261.893 201.126C261.713 201.063 261.593 201.001 261.533 200.94C261.414 200.818 261.265 200.725 261.085 200.663C259.949 199.863 258.781 199.213 257.581 198.714C256.382 198.094 255.153 197.504 253.894 196.944C253.594 196.759 253.294 196.634 252.994 196.57C252.633 196.444 252.273 196.319 251.912 196.193C251.372 196.005 250.919 196.029 250.554 196.265C249.825 196.617 249.216 197.031 248.726 197.507L247.259 198.936C245.548 200.482 243.956 202.21 242.481 204.121C241.007 206.032 239.621 208.095 238.324 210.31L237.95 211.21C237.948 211.331 237.917 211.421 237.855 211.481C237.855 211.481 237.855 211.541 237.853 211.662C237.848 212.024 237.996 212.237 238.297 212.301L238.659 212.306C239.021 212.311 239.23 212.465 239.286 212.767C239.342 213.07 239.519 213.374 239.817 213.68C240.055 213.924 240.293 214.169 240.531 214.413C240.71 214.597 240.948 214.781 241.248 214.966C241.547 215.151 241.816 215.366 242.054 215.611C242.292 215.856 242.53 216.1 242.768 216.345L243.839 217.446C244.434 218.057 245.003 218.397 245.545 218.464C245.905 218.59 246.205 218.775 246.443 219.02C246.742 219.205 247.01 219.42 247.249 219.664C247.546 219.97 247.782 220.396 247.955 220.941C248.069 221.425 248.396 221.822 248.935 222.131C249.115 222.194 249.326 222.227 249.567 222.23C250.106 222.539 250.372 222.935 250.366 223.418C250.48 223.902 250.686 224.237 250.986 224.422C251.343 224.789 251.58 225.094 251.697 225.337C251.755 225.519 251.812 225.761 251.868 226.063C251.986 226.306 252.012 226.578 251.948 226.879C251.88 227.421 252.023 227.997 252.377 228.605C252.493 228.968 252.64 229.242 252.818 229.425C252.938 229.548 253.181 229.37 253.55 228.892C253.672 228.773 253.794 228.715 253.914 228.716C254.037 228.597 254.128 228.508 254.19 228.448ZM342.944 158.685C342.883 158.745 342.761 158.803 342.579 158.861C342.518 158.921 342.426 159.01 342.304 159.129C341.876 159.546 341.392 159.66 340.851 159.471C340.19 159.281 339.588 159.152 339.046 159.085C338.504 159.017 337.931 158.979 337.328 158.971C336.724 158.963 336.122 158.894 335.52 158.765C334.98 158.577 334.439 158.388 333.899 158.2C333.417 158.073 333.028 157.856 332.731 157.551L331.838 156.633C331.54 156.327 331.212 156.051 330.853 155.805C330.496 155.438 330.138 155.132 329.78 154.885C329.181 154.515 328.553 154.114 327.895 153.683C327.298 153.192 326.701 152.762 326.102 152.391C325.983 152.269 325.834 152.177 325.654 152.114C325.475 151.93 325.326 151.777 325.207 151.655C324.491 151.042 323.745 150.459 322.968 149.905C322.132 149.29 321.325 148.706 320.548 148.152C319.174 147.108 317.8 146.123 316.424 145.199C315.05 144.155 313.706 143.141 312.392 142.158L308.896 139.666C308.359 139.236 307.669 138.895 306.828 138.642C305.806 138.327 304.817 137.861 303.86 137.244C303.442 136.937 303.023 136.69 302.603 136.503C302.123 136.255 301.644 136.007 301.164 135.759C300.386 135.326 299.607 134.893 298.829 134.46C298.05 134.027 297.302 133.564 296.585 133.072C296.047 132.642 295.479 132.242 294.881 131.872C294.283 131.502 293.684 131.132 293.086 130.761L290.125 128.82C290.006 128.698 289.886 128.636 289.766 128.634C288.871 127.838 287.916 127.101 286.899 126.423C285.823 125.684 284.776 124.976 283.76 124.298C283.222 123.869 282.565 123.377 281.788 122.823C281.013 122.149 280.448 121.568 280.092 121.08L279.2 120.163C278.489 119.188 277.99 118.125 277.704 116.975C277.36 115.642 277.5 114.196 278.125 112.636C278.312 112.216 278.528 111.826 278.775 111.468C279.021 111.109 279.237 110.78 279.422 110.481C280.035 109.765 280.766 109.232 281.616 108.881C282.406 108.47 283.285 108.15 284.254 107.921C284.556 107.865 284.858 107.869 285.159 107.934C285.64 108.061 286.121 108.188 286.602 108.315C287.144 108.383 287.624 108.571 288.043 108.878C288.522 109.126 289.001 109.374 289.481 109.622C290.021 109.81 290.532 109.968 291.013 110.095C291.914 110.409 292.753 110.843 293.53 111.397C294.307 111.95 295.084 112.504 295.861 113.058C296.937 113.796 297.981 114.686 298.993 115.725L299.439 116.184C300.157 116.676 300.813 117.228 301.408 117.84C301.944 118.39 302.509 118.971 303.104 119.583C304.118 120.502 305.161 121.391 306.236 122.25C307.251 123.049 308.326 123.908 309.46 124.829L314.206 128.605L314.384 128.788C315.161 129.342 315.968 129.926 316.804 130.541C317.643 131.035 318.42 131.589 319.135 132.202C320.331 133.063 321.556 133.954 322.81 134.877C324.067 135.678 325.262 136.539 326.396 137.46L330.696 140.777C331.413 141.27 332.1 141.792 332.756 142.344C333.474 142.836 334.191 143.329 334.909 143.821C335.626 144.314 336.313 144.836 336.969 145.388C337.627 145.82 338.315 146.282 339.032 146.774C339.332 146.959 339.6 147.174 339.838 147.419C340.078 147.543 340.317 147.727 340.555 147.971C341.509 148.829 342.219 149.865 342.685 151.078C342.862 151.382 342.947 151.776 342.941 152.258C343.053 152.863 343.077 153.316 343.013 153.617C343 154.582 343.138 155.459 343.429 156.248C343.489 156.309 343.517 156.46 343.514 156.701C343.572 156.883 343.599 157.095 343.596 157.336C343.589 157.819 343.372 158.268 342.944 158.685ZM415.504 86.1056C414.888 87.0627 414.003 87.805 412.849 88.3324C412.545 88.5093 412.242 88.6259 411.939 88.6822C411.698 88.6789 411.426 88.7053 411.124 88.7616C410.398 88.8724 409.615 88.7411 408.775 88.3676L407.248 87.5322C407.129 87.4099 407.009 87.3479 406.888 87.3463C406.769 87.2239 406.68 87.1322 406.621 87.0711C405.787 86.2149 404.923 85.4488 404.027 84.7729C403.071 84.0357 402.146 83.3292 401.25 82.6532C400.532 82.1607 399.815 81.6682 399.097 81.1756C398.441 80.6236 397.754 80.1013 397.037 79.6088C396.918 79.4865 396.798 79.4246 396.677 79.4229C396.618 79.3618 396.558 79.3006 396.499 79.2394C395.662 78.6246 394.826 78.0098 393.989 77.395C393.153 76.7802 392.346 76.1959 391.569 75.6422C391.151 75.3348 390.732 75.0274 390.314 74.72C389.957 74.3531 389.539 74.0457 389.059 73.7978L384.581 70.2972C383.984 69.8063 383.357 69.3452 382.699 68.9139C382.043 68.3618 381.356 67.8396 380.638 67.3471C379.982 66.795 379.325 66.3033 378.667 65.872C377.95 65.3795 377.262 64.9175 376.604 64.4862L369.336 59.771C368.559 59.2173 367.782 58.6636 367.005 58.11C366.228 57.5563 365.451 57.063 364.672 56.63C363.953 56.2581 363.264 55.8565 362.606 55.4251C361.889 54.9326 361.14 54.5302 360.36 54.2179L359.911 53.9402C358.954 53.3238 357.965 52.7974 356.945 52.3611C355.987 51.8653 354.997 51.3993 353.977 50.963C353.918 50.9018 353.857 50.901 353.796 50.9605C353.737 50.8994 353.707 50.8688 353.707 50.8688C353.228 50.6209 352.895 50.7069 352.708 51.1268C352.706 51.2475 352.644 51.3673 352.522 51.4863C352.337 51.7855 352.181 52.1153 352.056 52.4757C351.991 52.7765 351.896 53.1072 351.771 53.4675C351.338 54.2461 351.086 55.0272 351.015 55.8107L350.234 59.9639C350.046 60.5045 349.948 61.0764 349.939 61.6798C349.992 62.2236 350.045 62.7674 350.098 63.3112C350.153 63.7344 350.329 64.0989 350.626 64.4046L351.958 66.3236C352.492 66.9947 353.056 67.6963 353.649 68.4285C354.243 69.1607 354.836 69.8929 355.43 70.6252C355.964 71.2962 356.438 71.9664 356.851 72.6359C357.266 73.1846 357.771 73.7648 358.366 74.3763C358.842 74.8655 359.256 75.4746 359.608 76.2035C360.08 77.0548 360.038 77.9292 359.482 78.8269C358.991 79.4236 358.354 79.6865 357.571 79.6155C356.967 79.6073 356.307 79.357 355.589 78.8645C355.112 78.4959 354.664 78.1579 354.245 77.8505C353.827 77.5431 353.41 77.1753 352.993 76.7473L350.315 73.9953C349.779 73.4449 349.243 72.9549 348.706 72.5252C348.23 72.0359 347.814 71.5475 347.458 71.0599C346.447 70.0203 345.22 69.2493 343.779 68.747L339.635 67.2424C338.914 66.9912 338.076 66.5574 337.118 65.9409C336.102 65.2633 335.326 64.6493 334.79 64.0989C333.543 62.5733 332.932 60.9055 332.957 59.0955C332.978 57.5268 333.39 56.1143 334.191 54.8579C334.439 54.3785 334.81 53.7801 335.302 53.0626L339.36 47.5057C339.79 46.9684 340.189 46.4609 340.558 45.9832C340.928 45.3847 341.297 44.8466 341.666 44.3689C342.464 43.3539 343.263 42.3388 344.061 41.3238C344.92 40.2493 345.809 39.2053 346.728 38.192C347.219 37.5952 347.71 36.9984 348.201 36.4016C348.692 35.8048 349.183 35.208 349.674 34.6113L350.041 34.2542C350.531 33.6574 351.021 33.1209 351.511 32.6448C352.002 32.0481 352.492 31.4513 352.983 30.8545C353.23 30.4958 353.506 30.1676 353.811 29.87C354.117 29.5725 354.363 29.2741 354.548 28.9749C354.549 28.8542 354.642 28.7046 354.825 28.5261L357.952 24.9478C358.565 24.232 359.147 23.546 359.699 22.8897C360.313 22.1739 360.926 21.458 361.539 20.7422C362.03 20.1455 362.521 19.5487 363.012 18.9519C363.443 18.294 363.815 17.5749 364.127 16.7946C364.439 16.0144 364.93 15.4176 365.6 15.0043C366.271 14.4703 366.97 14.0875 367.697 13.856C367.94 13.7387 368.212 13.7122 368.513 13.7766C368.815 13.7204 369.087 13.6939 369.329 13.6972C369.932 13.7054 370.534 13.8343 371.134 14.0838C371.674 14.2722 372.215 14.4606 372.755 14.6489C373.296 14.8373 373.653 15.2042 373.827 15.7497C373.942 16.1134 374.119 16.4778 374.355 16.8431C374.593 17.0877 374.83 17.3927 375.067 17.758C375.364 18.0637 375.511 18.3976 375.506 18.7596C375.443 18.9398 375.41 19.1506 375.407 19.3919C375.403 19.6332 375.4 19.8746 375.397 20.1159C375.273 20.3556 375.268 20.7176 375.382 21.2019C375.491 22.0483 375.209 22.7987 374.537 23.4534C374.292 23.6915 374.077 23.9601 373.892 24.2593C373.768 24.499 373.614 24.7685 373.429 25.0677C372.997 25.7256 372.809 26.2661 372.863 26.6893C372.855 27.2926 372.668 27.7729 372.301 28.1299C371.992 28.6689 371.536 28.8739 370.935 28.745C370.695 28.6211 370.453 28.6781 370.208 28.9162C370.023 29.2154 369.778 29.5138 369.472 29.8113C369.227 30.0494 368.983 30.2875 368.738 30.5255C368.553 30.8247 368.307 31.1231 368.002 31.4207C367.757 31.6587 367.512 31.9571 367.265 32.3159C367.021 32.5539 366.836 32.7928 366.712 33.0325C366.529 33.211 366.315 33.4193 366.07 33.6574C365.518 34.3137 364.936 34.9997 364.323 35.7155C363.771 36.3718 363.188 37.0579 362.575 37.7737C362.208 38.1308 361.962 38.4292 361.838 38.6689C361.713 39.0292 361.769 39.3317 362.007 39.5763C362.184 39.8805 362.482 40.1863 362.9 40.4937L366.218 42.8017C366.876 43.2331 367.563 43.695 368.281 44.1875C368.939 44.6189 369.626 45.0808 370.344 45.5733L372.583 47.3236C372.821 47.5682 373.059 47.8128 373.297 48.0575C373.537 48.1814 373.806 48.3359 374.105 48.521C374.942 49.1359 375.778 49.7507 376.615 50.3655C377.513 50.9208 378.349 51.5356 379.124 52.21L379.573 52.4876C380.591 53.0446 381.549 53.661 382.445 54.337C383.341 55.013 384.266 55.7195 385.222 56.4567C385.88 56.888 386.567 57.35 387.285 57.8425C387.943 58.2738 388.57 58.735 389.167 59.2258C389.645 59.5944 390.123 59.963 390.6 60.3315C391.019 60.6389 391.467 60.9769 391.944 61.3455L392.391 61.8042C392.928 62.2339 393.465 62.6636 394.002 63.0933C394.541 63.4024 395.079 63.7718 395.617 64.2015L398.57 66.6856C399.048 67.0542 399.526 67.4227 400.003 67.7913C400.481 68.1599 400.989 68.559 401.526 68.9887C401.645 69.111 401.794 69.2639 401.972 69.4474C402.152 69.5102 402.302 69.6027 402.421 69.725C402.719 70.0308 403.076 70.3374 403.495 70.6448C403.853 70.8911 404.242 71.1679 404.66 71.4753C405.437 72.029 406.244 72.6132 407.08 73.228C407.857 73.7817 408.664 74.366 409.5 74.9808C409.978 75.3493 410.487 75.6882 411.025 75.9972C411.505 76.2451 411.983 76.5533 412.461 76.9219C412.82 77.1682 413.301 77.2954 413.904 77.3036C414.327 77.249 414.597 77.4035 414.713 77.7672C414.767 78.1903 414.913 78.5845 415.149 78.9498C415.447 79.2556 415.714 79.5911 415.95 79.9564C416.188 80.201 416.336 80.4143 416.394 80.5961C416.692 80.9018 416.778 81.2349 416.652 81.5953C416.526 81.9556 416.52 82.4383 416.632 83.0433C416.624 83.6466 416.588 84.0987 416.523 84.3996C416.518 84.7616 416.363 85.0914 416.057 85.389C415.876 85.4468 415.691 85.6857 415.504 86.1056Z" fill="#007F5A"/>
</svg>
