<svg width="338" height="578" viewBox="0 0 338 578" fill="none" xmlns="http://www.w3.org/2000/svg">
<path d="M122.94 516.188H127.293L130.987 525.194H131.157L134.85 516.188H139.204V530.733H135.781V521.799H135.66L132.166 530.641H129.978L126.484 521.749H126.363V530.733H122.94V516.188ZM146.496 530.939C145.355 530.939 144.37 530.714 143.542 530.265C142.718 529.81 142.083 529.164 141.638 528.326C141.198 527.483 140.978 526.481 140.978 525.321C140.978 524.194 141.2 523.21 141.645 522.367C142.09 521.519 142.718 520.861 143.527 520.392C144.337 519.919 145.291 519.682 146.39 519.682C147.166 519.682 147.876 519.803 148.52 520.044C149.164 520.286 149.721 520.643 150.189 521.117C150.658 521.59 151.023 522.175 151.283 522.871C151.544 523.562 151.674 524.355 151.674 525.25V526.117H142.192V524.1H148.442C148.437 523.73 148.35 523.401 148.179 523.113C148.009 522.824 147.775 522.599 147.476 522.438C147.183 522.272 146.844 522.189 146.461 522.189C146.072 522.189 145.724 522.277 145.417 522.452C145.109 522.622 144.865 522.857 144.685 523.155C144.505 523.449 144.41 523.783 144.401 524.157V526.209C144.401 526.654 144.489 527.045 144.664 527.381C144.839 527.712 145.088 527.97 145.41 528.155C145.732 528.34 146.115 528.432 146.56 528.432C146.868 528.432 147.147 528.39 147.398 528.304C147.649 528.219 147.865 528.094 148.044 527.928C148.224 527.762 148.359 527.559 148.449 527.317L151.638 527.409C151.506 528.124 151.214 528.747 150.765 529.277C150.32 529.803 149.735 530.212 149.01 530.506C148.286 530.795 147.448 530.939 146.496 530.939ZM157.432 530.89C156.627 530.89 155.895 530.681 155.237 530.265C154.579 529.848 154.054 529.223 153.661 528.39C153.268 527.556 153.071 526.522 153.071 525.286C153.071 524.003 153.275 522.947 153.682 522.118C154.089 521.29 154.622 520.676 155.28 520.279C155.943 519.881 156.655 519.682 157.418 519.682C157.991 519.682 158.481 519.782 158.888 519.98C159.295 520.175 159.631 520.426 159.896 520.733C160.162 521.041 160.363 521.361 160.5 521.692H160.571V516.188H164.044V530.733H160.607V528.965H160.5C160.353 529.301 160.145 529.616 159.875 529.909C159.605 530.203 159.267 530.44 158.859 530.62C158.457 530.8 157.981 530.89 157.432 530.89ZM158.639 528.184C159.061 528.184 159.421 528.065 159.719 527.828C160.017 527.587 160.247 527.248 160.408 526.813C160.569 526.377 160.649 525.866 160.649 525.279C160.649 524.682 160.569 524.168 160.408 523.738C160.252 523.307 160.022 522.975 159.719 522.743C159.421 522.511 159.061 522.395 158.639 522.395C158.208 522.395 157.844 522.514 157.546 522.75C157.247 522.987 157.02 523.321 156.864 523.752C156.712 524.183 156.636 524.692 156.636 525.279C156.636 525.866 156.715 526.377 156.871 526.813C157.027 527.248 157.252 527.587 157.546 527.828C157.844 528.065 158.208 528.184 158.639 528.184ZM166.241 530.733V519.824H169.714V530.733H166.241ZM167.981 518.553C167.493 518.553 167.074 518.392 166.723 518.07C166.373 517.743 166.198 517.35 166.198 516.891C166.198 516.436 166.373 516.048 166.723 515.726C167.074 515.399 167.493 515.236 167.981 515.236C168.473 515.236 168.892 515.399 169.238 515.726C169.588 516.048 169.763 516.436 169.763 516.891C169.763 517.35 169.588 517.743 169.238 518.07C168.892 518.392 168.473 518.553 167.981 518.553ZM174.999 530.918C174.303 530.918 173.685 530.802 173.146 530.57C172.611 530.333 172.187 529.978 171.874 529.505C171.567 529.026 171.413 528.427 171.413 527.708C171.413 527.102 171.519 526.59 171.732 526.174C171.945 525.757 172.239 525.418 172.613 525.158C172.987 524.898 173.418 524.701 173.906 524.569C174.393 524.431 174.914 524.339 175.468 524.292C176.088 524.235 176.588 524.176 176.967 524.114C177.345 524.048 177.62 523.955 177.791 523.837C177.966 523.714 178.053 523.541 178.053 523.319V523.283C178.053 522.918 177.928 522.637 177.677 522.438C177.426 522.239 177.087 522.14 176.661 522.14C176.202 522.14 175.833 522.239 175.553 522.438C175.274 522.637 175.096 522.911 175.021 523.262L171.818 523.148C171.912 522.485 172.156 521.893 172.549 521.372C172.947 520.847 173.491 520.435 174.183 520.137C174.879 519.834 175.714 519.682 176.69 519.682C177.386 519.682 178.027 519.765 178.614 519.931C179.202 520.092 179.713 520.328 180.149 520.641C180.584 520.949 180.92 521.327 181.157 521.777C181.399 522.227 181.519 522.741 181.519 523.319V530.733H178.252V529.213H178.167C177.973 529.583 177.724 529.895 177.421 530.151C177.123 530.407 176.77 530.598 176.363 530.726C175.961 530.854 175.506 530.918 174.999 530.918ZM176.072 528.645C176.446 528.645 176.782 528.569 177.08 528.418C177.383 528.266 177.625 528.058 177.805 527.793C177.985 527.523 178.075 527.211 178.075 526.855V525.819C177.975 525.871 177.854 525.918 177.712 525.961C177.575 526.003 177.424 526.043 177.258 526.081C177.092 526.119 176.922 526.152 176.747 526.181C176.571 526.209 176.403 526.235 176.242 526.259C175.916 526.311 175.636 526.391 175.404 526.5C175.177 526.609 175.002 526.751 174.879 526.926C174.76 527.097 174.701 527.301 174.701 527.537C174.701 527.897 174.829 528.172 175.085 528.361C175.345 528.551 175.674 528.645 176.072 528.645ZM184.211 530.733V519.824H185.44V521.5H185.532C185.75 520.951 186.129 520.508 186.668 520.172C187.213 519.831 187.828 519.661 188.515 519.661C188.619 519.661 188.735 519.663 188.863 519.668C188.991 519.673 189.097 519.677 189.183 519.682V520.968C189.126 520.958 189.026 520.944 188.884 520.925C188.742 520.906 188.588 520.897 188.423 520.897C187.854 520.897 187.348 521.017 186.903 521.259C186.462 521.496 186.114 521.825 185.859 522.246C185.603 522.667 185.475 523.148 185.475 523.688V530.733H184.211ZM126.555 554.982C125.897 554.982 125.295 554.854 124.751 554.598C124.206 554.338 123.773 553.964 123.451 553.476C123.129 552.984 122.968 552.387 122.968 551.686C122.968 551.147 123.07 550.692 123.274 550.323C123.477 549.953 123.766 549.65 124.14 549.414C124.514 549.177 124.957 548.99 125.468 548.853C125.979 548.715 126.543 548.609 127.158 548.533C127.769 548.457 128.285 548.391 128.707 548.334C129.133 548.277 129.457 548.187 129.68 548.064C129.902 547.941 130.014 547.742 130.014 547.468V547.212C130.014 546.469 129.791 545.884 129.346 545.458C128.906 545.027 128.271 544.811 127.443 544.811C126.657 544.811 126.015 544.984 125.518 545.33C125.025 545.676 124.68 546.083 124.481 546.551L123.281 546.118C123.527 545.522 123.868 545.046 124.303 544.691C124.739 544.331 125.227 544.073 125.766 543.917C126.306 543.756 126.853 543.675 127.407 543.675C127.824 543.675 128.257 543.729 128.707 543.838C129.161 543.947 129.583 544.137 129.971 544.407C130.359 544.672 130.674 545.043 130.916 545.522C131.157 545.995 131.278 546.596 131.278 547.326V554.733H130.014V553.007H129.935C129.784 553.329 129.559 553.642 129.261 553.945C128.962 554.248 128.588 554.497 128.139 554.691C127.689 554.885 127.161 554.982 126.555 554.982ZM126.725 553.824C127.398 553.824 127.98 553.675 128.472 553.377C128.965 553.078 129.344 552.683 129.609 552.191C129.879 551.694 130.014 551.147 130.014 550.55V548.973C129.919 549.063 129.76 549.144 129.538 549.215C129.32 549.286 129.067 549.35 128.778 549.407C128.494 549.459 128.21 549.504 127.926 549.542C127.641 549.579 127.386 549.613 127.158 549.641C126.543 549.717 126.017 549.835 125.582 549.996C125.146 550.157 124.812 550.38 124.58 550.664C124.348 550.943 124.232 551.303 124.232 551.743C124.232 552.406 124.469 552.92 124.943 553.284C125.416 553.644 126.01 553.824 126.725 553.824ZM134.903 554.733V540.188H136.175V545.905H136.288C136.43 545.578 136.634 545.242 136.899 544.897C137.169 544.551 137.522 544.262 137.957 544.03C138.398 543.793 138.952 543.675 139.619 543.675C140.514 543.675 141.3 543.912 141.977 544.385C142.654 544.854 143.182 545.512 143.561 546.36C143.94 547.202 144.129 548.185 144.129 549.307C144.129 550.434 143.94 551.421 143.561 552.269C143.187 553.116 142.662 553.777 141.984 554.25C141.312 554.724 140.531 554.961 139.641 554.961C138.978 554.961 138.424 554.842 137.979 554.605C137.538 554.369 137.183 554.077 136.913 553.732C136.644 553.381 136.435 553.041 136.288 552.709H136.132V554.733H134.903ZM136.153 549.286C136.153 550.167 136.284 550.948 136.544 551.63C136.809 552.307 137.188 552.839 137.68 553.228C138.178 553.611 138.779 553.803 139.484 553.803C140.209 553.803 140.822 553.604 141.324 553.206C141.826 552.804 142.207 552.262 142.467 551.58C142.728 550.898 142.858 550.133 142.858 549.286C142.858 548.448 142.728 547.693 142.467 547.02C142.212 546.348 141.833 545.815 141.331 545.422C140.829 545.024 140.214 544.826 139.484 544.826C138.774 544.826 138.171 545.017 137.673 545.401C137.181 545.78 136.805 546.305 136.544 546.978C136.284 547.645 136.153 548.415 136.153 549.286ZM147.169 554.733V540.188H148.44V545.905H148.554C148.696 545.578 148.9 545.242 149.165 544.897C149.435 544.551 149.787 544.262 150.223 544.03C150.663 543.793 151.217 543.675 151.885 543.675C152.78 543.675 153.566 543.912 154.243 544.385C154.92 544.854 155.448 545.512 155.827 546.36C156.206 547.202 156.395 548.185 156.395 549.307C156.395 550.434 156.206 551.421 155.827 552.269C155.453 553.116 154.927 553.777 154.25 554.25C153.578 554.724 152.796 554.961 151.906 554.961C151.243 554.961 150.689 554.842 150.244 554.605C149.804 554.369 149.449 554.077 149.179 553.732C148.909 553.381 148.701 553.041 148.554 552.709H148.398V554.733H147.169ZM148.419 549.286C148.419 550.167 148.549 550.948 148.81 551.63C149.075 552.307 149.454 552.839 149.946 553.228C150.443 553.611 151.045 553.803 151.75 553.803C152.475 553.803 153.088 553.604 153.59 553.206C154.091 552.804 154.473 552.262 154.733 551.58C154.993 550.898 155.124 550.133 155.124 549.286C155.124 548.448 154.993 547.693 154.733 547.02C154.477 546.348 154.099 545.815 153.597 545.422C153.095 545.024 152.479 544.826 151.75 544.826C151.04 544.826 150.436 545.017 149.939 545.401C149.447 545.78 149.07 546.305 148.81 546.978C148.549 547.645 148.419 548.415 148.419 549.286ZM159.186 554.733V543.824H160.457V554.733H159.186ZM159.832 541.949C159.572 541.949 159.35 541.862 159.165 541.686C158.98 541.506 158.888 541.291 158.888 541.04C158.888 540.789 158.98 540.576 159.165 540.401C159.35 540.221 159.572 540.131 159.832 540.131C160.093 540.131 160.315 540.221 160.5 540.401C160.685 540.576 160.777 540.789 160.777 541.04C160.777 541.291 160.685 541.506 160.5 541.686C160.315 541.862 160.093 541.949 159.832 541.949ZM168.098 543.824V544.925H162.892V543.824H168.098ZM164.518 541.211H165.79V551.885C165.79 552.34 165.868 552.697 166.024 552.958C166.18 553.213 166.384 553.396 166.635 553.505C166.886 553.609 167.153 553.661 167.437 553.661C167.603 553.661 167.745 553.651 167.863 553.632C167.982 553.609 168.086 553.585 168.176 553.561L168.446 554.705C168.323 554.752 168.171 554.795 167.991 554.833C167.811 554.875 167.589 554.897 167.324 554.897C166.86 554.897 166.412 554.795 165.981 554.591C165.555 554.388 165.205 554.085 164.93 553.682C164.656 553.28 164.518 552.78 164.518 552.184V541.211Z" fill="white"/>
<g clip-path="url(#clip0_353_1992)">
<path d="M154.352 130.14L168.511 114.427L168.724 137.073L154.352 130.14Z" fill="#0C6763"/>
<path d="M154.352 130.14L159.117 113.334L168.511 114.427L154.352 130.14Z" fill="#6B826E"/>
<path d="M168.724 136.97L141.156 206.902L168.357 236.134L168.724 136.97Z" fill="#8A9192"/>
<path d="M154.351 130.14L152.808 148.174L168.723 137.073L154.351 130.14Z" fill="#407870"/>
<path d="M152.808 148.174L168.724 137.073L141.156 206.902L152.808 148.174Z" fill="#6F8487"/>
<path d="M142.397 129.239L143.639 128.062L145.568 126.21L159.104 113.346L154.339 130.152L142.397 129.239Z" fill="#1F7262"/>
<path d="M142.281 52.7986L142.127 129.496L159.116 113.334L142.281 52.7986Z" fill="#4B595D"/>
<path d="M121.704 25.4575L142.282 52.7986L142.397 129.239L140.88 123.65L140.725 123.091L140.565 122.261L140.288 120.839L138.886 113.629L137.131 104.619L134.591 91.5752L132.867 82.7445L129.041 63.115L121.704 25.4575Z" fill="#25677A"/>
<path d="M112.071 17.8682L121.704 25.4576L140.79 123.406L112.071 17.8682Z" fill="#407870"/>
<path d="M112.913 20.9038L142.397 129.239L129.619 107.841L112.913 20.9038Z" fill="#6B8688"/>
<path d="M154.351 130.14L141.535 141.697L151.4 147.434L152.808 148.174L154.248 131.31L154.351 130.14Z" fill="#517680"/>
<path d="M154.351 130.14L118.103 162.838L142.397 129.239L154.351 130.14Z" fill="#417870"/>
<path d="M129.62 107.841L118.103 162.838L142.397 129.239L129.62 107.841Z" fill="#1C7460"/>
<path d="M129.62 107.841L115.833 125.805L118.103 162.838L129.62 107.841Z" fill="#3E776E"/>
<path d="M112.071 17.8682L111.813 18.7622L111.614 19.5983L110.984 22.2803L110.225 25.4768L108.984 30.7122L106.656 40.5399L104.123 51.2486L101.409 62.697L100.264 67.5143L98.3866 75.4575L95.4736 87.832L129.619 107.841L118.72 51.1457L115.434 34.0374L114.669 30.0305L113.588 24.4221L112.894 20.8846L112.071 17.8682Z" fill="#1E2B4D"/>
<path d="M102.914 0.32251L112.071 17.8681L121.704 25.4575L102.914 0.32251Z" fill="#12172A"/>
<path d="M95.6348 0.952731L102.882 0.328857L112.071 17.8681L111.814 18.7814L111.306 18.2218L109.145 15.8421L106.605 13.0507L95.6348 0.952731Z" fill="#48555F"/>
<path d="M95.6344 0.952881L95.4736 87.7806L111.813 18.7815L95.6344 0.952881Z" fill="#141A2F"/>
<path d="M115.833 125.805L129.62 107.841L126.925 106.259L120.495 102.528C117.492 100.734 114.56 99.0811 111.556 97.2866C109.37 96.0003 107.055 94.6175 104.83 93.3118C102.445 91.884 100.13 90.5269 97.7567 89.0991C97.1522 88.7389 96.1041 88.1922 95.4932 87.8127C102.284 100.245 109.029 113.392 115.833 125.805Z" fill="#171B33"/>
<path d="M118.103 162.838L140.635 159.384L141.535 141.697L118.103 162.838Z" fill="#547782"/>
<path d="M141.535 141.698L152.808 148.174L140.635 159.385L141.535 141.698Z" fill="#678076"/>
<path d="M140.635 159.384L152.808 148.174L141.156 206.902L140.635 159.384Z" fill="#0C6763"/>
<path d="M125.658 173.759L140.635 159.385L118.103 162.838L125.658 173.759Z" fill="#7D8A8B"/>
<path d="M118.103 162.838L121.343 182.5L125.658 173.759L118.103 162.838Z" fill="#6A816C"/>
<path d="M125.658 173.759L132.912 188.604L127.703 185.176L125.658 173.759Z" fill="#10675D"/>
<path d="M121.344 182.5L127.703 185.176L125.659 173.759L121.344 182.5Z" fill="#2B6370"/>
<path d="M132.912 188.604L140.635 159.385L125.658 173.759L132.912 188.604Z" fill="#6B8584"/>
<path d="M140.635 159.385L132.912 188.604L141.021 194.701L140.635 159.385Z" fill="#48595C"/>
<path d="M129.651 206.272L141.02 194.701L132.912 188.604L129.651 206.272Z" fill="#6A8685"/>
<path d="M129.651 206.272L141.155 206.902L141.02 194.701L129.651 206.272Z" fill="#1A1C37"/>
<path d="M129.651 206.271L158.003 238.861L141.155 206.902L129.651 206.271Z" fill="#44766E"/>
<path d="M141.156 206.902L141.188 206.966L158.004 238.861L168.357 236.134L141.156 206.902Z" fill="#67836A"/>
<path d="M168.942 266.118L149.901 265.649L151.239 260.986L168.942 266.118Z" fill="#899293"/>
<path d="M187.121 265.649L172.324 275.734L169.18 276.505L165.83 275.682L149.901 265.649L168.942 266.118L187.121 265.649Z" fill="#141A2F"/>
<path d="M165.83 275.682L169.18 276.473L172.325 275.734L175.431 284.101L167.618 285.574L161.599 284.101L165.83 275.682Z" fill="#6B8684"/>
<path d="M160.82 289.613L167.617 285.574L161.598 284.101L160.82 289.613Z" fill="#889392"/>
<path d="M160.82 289.613L167.617 285.574L176.202 289.613L168.363 291.356L160.82 289.613Z" fill="#191C37"/>
<path d="M160.801 289.613L161.579 284.101L139.928 285.825L160.801 289.613Z" fill="#47585C"/>
<path d="M145.664 280.12L161.579 284.101L165.83 275.689L145.664 280.12Z" fill="#577384"/>
<path d="M139.928 285.825C139.966 285.825 145.664 280.12 145.664 280.12L161.579 284.101L160.66 284.159L139.928 285.825Z" fill="#547680"/>
<path d="M139.928 285.825L140.86 284.944L145.664 280.12L124.688 267.932L139.928 285.825Z" fill="#1A2C4B"/>
<path d="M149.902 265.649L145.664 280.12L146.783 279.914L165.83 275.682L149.902 265.649Z" fill="#879092"/>
<path d="M145.663 280.12L147.149 275.271L151.239 260.986L136.577 252.921L145.663 280.12Z" fill="#557780"/>
<path d="M123.421 245.389L136.578 252.927L145.664 280.12L123.421 245.389Z" fill="#1E2B4E"/>
<path d="M105.37 256.702L123.42 245.389L145.663 280.12L105.37 256.702Z" fill="#171E36"/>
<path d="M99.6406 240.154L105.37 256.702L123.421 245.389L99.6406 240.154Z" fill="#1D2C4D"/>
<path d="M132.025 225.592L123.421 245.389L136.578 252.927L132.025 225.592Z" fill="#226570"/>
<path d="M132.024 225.592L146.184 252.927H136.577L132.024 225.592Z" fill="#899293"/>
<path d="M151.239 260.986L146.184 252.927L136.577 252.921L151.239 260.986Z" fill="#4A5357"/>
<path d="M151.239 260.986L154.39 258.169L146.185 252.927L151.239 260.986Z" fill="#56777D"/>
<path d="M154.39 258.169L151.599 251.19L146.185 252.927L154.39 258.169Z" fill="#8A9392"/>
<path d="M151.239 260.986L154.39 258.169L168.942 266.118L151.239 260.986Z" fill="#1F2D4D"/>
<path d="M168.942 266.118L151.599 251.19L154.389 258.169L168.942 266.118Z" fill="#1D745E"/>
<path d="M151.516 241.401L168.942 266.118L151.599 251.19L151.516 241.401Z" fill="#467971"/>
<path d="M158.004 238.861L168.942 266.118L151.516 241.395L158.004 238.861Z" fill="#246373"/>
<path d="M168.357 236.134L168.942 266.118L158.004 238.861L168.357 236.134Z" fill="#6A8687"/>
<path d="M132.024 225.592L151.387 241.298L151.515 241.401L151.599 251.19L146.184 252.927L132.024 225.592Z" fill="#6C8684"/>
<path d="M129.651 206.271L132.024 225.592L151.515 241.401L129.651 206.271Z" fill="#899291"/>
<path d="M151.515 241.401L158.003 238.861L129.651 206.271L151.515 241.401Z" fill="#6C8587"/>
<path d="M99.6406 240.154L129.652 206.271L123.421 245.389L99.6406 240.154Z" fill="#407A7A"/>
<path d="M129.639 206.188L123.421 245.389L132.025 225.592L129.639 206.188Z" fill="#69846B"/>
<path d="M99.6406 240.154L112.116 187.092L129.652 206.272L99.6406 240.154Z" fill="#49595C"/>
<path d="M121.344 182.5L127.703 185.176L129.652 206.272L121.344 182.5Z" fill="#6A8270"/>
<path d="M127.703 185.176L132.912 188.604L129.652 206.271L127.703 185.176Z" fill="#3A796D"/>
<path d="M118.103 162.838L121.344 182.5L129.652 206.272L112.116 187.092L118.103 162.838Z" fill="#286674"/>
<path d="M164.434 290.449L168.363 291.356L172.163 290.514L173.957 297.158L168.157 295.833L162.286 296.945L164.434 290.449Z" fill="#141A2F"/>
<path d="M168.157 295.833L139.04 368.408L168.337 397.17L168.157 295.833Z" fill="#8A9192"/>
<path d="M168.158 295.833L161.721 312.118L155.033 300.039L161.946 298.212L162.358 296.933L168.158 295.833Z" fill="#537780"/>
<path d="M164.434 290.449L161.945 298.213L144.705 286.693L153.959 288.372L157.29 288.977L160.82 289.613L161.926 289.871L164.434 290.449Z" fill="#828E91"/>
<path d="M161.945 298.213L153.489 300.489L144.705 286.693L161.945 298.213Z" fill="#6B8585"/>
<path d="M144.705 286.693L130.365 350.174L151.676 324.319L144.705 286.693Z" fill="#1C7561"/>
<path d="M153.052 300.657L149.689 301.544L144.705 286.693L153.489 300.489L153.052 300.657Z" fill="#899293"/>
<path d="M144.705 286.616L149.689 301.544L147.271 302.162L144.705 286.616Z" fill="#1E2B4D"/>
<path d="M161.721 312.118L155.438 328.036L147.271 302.161L161.721 312.118Z" fill="#3B7A6E"/>
<path d="M161.721 312.118L155.033 300.039L147.271 302.162L161.721 312.118Z" fill="#68816C"/>
<path d="M147.271 302.161L155.438 328.036L153.432 333.124L147.271 302.161Z" fill="#6C8587"/>
<path d="M137.625 318.131L123.105 345.974L130.983 347.794L137.625 318.131Z" fill="#48585A"/>
<path d="M139.041 368.408L128.938 350.92L150.802 339.781L139.041 368.408Z" fill="#68816C"/>
<path d="M153.432 333.124L150.801 339.78L141.535 336.237L153.432 333.124Z" fill="#6B8585"/>
<path d="M141.535 336.237L130.365 350.174L150.801 339.78L141.535 336.237Z" fill="#0C6763"/>
<path d="M130.976 347.794L123.105 349.434L128.938 350.92C128.938 350.92 130.333 350.206 130.365 350.206C130.398 350.206 130.976 347.82 130.976 347.794Z" fill="#10675D"/>
<path d="M130.983 347.794L123.105 349.434V345.974L130.983 347.794Z" fill="#68816C"/>
<path d="M123.903 425.579C124.025 424.788 154.505 407.68 154.505 407.68L132.539 390.726L122.173 383.13L123.903 425.579Z" fill="#1E2B4D"/>
<path d="M122.173 383.13C122.141 383.188 121.968 383.426 121.608 383.921C118.675 387.954 108.785 407.718 108.785 407.718L123.903 425.579L122.173 383.13Z" fill="#828E91"/>
<path d="M108.785 407.744L122.173 383.13L120.977 384.146L109.274 396.804L108.785 407.744Z" fill="#47585C"/>
<path d="M109.273 396.804L122.173 383.13L111.621 389.581L109.273 396.804Z" fill="#246373"/>
<path d="M108.785 407.744L123.871 425.579L117.08 427.161L108.785 407.744Z" fill="#202B4F"/>
<path d="M113.395 418.543L98.3867 431.831L117.08 427.161L113.395 418.543Z" fill="#4C5859"/>
<path d="M98.3868 431.831L113.396 418.543L96.7471 427.296L94.9658 431.773L98.3868 431.831Z" fill="#68816C"/>
<path d="M123.106 349.434L122.906 381.844L158.808 404.432L123.106 349.434Z" fill="#68816C"/>
<path d="M136.275 371.174L139.04 368.408L123.105 349.434L136.275 371.174Z" fill="#4B595D"/>
<path d="M139.04 368.408L128.938 350.92L123.105 349.434L139.04 368.408Z" fill="#49595C"/>
<path d="M150.718 392.758L145.535 374.782L139.04 368.408L136.275 371.173L150.718 392.758Z" fill="#8A9192"/>
<path d="M168.338 397.17L158.808 404.432L145.535 374.782L168.338 397.17Z" fill="#24646F"/>
<path d="M158.808 404.432L145.535 374.782L150.718 392.758L158.808 404.432Z" fill="#6B8585"/>
<path d="M154.473 407.68L158.808 404.432L132.539 390.732L154.473 407.68Z" fill="#6B8585"/>
<path d="M158.808 404.432L132.539 390.732L133.549 388.539L158.808 404.432Z" fill="#1C7561"/>
<path d="M122.893 381.844L132.539 390.732L122.173 383.13L122.893 381.844Z" fill="#1C7561"/>
<path d="M133.549 388.539L132.539 390.732L122.906 381.844L133.549 388.539Z" fill="#6B8585"/>
<path d="M168.338 418.671L162.197 419.064L154.474 407.68L168.338 418.671Z" fill="#1C7561"/>
<path d="M168.338 397.17L154.429 407.641L168.338 418.671V397.17Z" fill="#1E2B4D"/>
<path d="M151.676 324.319L141.535 336.237L153.432 333.124L151.676 324.319Z" fill="#171E36"/>
<path d="M139.928 285.825L144.706 286.693L137.626 318.131L139.928 285.825Z" fill="#6A8687"/>
<path d="M133.272 315.687L137.626 318.131L139.928 285.825L133.272 315.687Z" fill="#4C5859"/>
<path d="M139.927 285.825L133.272 315.687L121.118 307.808L139.927 285.825Z" fill="#246373"/>
<path d="M111.138 318.131L119.896 337.098L100.798 345.061L111.138 318.131Z" fill="#1C7460"/>
<path d="M116.115 310.709L116.353 329.58L133.272 315.687L116.115 310.709Z" fill="#171E36"/>
<path d="M116.115 310.709L133.272 315.687L121.118 307.809L116.115 310.709Z" fill="#4C5859"/>
<path d="M116.354 329.58L119.897 337.098L133.272 315.687L116.354 329.58Z" fill="#3B797A"/>
<path d="M116.116 310.709L111.139 318.131L116.354 329.58L116.116 310.709Z" fill="#8A9192"/>
<path d="M100.799 345.061L99.6475 354.644L119.897 337.098L100.799 345.061Z" fill="#67836A"/>
<path d="M182.678 130.133L168.511 114.427L168.306 137.073L182.678 130.133Z" fill="#547782"/>
<path d="M182.677 130.133L177.906 113.334L168.511 114.427L182.677 130.133Z" fill="#6B826E"/>
<path d="M168.306 136.97L195.867 206.902L168.357 236.134L168.306 136.97Z" fill="#6B8585"/>
<path d="M182.678 130.133L184.221 148.174L168.306 137.073L182.678 130.133Z" fill="#407870"/>
<path d="M184.221 148.174L168.306 137.073L195.867 206.902L184.221 148.174Z" fill="#286674"/>
<path d="M194.638 129.239L193.404 128.062L191.475 126.21L177.938 113.346C179.529 118.946 181.119 124.546 182.71 130.146L194.638 129.239Z" fill="#1F7262"/>
<path d="M194.741 52.7986L194.896 129.496L177.906 113.334L194.741 52.7986Z" fill="#1C7460"/>
<path d="M215.318 25.4575L194.741 52.7986L194.625 129.239L196.143 123.65L196.297 123.091L196.458 122.261L196.734 120.839L198.136 113.629L199.898 104.619L202.438 91.5752L204.155 82.7381L207.981 63.1086L215.318 25.4575Z" fill="#4B595D"/>
<path d="M224.952 17.8618L215.319 25.4576L196.233 123.406L224.952 17.8618Z" fill="#407870"/>
<path d="M224.115 20.9038L194.625 129.239L207.402 107.841L224.115 20.9038Z" fill="#6B8688"/>
<path d="M182.678 130.133L195.487 141.697L185.623 147.435L184.221 148.174L182.774 131.31L182.678 130.133Z" fill="#517680"/>
<path d="M182.678 130.133L218.926 162.838L194.626 129.239L182.678 130.133Z" fill="#417870"/>
<path d="M207.402 107.841L218.926 162.838L194.625 129.239L207.402 107.841Z" fill="#1C7460"/>
<path d="M207.402 107.841L221.189 125.805L218.926 162.838L207.402 107.841Z" fill="#3E776E"/>
<path d="M224.951 17.8618L225.215 18.7623L225.408 19.5984L226.038 22.274L226.797 25.4769L228.038 30.7059L230.366 40.5335L232.906 51.2487L235.613 62.6971L236.757 67.5144L238.635 75.4576L241.548 87.8321L207.402 107.841L218.302 51.1394L221.588 34.0375L222.36 30.0306L223.44 24.4221L224.128 20.8847L224.951 17.8618Z" fill="#286674"/>
<path d="M234.115 0.32251L224.951 17.8617L215.318 25.4575L234.115 0.32251Z" fill="#1A1C37"/>
<path d="M241.394 0.952731L234.14 0.328857L224.951 17.8616L225.215 18.7814L225.723 18.2218L227.877 15.8421L230.417 13.0443L241.394 0.952731Z" fill="#0C6763"/>
<path d="M241.394 0.952881L241.548 87.7806L225.215 18.7815L241.394 0.952881Z" fill="#828E91"/>
<path d="M221.189 125.805L207.402 107.841L210.103 106.259L216.534 102.528C219.537 100.734 222.469 99.0811 225.472 97.2866C227.665 96.0003 230.005 94.6175 232.198 93.3054C234.584 91.884 236.899 90.5269 239.272 89.0991C239.883 88.7389 240.931 88.1922 241.535 87.8127C234.738 100.245 227.999 113.385 221.189 125.805Z" fill="#171B33"/>
<path d="M218.926 162.838L196.394 159.385L195.487 141.698L218.926 162.838Z" fill="#547782"/>
<path d="M195.487 141.697L184.221 148.174L196.394 159.384L195.487 141.697Z" fill="#678076"/>
<path d="M196.394 159.384L184.221 148.174L195.866 206.902L196.394 159.384Z" fill="#0C6763"/>
<path d="M211.364 173.753L196.394 159.385L218.926 162.838L211.364 173.753Z" fill="#7D8A8B"/>
<path d="M218.927 162.838L215.679 182.5L211.364 173.753L218.927 162.838Z" fill="#6A816C"/>
<path d="M211.364 173.753L204.117 188.604L209.326 185.169L211.364 173.753Z" fill="#10675D"/>
<path d="M215.679 182.5L209.325 185.169L211.364 173.753L215.679 182.5Z" fill="#2B6370"/>
<path d="M204.117 188.604L196.394 159.385L211.364 173.753L204.117 188.604Z" fill="#6B8584"/>
<path d="M196.394 159.385L204.117 188.604L196.002 194.701L196.394 159.385Z" fill="#48595C"/>
<path d="M207.371 206.272L196.002 194.701L204.117 188.604L207.371 206.272Z" fill="#6A8685"/>
<path d="M207.37 206.272L195.866 206.902L196.001 194.701L207.37 206.272Z" fill="#1A1C37"/>
<path d="M207.371 206.271L179.019 238.854L195.866 206.902L207.371 206.271Z" fill="#44766E"/>
<path d="M195.866 206.902L195.834 206.966L179.018 238.854L168.356 236.134L195.866 206.902Z" fill="#67836A"/>
<path d="M168.942 266.118L187.121 265.649L185.79 260.986L168.942 266.118Z" fill="#899293"/>
<path d="M176.202 289.613L167.604 285.574L175.43 284.101L176.202 289.613Z" fill="#889392"/>
<path d="M176.221 289.613L175.443 284.101L197.101 285.819L176.221 289.613Z" fill="#47585C"/>
<path d="M191.365 280.12L175.443 284.101L172.324 275.734L191.365 280.12Z" fill="#577384"/>
<path d="M197.101 285.819C197.056 285.819 191.365 280.12 191.365 280.12L175.443 284.101L176.363 284.159L197.101 285.819Z" fill="#547680"/>
<path d="M197.101 285.819L196.169 284.944L191.365 280.12L212.335 267.932L197.101 285.819Z" fill="#1A2C4B"/>
<path d="M187.121 265.649L191.365 280.114L190.24 279.914L172.324 275.734L187.121 265.649Z" fill="#286674"/>
<path d="M191.365 280.114L189.873 275.271L185.79 260.986L200.445 252.921L191.365 280.114Z" fill="#557780"/>
<path d="M213.602 245.389L200.445 252.927L191.365 280.114L213.602 245.389Z" fill="#1E2B4E"/>
<path d="M231.652 256.702L213.602 245.389L191.365 280.114L231.652 256.702Z" fill="#171E36"/>
<path d="M237.388 240.154L231.652 256.702L213.602 245.389L237.388 240.154Z" fill="#1D2C4D"/>
<path d="M205.005 225.592L213.602 245.389L200.445 252.927L205.005 225.592Z" fill="#226570"/>
<path d="M205.004 225.592L190.838 252.927H200.445L205.004 225.592Z" fill="#899293"/>
<path d="M185.79 260.986L190.838 252.927L200.445 252.921L185.79 260.986Z" fill="#4A5357"/>
<path d="M185.79 260.986L182.633 258.169L190.838 252.927L185.79 260.986Z" fill="#56777D"/>
<path d="M182.633 258.169L185.424 251.19L190.838 252.927L182.633 258.169Z" fill="#8A9392"/>
<path d="M185.79 260.986L182.633 258.169L168.942 266.118L185.79 260.986Z" fill="#1F2D4D"/>
<path d="M168.942 266.118L185.424 251.19L182.633 258.169L168.942 266.118Z" fill="#1C7460"/>
<path d="M185.514 241.401L168.942 266.118L185.424 251.19L185.514 241.401Z" fill="#7D8A8B"/>
<path d="M179.019 238.854L168.942 266.118L185.514 241.389L179.019 238.854Z" fill="#246373"/>
<path d="M168.356 236.134L168.942 266.118L179.018 238.854L168.356 236.134Z" fill="#1D2C4D"/>
<path d="M205.005 225.592L185.636 241.298L185.514 241.401L185.424 251.19L190.838 252.927L205.005 225.592Z" fill="#6C8684"/>
<path d="M207.371 206.271L205.004 225.592L185.514 241.401L207.371 206.271Z" fill="#899291"/>
<path d="M185.513 241.401L179.019 238.854L207.371 206.271L185.513 241.401Z" fill="#6C8587"/>
<path d="M237.388 240.154L207.37 206.271L213.601 245.389L237.388 240.154Z" fill="#407A7A"/>
<path d="M207.383 206.188L213.601 245.389L205.004 225.592L207.383 206.188Z" fill="#69846B"/>
<path d="M237.388 240.154L224.906 187.092L207.37 206.272L237.388 240.154Z" fill="#828E91"/>
<path d="M215.678 182.5L209.325 185.169L207.37 206.272L215.678 182.5Z" fill="#6A8270"/>
<path d="M209.326 185.169L204.117 188.604L207.371 206.272L209.326 185.169Z" fill="#3A796D"/>
<path d="M218.926 162.838L215.678 182.5L207.37 206.272L224.906 187.092L218.926 162.838Z" fill="#286674"/>
<path d="M168.158 295.833L197.172 368.498L167.875 397.26L168.158 295.833Z" fill="#6B8585"/>
<path d="M168.157 295.833L174.485 312.214L181.179 300.136L174.266 298.303L173.958 297.158L168.157 295.833Z" fill="#537780"/>
<path d="M191.501 286.783L182.247 288.462L178.922 289.067L175.392 289.71L174.286 289.961L172.164 290.514L174.267 298.303L191.501 286.783Z" fill="#828E91"/>
<path d="M191.5 286.783L174.267 298.303L182.723 300.586L191.5 286.783Z" fill="#6B8585"/>
<path d="M191.5 286.783L205.84 350.264L184.529 324.415L191.5 286.783Z" fill="#1C7561"/>
<path d="M191.5 286.783L182.723 300.586L183.153 300.747L186.523 301.641L191.5 286.783Z" fill="#899293"/>
<path d="M191.501 286.706L186.523 301.641L188.941 302.252L191.501 286.706Z" fill="#1E2B4D"/>
<path d="M174.485 312.214L180.774 328.133L188.941 302.251L174.485 312.214Z" fill="#3B7A6E"/>
<path d="M174.485 312.214L181.179 300.135L188.941 302.252L174.485 312.214Z" fill="#68816C"/>
<path d="M188.941 302.251L180.774 328.133L182.781 333.214L188.941 302.251Z" fill="#286674"/>
<path d="M198.58 318.221L213.107 346.071L205.223 347.891L198.58 318.221Z" fill="#69846B"/>
<path d="M197.172 368.498L207.274 351.01L185.41 339.877L197.172 368.498Z" fill="#68816C"/>
<path d="M182.78 333.214L185.41 339.877L194.677 336.327L182.78 333.214Z" fill="#6B8585"/>
<path d="M194.676 336.327L205.84 350.264L185.41 339.877L194.676 336.327Z" fill="#0C6763"/>
<path d="M205.223 347.891L213.106 349.563L207.274 351.042C207.274 351.042 205.853 350.316 205.84 350.296C205.827 350.277 205.242 347.917 205.223 347.891Z" fill="#10675D"/>
<path d="M205.223 347.891L213.106 349.531V346.071L205.223 347.891Z" fill="#68816C"/>
<path d="M212.334 425.675C212.212 424.884 181.738 407.776 181.738 407.776L203.64 390.829L214.013 383.22L212.334 425.675Z" fill="#1E2B4D"/>
<path d="M214.039 383.22C214.039 383.284 214.245 383.516 214.605 384.011C217.537 388.044 227.427 407.841 227.427 407.841L212.335 425.676L214.039 383.22Z" fill="#1C7561"/>
<path d="M227.427 407.841L214.039 383.22L215.235 384.236L226.939 396.894L227.427 407.841Z" fill="#47585C"/>
<path d="M226.939 396.894L214.039 383.22L224.591 389.677L226.939 396.894Z" fill="#246373"/>
<path d="M227.428 407.841L212.342 425.676L219.132 427.251L227.428 407.841Z" fill="#202B4F"/>
<path d="M222.81 418.639L237.825 431.927L219.132 427.251L222.81 418.639Z" fill="#6B8585"/>
<path d="M237.826 431.927L222.811 418.639L239.465 427.386L241.247 431.863L237.826 431.927Z" fill="#68816C"/>
<path d="M213.106 349.531L213.299 381.934L177.404 404.522L213.106 349.531Z" fill="#68816C"/>
<path d="M199.937 371.264L197.172 368.498L213.107 349.531L199.937 371.264Z" fill="#4B595D"/>
<path d="M197.172 368.498L207.274 351.01L213.107 349.531L197.172 368.498Z" fill="#1E2B4E"/>
<path d="M185.494 392.855L190.677 374.872L197.172 368.498L199.937 371.264L185.494 392.855Z" fill="#8A9192"/>
<path d="M167.875 397.261L177.405 404.522L190.677 374.872L167.875 397.261Z" fill="#8A9192"/>
<path d="M177.404 404.522L190.677 374.872L185.494 392.855L177.404 404.522Z" fill="#1C7561"/>
<path d="M181.738 407.776L177.404 404.522L203.666 390.829L181.738 407.776Z" fill="#6B8585"/>
<path d="M177.404 404.522L203.666 390.829L202.657 388.635L177.404 404.522Z" fill="#48585A"/>
<path d="M213.319 381.934L203.667 390.829L214.039 383.22L213.319 381.934Z" fill="#1C7561"/>
<path d="M202.657 388.635L203.667 390.829L213.3 381.934L202.657 388.635Z" fill="#6B8585"/>
<path d="M168.338 418.672L174.016 419.154L181.739 407.776L168.338 418.672Z" fill="#1C7561"/>
<path d="M167.875 397.26L181.784 407.738L168.338 418.671L167.875 397.26Z" fill="#68816C"/>
<path d="M184.529 324.415L194.677 336.327L182.78 333.214L184.529 324.415Z" fill="#171E36"/>
<path d="M191.5 286.783L198.58 318.221L196.284 285.915" fill="#6A8687"/>
<path d="M196.284 285.915L202.94 315.784L198.58 318.221L196.284 285.915Z" fill="#4C5859"/>
<path d="M196.284 285.915L202.94 315.784L215.093 307.899L196.284 285.915Z" fill="#899293"/>
<path d="M225.067 318.221L216.309 337.188L235.414 345.151L225.067 318.221Z" fill="#171E36"/>
<path d="M220.097 310.799L219.853 329.676L202.94 315.784L220.097 310.799Z" fill="#171E36"/>
<path d="M220.097 310.799L202.94 315.784L215.094 307.899L220.097 310.799Z" fill="#4C5859"/>
<path d="M219.853 329.676L216.309 337.189L202.94 315.784L219.853 329.676Z" fill="#3B797A"/>
<path d="M220.097 310.799L225.068 318.221L219.853 329.676L220.097 310.799Z" fill="#8A9192"/>
<path d="M235.414 345.151L236.558 354.734L216.309 337.188L235.414 345.151Z" fill="#44766E"/>
</g>
<path d="M332.641 354.564H5.50098C2.73955 354.564 0.500977 356.803 0.500977 359.564V572.085C0.500977 574.846 2.73954 577.085 5.50097 577.085H332.641C335.403 577.085 337.641 574.846 337.641 572.085V359.564C337.641 356.803 335.403 354.564 332.641 354.564Z" fill="#1F2A4C"/>
<g filter="url(#filter0_i_353_1992)">
<path d="M265.334 366.925H21.9539C19.4607 366.925 17.4395 368.975 17.4395 371.504V558.193C17.4395 560.722 19.4607 562.772 21.9539 562.772H265.334C267.827 562.772 269.848 560.722 269.848 558.193V371.504C269.848 368.975 267.827 366.925 265.334 366.925Z" fill="#007F5A"/>
</g>
<path d="M321.419 366.925H292.132C289.638 366.925 287.617 368.975 287.617 371.504V558.193C287.617 560.722 289.638 562.772 292.132 562.772H321.419C323.913 562.772 325.934 560.722 325.934 558.193V371.504C325.934 368.975 323.913 366.925 321.419 366.925Z" fill="#007F5A"/>
<path d="M306.769 405.487C312.29 405.487 316.766 400.947 316.766 395.346C316.766 389.745 312.29 385.205 306.769 385.205C301.247 385.205 296.771 389.745 296.771 395.346C296.771 400.947 301.247 405.487 306.769 405.487Z" fill="#51757D"/>
<path d="M306.769 436.88C312.29 436.88 316.766 432.34 316.766 426.739C316.766 421.138 312.29 416.598 306.769 416.598C301.247 416.598 296.771 421.138 296.771 426.739C296.771 432.34 301.247 436.88 306.769 436.88Z" fill="#51757D"/>
<path d="M312.728 399.417L302.998 389.282C302.688 388.959 302.178 388.952 301.86 389.266L300.959 390.156C300.641 390.471 300.634 390.988 300.944 391.311L310.673 401.446C310.984 401.769 311.493 401.776 311.812 401.461L312.712 400.571C313.031 400.257 313.038 399.74 312.728 399.417Z" fill="#14182C"/>
<path d="M302.348 421.057L308.577 433.714C308.776 434.118 309.259 434.282 309.657 434.08L310.782 433.51C311.179 433.309 311.341 432.819 311.142 432.415L304.913 419.758C304.715 419.355 304.231 419.191 303.834 419.392L302.708 419.962C302.311 420.164 302.149 420.654 302.348 421.057Z" fill="#14182C"/>
<path d="M308.578 433.706L305.461 427.372L308.026 426.073L311.143 432.407C311.239 432.601 311.254 432.825 311.187 433.03C311.119 433.236 310.974 433.405 310.783 433.502L309.658 434.072C309.467 434.169 309.246 434.184 309.043 434.116C308.841 434.047 308.673 433.9 308.578 433.706Z" fill="#68816C"/>
<path d="M302.987 389.275L307.856 394.347L305.802 396.376L300.933 391.304C300.784 391.149 300.702 390.94 300.705 390.724C300.708 390.507 300.795 390.301 300.948 390.149L301.849 389.26C302.002 389.108 302.208 389.025 302.421 389.028C302.635 389.031 302.838 389.12 302.987 389.275Z" fill="#68816C"/>
<path d="M290.395 535.349H322.996C323.438 535.349 323.797 534.94 323.797 534.435V533.006C323.797 532.501 323.438 532.092 322.996 532.092H290.395C289.953 532.092 289.594 532.501 289.594 533.006V534.435C289.594 534.94 289.953 535.349 290.395 535.349Z" fill="#14182C"/>
<path d="M290.395 539.421H322.996C323.438 539.421 323.797 539.114 323.797 538.735V537.664C323.797 537.285 323.438 536.978 322.996 536.978H290.395C289.953 536.978 289.594 537.285 289.594 537.664V538.735C289.594 539.114 289.953 539.421 290.395 539.421Z" fill="#14182C"/>
<path d="M290.395 543.493H322.996C323.438 543.493 323.797 543.186 323.797 542.807V541.736C323.797 541.357 323.438 541.05 322.996 541.05H290.395C289.953 541.05 289.594 541.357 289.594 541.736V542.807C289.594 543.186 289.953 543.493 290.395 543.493Z" fill="#14182C"/>
<path d="M290.395 547.565H322.996C323.438 547.565 323.797 547.258 323.797 546.879V545.807C323.797 545.429 323.438 545.122 322.996 545.122H290.395C289.953 545.122 289.594 545.429 289.594 545.807V546.879C289.594 547.258 289.953 547.565 290.395 547.565Z" fill="#14182C"/>
<path d="M290.395 552.451H322.996C323.438 552.451 323.797 552.041 323.797 551.536V550.108C323.797 549.603 323.438 549.193 322.996 549.193H290.395C289.953 549.193 289.594 549.603 289.594 550.108V551.536C289.594 552.041 289.953 552.451 290.395 552.451Z" fill="#14182C"/>
<path d="M290.395 527.206H322.996C323.438 527.206 323.797 526.796 323.797 526.291V524.863C323.797 524.358 323.438 523.948 322.996 523.948H290.395C289.953 523.948 289.594 524.358 289.594 524.863V526.291C289.594 526.796 289.953 527.206 290.395 527.206Z" fill="#14182C"/>
<path d="M290.395 531.278H322.996C323.438 531.278 323.797 530.868 323.797 530.363V528.935C323.797 528.43 323.438 528.02 322.996 528.02H290.395C289.953 528.02 289.594 528.43 289.594 528.935V530.363C289.594 530.868 289.953 531.278 290.395 531.278Z" fill="#14182C"/>
<path d="M290.395 522.32H322.996C323.438 522.32 323.797 522.013 323.797 521.634V520.563C323.797 520.184 323.438 519.877 322.996 519.877H290.395C289.953 519.877 289.594 520.184 289.594 520.563V521.634C289.594 522.013 289.953 522.32 290.395 522.32Z" fill="#14182C"/>
<path d="M290.395 501.961H322.996C323.438 501.961 323.797 501.552 323.797 501.047V499.618C323.797 499.113 323.438 498.704 322.996 498.704H290.395C289.953 498.704 289.594 499.113 289.594 499.618V501.047C289.594 501.552 289.953 501.961 290.395 501.961Z" fill="#14182C"/>
<path d="M290.395 506.033H322.996C323.438 506.033 323.797 505.726 323.797 505.347V504.276C323.797 503.897 323.438 503.59 322.996 503.59H290.395C289.953 503.59 289.594 503.897 289.594 504.276V505.347C289.594 505.726 289.953 506.033 290.395 506.033Z" fill="#14182C"/>
<path d="M290.395 510.104H322.996C323.438 510.104 323.797 509.797 323.797 509.419V508.347C323.797 507.968 323.438 507.661 322.996 507.661H290.395C289.953 507.661 289.594 507.968 289.594 508.347V509.419C289.594 509.797 289.953 510.104 290.395 510.104Z" fill="#14182C"/>
<path d="M290.395 514.176H322.996C323.438 514.176 323.797 513.869 323.797 513.491V512.419C323.797 512.04 323.438 511.733 322.996 511.733H290.395C289.953 511.733 289.594 512.04 289.594 512.419V513.491C289.594 513.869 289.953 514.176 290.395 514.176Z" fill="#14182C"/>
<path d="M290.395 519.062H322.996C323.438 519.062 323.797 518.653 323.797 518.148V516.719C323.797 516.214 323.438 515.805 322.996 515.805H290.395C289.953 515.805 289.594 516.214 289.594 516.719V518.148C289.594 518.653 289.953 519.062 290.395 519.062Z" fill="#14182C"/>
<path d="M290.395 493.818H322.996C323.438 493.818 323.797 493.408 323.797 492.903V491.475C323.797 490.97 323.438 490.56 322.996 490.56H290.395C289.953 490.56 289.594 490.97 289.594 491.475V492.903C289.594 493.408 289.953 493.818 290.395 493.818Z" fill="#14182C"/>
<path d="M290.395 497.889H322.996C323.438 497.889 323.797 497.48 323.797 496.975V495.546C323.797 495.041 323.438 494.632 322.996 494.632H290.395C289.953 494.632 289.594 495.041 289.594 495.546V496.975C289.594 497.48 289.953 497.889 290.395 497.889Z" fill="#14182C"/>
<path d="M290.395 489.746H322.996C323.438 489.746 323.797 489.336 323.797 488.831V487.403C323.797 486.898 323.438 486.488 322.996 486.488H290.395C289.953 486.488 289.594 486.898 289.594 487.403V488.831C289.594 489.336 289.953 489.746 290.395 489.746Z" fill="#14182C"/>
<defs>
<filter id="filter0_i_353_1992" x="17.4395" y="366.925" width="252.409" height="199.847" filterUnits="userSpaceOnUse" color-interpolation-filters="sRGB">
<feFlood flood-opacity="0" result="BackgroundImageFix"/>
<feBlend mode="normal" in="SourceGraphic" in2="BackgroundImageFix" result="shape"/>
<feColorMatrix in="SourceAlpha" type="matrix" values="0 0 0 0 0 0 0 0 0 0 0 0 0 0 0 0 0 0 127 0" result="hardAlpha"/>
<feOffset dy="4"/>
<feGaussianBlur stdDeviation="2"/>
<feComposite in2="hardAlpha" operator="arithmetic" k2="-1" k3="1"/>
<feColorMatrix type="matrix" values="0 0 0 0 0 0 0 0 0 0 0 0 0 0 0 0 0 0 0.25 0"/>
<feBlend mode="normal" in2="shape" result="effect1_innerShadow_353_1992"/>
</filter>
<clipPath id="clip0_353_1992">
<rect width="146.583" height="431.605" fill="white" transform="translate(94.9658 0.32251)"/>
</clipPath>
</defs>
</svg>
