<svg width="537" height="302" viewBox="0 0 537 302" fill="none" xmlns="http://www.w3.org/2000/svg">
<path d="M511.842 285.409H536.032V293.69H511.842V285.409Z" fill="#9FA8A9"/>
<path fill-rule="evenodd" clip-rule="evenodd" d="M61.3376 0.145752H482.53C485.292 0.145752 487.53 2.38433 487.53 5.14575V280.409C487.53 283.17 485.292 285.409 482.53 285.409H61.3376C58.5762 285.409 56.3376 283.17 56.3376 280.409V5.14576C56.3376 2.38433 58.5762 0.145752 61.3376 0.145752ZM71.1129 7.7229H471.519C475.621 7.7229 478.947 10.466 478.947 13.8498V263.621C478.947 267.005 475.621 269.748 471.519 269.748H71.1129C67.0109 269.748 63.6857 267.005 63.6857 263.621V13.8498C63.6857 10.466 67.0109 7.7229 71.1129 7.7229Z" fill="black"/>
<rect x="19.6667" y="285.409" width="492.175" height="8.28093" fill="#BEC7C8"/>
<path d="M233.775 285.409H310.092V286.057C310.092 289.371 307.405 292.057 304.092 292.057H239.775C236.462 292.057 233.775 289.371 233.775 286.057V285.409Z" fill="#899293"/>
<path d="M0.769958 285.409H19.6669V293.69H0.769958V285.409Z" fill="#9FA8A9"/>
<path d="M0.769958 293.69H536.032L494.197 301.831H42.2955L0.769958 293.69Z" fill="#7C7C7C"/>
</svg>
