<svg width="355" height="200" viewBox="0 0 355 200" fill="none" xmlns="http://www.w3.org/2000/svg">
<path d="M338.737 188.971H354.733V194.448H338.737V188.971Z" fill="#9FA8A9"/>
<path fill-rule="evenodd" clip-rule="evenodd" d="M42.5163 0.32959H317.66C320.421 0.32959 322.66 2.56817 322.66 5.32959V183.971C322.66 186.733 320.421 188.971 317.66 188.971H42.5163C39.7549 188.971 37.5163 186.733 37.5163 183.971V5.32959C37.5163 2.56817 39.7549 0.32959 42.5163 0.32959ZM47.287 5.34035H312.072C314.784 5.34035 316.983 7.15435 316.983 9.39203V174.563C316.983 176.801 314.784 178.615 312.072 178.615H47.287C44.5745 178.615 42.3755 176.801 42.3755 174.563V9.39203C42.3755 7.15435 44.5745 5.34035 47.287 5.34035Z" fill="black"/>
<rect x="13.2662" y="188.971" width="325.47" height="5.4761" fill="#BEC7C8"/>
<path d="M154.854 188.971H205.321V188.971C205.321 191.399 203.353 193.368 200.925 193.368H159.251C156.822 193.368 154.854 191.399 154.854 188.971V188.971Z" fill="#899293"/>
<path d="M0.769958 188.971H13.2663V194.448H0.769958V188.971Z" fill="#9FA8A9"/>
<path d="M0.769958 194.448H354.733L327.068 199.831H28.2304L0.769958 194.448Z" fill="#7C7C7C"/>
</svg>
